<?xml version="1.0" standalone="no"?>
<!DOCTYPE svg PUBLIC "-//W3C//DTD SVG 1.1//EN" "http://www.w3.org/Graphics/SVG/1.1/DTD/svg11.dtd" >
<svg>
<metadata>
Created by FontForge 20090914 at Sun May 13 14:26:57 2018
 By www-data
Copyright 2013 The Alegreya Sans Project Authors (https://github.com/huertatipografica/Alegreya-Sans)
</metadata>
<defs>
<font id="AlegreyaSansSC-Regular" horiz-adv-x="0" >
  <font-face 
    font-family="Alegreya Sans SC"
    font-weight="400"
    font-stretch="normal"
    units-per-em="1000"
    panose-1="0 0 5 0 0 0 0 0 0 0"
    ascent="800"
    descent="-200"
    x-height="498"
    cap-height="641"
    bbox="-425 -262 1313 1012"
    underline-thickness="40"
    underline-position="-144"
    unicode-range="U+000D-U+FB02"
  />
<missing-glyph horiz-adv-x="165" 
 />
    <glyph glyph-name="Idieresis" unicode="&#xa8;I" horiz-adv-x="268" 
d="M170 200l4 -200h-81l5 193l-5 448h82zM112 822.5c7.33301 -7.66699 10.999 -17.832 10.999 -30.499c0 -14.667 -4 -26.167 -12 -34.5s-18.667 -12.5 -32 -12.5s-23.666 3.83301 -30.999 11.5s-11 18.5 -11 32.5c0 13.333 4 24.166 12 32.499s19 12.5 33 12.5
c12.667 0 22.667 -3.83301 30 -11.5zM220.999 822.502c7.33301 -7.66699 11 -17.832 11 -30.499c0 -14.667 -3.83301 -26.167 -11.5 -34.5s-18.167 -12.5 -31.5 -12.5c-14 0 -24.667 3.83301 -32 11.5s-11 18.5 -11 32.5c0 13.333 4 24.166 12 32.499s19 12.5 33 12.5
c12.667 0 22.667 -3.83301 30 -11.5z" />
    <glyph glyph-name="Odieresis" unicode="&#xa8;O" horiz-adv-x="635" 
d="M527.5 566c47 -54 70.5 -131.667 70.5 -233c0 -109.333 -25 -193.5 -75 -252.5s-121.333 -88.5 -214 -88.5c-86.667 0 -153.5 28 -200.5 84s-70.5 135.667 -70.5 239c0 106.667 24.833 188.667 74.5 246s120.5 86 212.5 86c88 0 155.5 -27 202.5 -81zM120 324
c0 -91.333 16.167 -158.999 48.5 -202.999s81.166 -66 146.499 -66c133.333 0 200 87.667 200 263c0 89.333 -16.167 155.666 -48.5 198.999s-81.166 65 -146.499 65c-133.333 0 -200 -86 -200 -258zM273.5 823.001c7.66699 -7.33301 11.499 -17.666 11.499 -30.999
c0 -14 -4 -25.333 -12 -34s-18.667 -13 -32 -13c-14 0 -24.667 3.83301 -32 11.5s-11 18.5 -11 32.5c0 13.333 4 24.166 12 32.499s19 12.5 33 12.5c12.667 0 22.834 -3.66699 30.501 -11zM430.999 823.001c7.33301 -7.33301 11.001 -17.666 11.001 -30.999
c0 -14 -4 -25.333 -12 -34s-18.667 -13 -32 -13s-23.833 4 -31.5 12s-11.5 18.667 -11.5 32s4 24.166 12 32.499s19 12.5 33 12.5c13.333 0 23.666 -3.66699 30.999 -11z" />
    <glyph glyph-name="Yacute" unicode="&#xb4;Y" horiz-adv-x="528" 
d="M292 187l2 -187h-79l4 187l-1 42l-203 412h86l13 -36l140 -288h7l154 286l15 38h84l-221 -409zM369 862l19.999 -47l-2 -8c-63.333 -29.333 -128.666 -58 -195.999 -86l-9 4l-14 36c70 34.667 133.667 69 191 103z" />
    <glyph glyph-name="idieresis" unicode="&#xa8;i" horiz-adv-x="259" 
d="M86 680c7.33301 -7.33301 11.001 -17.666 11.001 -30.999c0 -14 -4 -25.333 -12 -34s-18.667 -13 -32 -13c-14 0 -24.667 3.83301 -32 11.5s-11 18.5 -11 32.5c0 13.333 4 24.166 12 32.499s19 12.5 33 12.5c13.333 0 23.666 -3.66699 30.999 -11zM243.001 680
c7.33301 -7.33301 11.001 -17.666 11.001 -30.999c0 -14 -4 -25.333 -12 -34s-18.667 -13 -32 -13s-23.833 4 -31.5 12s-11.5 18.667 -11.5 32s4 24.166 12 32.499s19 12.5 33 12.5c13.333 0 23.666 -3.66699 30.999 -11zM162.002 156l2 -156h-74l3 150l-3 348h75z" />
    <glyph glyph-name="odieresis" unicode="&#xa8;o" horiz-adv-x="557" 
d="M235 680c7.33301 -7.33301 11.001 -17.666 11.001 -30.999c0 -14 -4 -25.333 -12 -34s-18.667 -13 -32 -13c-14 0 -24.667 3.83301 -32 11.5s-11 18.5 -11 32.5c0 13.333 4 24.166 12 32.499s19 12.5 33 12.5c13.333 0 23.666 -3.66699 30.999 -11zM392.001 680
c7.33301 -7.33301 11.001 -17.666 11.001 -30.999c0 -14 -4 -25.333 -12 -34s-18.667 -13 -32 -13s-23.833 4 -31.5 12s-11.5 18.667 -11.5 32s4 24.166 12 32.499s19 12.5 33 12.5c13.333 0 23.666 -3.66699 30.999 -11zM453.502 440
c39 -42.667 58.5 -103.001 58.5 -181.001c0 -84.667 -20.833 -150.167 -62.5 -196.5s-101.167 -69.5 -178.5 -69.5c-72 0 -127.667 21.833 -167 65.5s-59 105.834 -59 186.501c0 82.667 21 146.5 63 191.5s101.333 67.5 178 67.5c72.667 0 128.5 -21.333 167.5 -64z
M161.502 395.999c-25.667 -30 -38.498 -77.333 -38.498 -142c0 -69.333 12.667 -119.666 38 -150.999s64 -47 116 -47c53.333 0 93 15.333 119 46s39 78.667 39 144c0 67.333 -12.833 116.666 -38.5 147.999s-64.834 47 -117.501 47s-91.834 -15 -117.501 -45z" />
    <glyph glyph-name="yacute" unicode="&#xb4;y" horiz-adv-x="473" 
d="M189 560l-22 32c65.333 53.333 120 101.666 164 144.999l9 -1l30 -42l-2 -8c-66 -51.333 -122.667 -93.666 -170 -126.999zM263 143l3 -143h-75l4 143l-1 31l-169 324h82l10 -29l112 -214h5l122 211l13 32h80l-185 -324z" />
    <glyph glyph-name="Itilde" unicode="&#x7e;I" horiz-adv-x="268" 
d="M170 200l4 -200h-81l5 193l-5 448h82zM274 822l0.00195312 -8l-56 -69l-8 -3c-9.33301 1.33301 -33.333 8 -72 20c-32.667 11.333 -53 17 -61 17c-4.66699 0 -9.66699 -2.33301 -15 -7s-11.333 -11 -18 -19l-17 -20h-8l-24 26v7l55 68l9 4c14 -1.33301 38 -8 72 -20
c3.33301 -1.33301 12.666 -4.33301 27.999 -9s26.333 -7 33 -7c5.33301 0 10.666 2.33301 15.999 7s12 12 20 22l14 16h7z" />
    <glyph glyph-name="itilde" unicode="&#x7e;i" horiz-adv-x="259" 
d="M271 679l0.00195312 -8l-56 -69l-8 -3c-10 2 -34 8.66699 -72 20c-32.667 11.333 -53 17 -61 17c-4.66699 0 -9.66699 -2.33301 -15 -7s-11.333 -11 -18 -19l-17 -20h-8l-24 26v7l55 68l9 4c14 -1.33301 38 -8 72 -20c3.33301 -1.33301 12.666 -4.33301 27.999 -9
s26.333 -7 33 -7c5.33301 0 10.666 2.33301 15.999 7s12 12 20 22l14 16h7zM162.002 156l2 -156h-74l3 150l-3 348h75z" />
    <glyph glyph-name="Utilde" unicode="&#x7e;U" horiz-adv-x="626" 
d="M551 315l-0.998047 -72.001c1.33301 -78.667 -19.334 -140 -62.001 -184s-103.334 -66 -182.001 -66c-75.333 0 -133.166 21 -173.499 63s-59.833 101.333 -58.5 178l1 87l-1 320h79l-3 -397c-0.666992 -60 12.666 -105.167 39.999 -135.5s68 -45.5 122 -45.5
s95 14.333 123 43s41.667 71.334 41 128.001l-4 407h80zM472.002 824.999l-0.000976562 -8.00098l-61 -69l-10 -3c-14.667 1.33301 -42.667 8 -84 20c-38 11.333 -61.667 17 -71 17c-4.66699 0 -9.66699 -2.16699 -15 -6.5s-13.666 -12.166 -24.999 -23.499l-16 -17h-9
l-24 26v7l61 69l10 3c16 -1.33301 43.667 -8 83 -20c4.66699 -1.33301 16 -4.33301 34 -9s30.667 -7 38 -7c5.33301 0 11 2.33301 17 7s13.667 12 23 22l17 17h8z" />
    <glyph glyph-name="utilde" unicode="&#x7e;u" horiz-adv-x="549" 
d="M434 682l-0.000976562 -8.00098l-61 -69l-10 -3c-14.667 1.33301 -42.667 8 -84 20c-38 11.333 -61.667 17 -71 17c-4.66699 0 -9.66699 -2.16699 -15 -6.5s-13.666 -12.166 -24.999 -23.499l-16 -17h-9l-24 26v7l61 69l10 3c16 -1.33301 43.667 -8 83 -20
c4.66699 -1.33301 16 -4.33301 34 -9s30.667 -7 38 -7c5.33301 0 11 2.33301 17 7s13.667 12 23 22l17 17h8zM472.999 244.999v-72c0.666992 -56.667 -16.5 -100.667 -51.5 -132s-85.167 -47 -150.5 -47c-64.667 0 -114 15.5 -148 46.5s-50.333 75.167 -49 132.5l1 76
l-1 249h75l-4 -313c-0.666992 -42 9.83301 -73.667 31.5 -95s54.167 -32 97.5 -32c42.667 0 75 10.667 97 32s32.667 53 32 95l-3 313h76z" />
    <glyph glyph-name="uni1EBC" unicode="&#x7e;E" horiz-adv-x="482" 
d="M459 62l-6 -62h-360l5 193l-5 448h361l4 -8l-6 -62l-151 3l-127 -2l-2 -210l120 -2l106 3l6 -7l-7 -62l-112 2l-114 -1l-1 -95l3 -133l127 -1l154 4zM431 825l-0.000976562 -8.00098l-61 -69l-10 -3c-14.667 1.33301 -42.667 8 -84 20c-38 11.333 -61.667 17 -71 17
c-4.66699 0 -9.66699 -2.16699 -15 -6.5s-13.666 -12.166 -24.999 -23.499l-16 -17h-9l-24 26v7l61 69l10 3c16 -1.33301 43.667 -8 83 -20c4.66699 -1.33301 16 -4.33301 34 -9s30.667 -7 38 -7c5.33301 0 11 2.33301 17 7s13.667 12 23 22l17 17h8z" />
    <glyph glyph-name="uni1EBD" unicode="&#x7e;e" horiz-adv-x="435" 
d="M108 592l-24.001 25.999v7l61 69l10 3c16 -1.33301 43.667 -8 83 -20c4.66699 -1.33301 16 -4.33301 34 -9s30.667 -7 38 -7c5.33301 0 11 2.33301 17 7s13.667 12 23 22l17 17h8l24 -25v-8l-61 -69l-10 -3c-14.667 1.33301 -42.667 8 -84 20
c-38 11.333 -61.667 17 -71 17c-4.66699 0 -9.66699 -2.16699 -15 -6.5s-13.666 -12.166 -24.999 -23.499l-16 -17h-9zM393.999 63.999l6 -6l-7 -58h-303l3 150l-3 348h305l5 -6l-6 -58l-126 4l-104 -1l-1 -151l99 -1l87 3l5 -7l-6 -59l-92 3l-93 -1l-1 -68l1 -95l98 -1z
" />
    <glyph glyph-name="uni1EF8" unicode="&#x7e;Y" horiz-adv-x="528" 
d="M292 187l2 -187h-79l4 187l-1 42l-203 412h86l13 -36l140 -288h7l154 286l15 38h84l-221 -409zM415 825l-0.000976562 -8.00098l-61 -69l-10 -3c-14.667 1.33301 -42.667 8 -84 20c-38 11.333 -61.667 17 -71 17c-4.66699 0 -9.66699 -2.16699 -15 -6.5
s-13.666 -12.166 -24.999 -23.499l-16 -17h-9l-24 26v7l61 69l10 3c16 -1.33301 43.667 -8 83 -20c4.66699 -1.33301 16 -4.33301 34 -9s30.667 -7 38 -7c5.33301 0 11 2.33301 17 7s13.667 12 23 22l17 17h8z" />
    <glyph glyph-name="uni1EF9" unicode="&#x7e;y" horiz-adv-x="473" 
d="M107 592l-24.001 25.999v7l61 69l10 3c16 -1.33301 43.667 -8 83 -20c4.66699 -1.33301 16 -4.33301 34 -9s30.667 -7 38 -7c5.33301 0 11 2.33301 17 7s13.667 12 23 22l17 17h8l24 -25v-8l-61 -69l-10 -3c-14.667 1.33301 -42.667 8 -84 20
c-38 11.333 -61.667 17 -71 17c-4.66699 0 -9.66699 -2.16699 -15 -6.5s-13.666 -12.166 -24.999 -23.499l-16 -17h-9zM262.999 142.999l3 -143h-75l4 143l-1 31l-169 324h82l10 -29l112 -214h5l122 211l13 32h80l-185 -324z" />
    <glyph glyph-name="Gtilde" unicode="&#x7e;G" horiz-adv-x="600" 
d="M538 601l-16.0029 -75.999l-10 -2c-32 20 -61.5 34.333 -88.5 43s-55.5 13 -85.5 13c-144.667 0 -217 -89.333 -217 -268c0 -86 16.833 -149.167 50.5 -189.5s85.834 -60.5 156.501 -60.5c18.667 0 37.5 1.66699 56.5 5s43.5 9.66602 73.5 18.999l2 75l-1 96l75 6l-2 -91
l4 -140c-43.333 -13.333 -81.666 -23 -114.999 -29s-65.666 -9 -96.999 -9c-95.333 0 -166.833 27 -214.5 81s-71.5 132 -71.5 234c0 110 27 193.833 81 251.5s131 86.5 231 86.5c67.333 0 130 -15 188 -45zM482.997 825.001l-0.000976562 -8.00098l-61 -69l-10 -3
c-14.667 1.33301 -42.667 8 -84 20c-38 11.333 -61.667 17 -71 17c-4.66699 0 -9.66699 -2.16699 -15 -6.5s-13.666 -12.166 -24.999 -23.499l-16 -17h-9l-24 26v7l61 69l10 3c16 -1.33301 43.667 -8 83 -20c4.66699 -1.33301 16 -4.33301 34 -9s30.667 -7 38 -7
c5.33301 0 11 2.33301 17 7s13.667 12 23 22l17 17h8z" />
    <glyph glyph-name="gtilde" unicode="&#x7e;g" horiz-adv-x="526" 
d="M436 682l-0.000976562 -8.00098l-61 -69l-10 -3c-14.667 1.33301 -42.667 8 -84 20c-38 11.333 -61.667 17 -71 17c-4.66699 0 -9.66699 -2.16699 -15 -6.5s-13.666 -12.166 -24.999 -23.499l-16 -17h-9l-24 26v7l61 69l10 3c16 -1.33301 43.667 -8 83 -20
c4.66699 -1.33301 16 -4.33301 34 -9s30.667 -7 38 -7c5.33301 0 11 2.33301 17 7s13.667 12 23 22l17 17h8zM462.999 468.999l-25.001 -71.999h-9c-24.667 16 -47.334 27.167 -68.001 33.5s-43 9.5 -67 9.5c-56.667 0 -99.167 -16 -127.5 -48s-42.5 -82 -42.5 -150
c0 -65.333 13 -112.5 39 -141.5s67.333 -43.5 124 -43.5c16.667 0 32.667 1.5 48 4.5s34 8.5 56 16.5v50l-1 71l69 5v-180c-67.333 -20 -125.666 -30 -174.999 -30c-78.667 0 -138.167 21.167 -178.5 63.5s-60.5 102.833 -60.5 181.5c0 85.333 22.833 150.666 68.5 195.999
s109.834 68 192.501 68c52 0 104.333 -11.333 157 -34z" />
    <glyph glyph-name=".notdef" horiz-adv-x="165" 
 />
    <glyph glyph-name="nonmarkingreturn" unicode="&#xd;" horiz-adv-x="165" 
 />
    <glyph glyph-name="space" unicode=" " horiz-adv-x="165" 
 />
    <glyph glyph-name="exclam" unicode="!" horiz-adv-x="230" 
d="M157 498l-18 -337l-45 -5l-8 9v330l8 10l54 2zM140.5 69c7 -7.33301 10.5 -17.333 10.5 -30c0 -13.333 -3.83301 -24 -11.5 -32s-18.167 -12 -31.5 -12c-12.667 0 -22.667 3.66699 -30 11s-11 17.333 -11 30c0 13.333 4 24 12 32s18.667 12 32 12
c12.667 0 22.5 -3.66699 29.5 -11z" />
    <glyph glyph-name="quotedbl" unicode="&#x22;" horiz-adv-x="295" 
d="M124 491l-24 -183l-41 -6l-7 7l5 184l61 5zM238 491l-24 -183l-41 -6l-6 7l4 184l61 5z" />
    <glyph glyph-name="numbersign" unicode="#" horiz-adv-x="516" 
d="M375 365l-26 -116h106l5 -6l-4 -43h-118l-38 -168h-46l-5 7l36 161h-110l-37 -168h-47l-5 7l36 161h-96l-6 5l4 44h109l26 116h-98l-6 6l4 43h111l36 160h46l5 -8l-34 -152h109l36 160h46l6 -8l-34 -152h104l6 -6l-5 -43h-116zM322 365h-110l-26 -116h110z" />
    <glyph glyph-name="dollar" unicode="$" horiz-adv-x="428" 
d="M335 44.5c-27.333 -27 -64.668 -43.1689 -112.001 -48.502l-9 -125h-39l-8 7l9 118c-46.667 2.66699 -89 13.334 -127 32.001l8 70l9 3c15.333 -14.667 33 -26.5 53 -35.5s40.333 -14.833 61 -17.5l15 178c-28 12 -51 23.333 -69 34s-33.167 24.5 -45.5 41.5
s-18.5 37.5 -18.5 61.5c0 36.667 14 67.834 42 93.501s65.667 40.167 113 43.5l11 142h39l9 -8l-11 -134c34 -3.33301 65.667 -11 95 -23l-11 -64l-11 -3c-26 19.333 -51.667 31.333 -77 36l-14 -172c40.667 -17.333 72.334 -35.833 95.001 -55.5s34 -46.167 34 -79.5
c0 -36 -13.667 -67.5 -41 -94.5zM145.998 327.998c12.667 -12 31 -23.333 55 -34l12 154c-26 -2.66699 -46.833 -11.667 -62.5 -27s-23.5 -32 -23.5 -50c0 -16.667 6.33301 -31 19 -43zM287.998 77.498c15.333 15 23 31.833 23 50.5c0 17.333 -6 32 -18 44
s-29.333 23.333 -52 34l-13 -158c24.667 4.66699 44.667 14.5 60 29.5z" />
    <glyph glyph-name="percent" unicode="%" horiz-adv-x="824" 
d="M644 658l6 -14l-472 -735l-35 20l-5 12l471 737zM296.5 601.5c24.333 -29.667 36.501 -72.167 36.501 -127.5c0 -59.333 -13 -104.5 -39 -135.5s-63.333 -46.5 -112 -46.5c-45.333 0 -80.333 14.833 -105 44.5s-37 72.5 -37 128.5c0 58.667 13 103.5 39 134.5
s63.667 46.5 113 46.5c45.333 0 80.166 -14.833 104.499 -44.5zM96.001 470c0 -82 30.333 -123 91 -123s91 39.333 91 118c0 81.333 -30.667 122 -92 122c-60 0 -90 -39 -90 -117zM746.501 305c24.333 -29.333 36.501 -71.667 36.501 -127
c0 -59.333 -12.833 -104.5 -38.5 -135.5s-63.167 -46.5 -112.5 -46.5c-45.333 0 -80.333 14.833 -105 44.5s-37 72.167 -37 127.5c0 58.667 13 103.5 39 134.5s63.667 46.5 113 46.5c45.333 0 80.166 -14.667 104.499 -44zM546.002 172.999c0 -81.333 30.333 -122 91 -122
s91 39.333 91 118c0 81.333 -30.667 122 -92 122c-60 0 -90 -39.333 -90 -118z" />
    <glyph glyph-name="ampersand" unicode="&#x26;" horiz-adv-x="768" 
d="M823 310c-13.333 -25.333 -28.168 -44.166 -44.501 -56.499s-37.166 -19.5 -62.499 -21.5c-18 0 -55 5.33301 -111 16c-3.33301 -50.667 -18 -95.667 -44 -135s-61 -69.833 -105 -91.5s-93.667 -32.5 -149 -32.5c-82 0 -146.5 23.833 -193.5 71.5
s-70.5 112.167 -70.5 193.5c0 49.333 8.83301 93 26.5 131s41.667 67.5 72 88.5s64.166 31.5 101.499 31.5c35.333 0 63.166 -8.5 83.499 -25.5s30.5 -38.833 30.5 -65.5c0 -10.667 -1.33301 -20.334 -4 -29.001c62.667 46 118 97 166 153s85.333 113.667 112 173h7
c15.333 -15.333 26 -33.666 32 -54.999c-25.333 -56.667 -66.5 -115.167 -123.5 -175.5s-123.167 -115.833 -198.5 -166.5s-151.666 -90.334 -228.999 -119.001c10.667 -46 32.5 -81.833 65.5 -107.5s75.833 -38.5 128.5 -38.5c44 0 83.667 8.66699 119 26s63 42 83 74
s30.333 69 31 111c-26.667 4.66699 -46 7 -58 7c-17.333 0 -32.666 -5 -45.999 -15s-25.333 -25.667 -36 -47l-10 -1l-15 44c12.667 24.667 27.334 43.167 44.001 55.5s37.667 19.833 63 22.5c14 0 34.167 -2.5 60.5 -7.5s43.5 -8.16699 51.5 -9.5
c57.333 -12 95.666 -18 114.999 -18c20 0 36.5 4.83301 49.5 14.5s23.833 25.167 32.5 46.5l10 1zM147.498 399c-23.667 -34 -35.5 -79 -35.5 -135v-12c47.333 17.333 97 41.333 149 72c15.333 11.333 26.333 23.5 33 36.5s10 25.167 10 36.5c0 18 -5.66699 31.333 -17 40
s-26.666 13 -45.999 13c-38.667 0 -69.834 -17 -93.501 -51z" />
    <glyph glyph-name="quotesingle" unicode="'" horiz-adv-x="166" 
d="M124 491l-24 -183l-41 -6l-7 7l5 184l61 5z" />
    <glyph glyph-name="parenleft" unicode="(" horiz-adv-x="288" 
d="M283 636v-7.99902c-48.667 -38.667 -83.334 -86.5 -104.001 -143.5s-31.334 -132.833 -32.001 -227.5c0.666992 -92.667 11.334 -167 32.001 -223s55.334 -103 104.001 -141v-8l-29 -26h-7c-58.667 42.667 -100.667 94.5 -126 155.5s-38.333 141.5 -39 241.5
c0.666992 103.333 13.667 186.166 39 248.499s67.333 114.833 126 157.5h7z" />
    <glyph glyph-name="parenright" unicode=")" horiz-adv-x="306" 
d="M7 -115v7.99902c48.667 38.667 83.334 86.5 104.001 143.5s31.334 132.833 32.001 227.5c-0.666992 92.667 -11.334 167 -32.001 223s-55.334 103 -104.001 141v8l29 26h7c58.667 -42.667 100.667 -94.5 126 -155.5s38.333 -141.5 39 -241.5
c-0.666992 -103.333 -13.667 -186.166 -39 -248.499s-67.333 -114.833 -126 -157.5h-7z" />
    <glyph glyph-name="asterisk" unicode="*" horiz-adv-x="374" 
d="M225 727l-22 -120l-34 -4l-5 7l-2 114c18.667 6 38.667 9 60 9zM149 595l-5 -33l-7 -4l-101 34c0 26 2.66699 46.333 8 61l7 2zM346 579l-5 -5l-111 -16l-15 30l4 9l100 36c13.333 -21.333 22.333 -39.333 27 -54zM226 537l61.001 -90
c-8.66699 -15.333 -22.334 -30 -41.001 -44l-8 1l-46 113l24 22zM173.001 522l-1 -9l-57 -93c-12.667 4 -31 13.333 -55 28v6l83 84z" />
    <glyph glyph-name="plus" unicode="+" horiz-adv-x="480" 
d="M268 468v-175h175l6 -6l-5 -50h-176v-177l-50 -4l-6 6v175h-175l-6 6l5 50h176v177l50 5z" />
    <glyph glyph-name="comma" unicode="," horiz-adv-x="229" 
d="M169 20c0 -43.333 -31.333 -88.002 -94 -134.002l-27 25v7c36.667 28.667 55 58 55 88c0 18 -10.333 33.667 -31 47v8c18.667 12.667 37 21.334 55 26.001c28 -17.333 42 -39.666 42 -66.999z" />
    <glyph glyph-name="hyphen" unicode="-" horiz-adv-x="307" 
d="M278 293v-50l-241 -35l-8 8v50l242 34z" />
    <glyph glyph-name="period" unicode="." horiz-adv-x="229" 
d="M148 76c8 -8 12 -18.999 12 -32.999c0 -14.667 -4.16699 -26.334 -12.5 -35.001s-19.833 -13 -34.5 -13c-14 0 -24.833 4 -32.5 12s-11.5 19.333 -11.5 34c0 14 4.16699 25.333 12.5 34s19.833 13 34.5 13c13.333 0 24 -4 32 -12z" />
    <glyph glyph-name="slash" unicode="/" horiz-adv-x="287" 
d="M288 669l-205 -782h-55l-6 8l205 783h55z" />
    <glyph glyph-name="zero" unicode="0" horiz-adv-x="528" 
d="M426.5 438.5c37 -43.667 55.501 -105.832 55.501 -186.499c0 -82.667 -19.333 -146.5 -58 -191.5s-93.334 -67.5 -164.001 -67.5c-68 0 -120.5 21.667 -157.5 65s-55.5 104.666 -55.5 183.999c0 84 19.333 148.667 58 194s93.667 68 165 68
c67.333 0 119.5 -21.833 156.5 -65.5zM148.501 385.002c-25.667 -30.667 -38.5 -76.332 -38.5 -136.999c0 -61.333 13 -107.5 39 -138.5s64.333 -46.5 115 -46.5s89.167 15.167 115.5 45.5s39.5 75.166 39.5 134.499c0 62 -13.167 108.833 -39.5 140.5
s-65.166 47.5 -116.499 47.5c-50.667 0 -88.834 -15.333 -114.501 -46z" />
    <glyph glyph-name="one" unicode="1" horiz-adv-x="344" 
d="M225 494l-5 -287l4 -207h-80l5 197l-1 214l-129 -36l-8 4v63l202 60z" />
    <glyph glyph-name="two" unicode="2" horiz-adv-x="455" 
d="M328.5 471.5c25.667 -20.333 38.501 -47.167 38.501 -80.5c0 -26.667 -9.33301 -56.5 -28 -89.5s-48.334 -73.167 -89.001 -120.5l-101 -115l2 -4h185l84 6l6 -5l-11 -67l-102 4h-224l-37 -2l-5 4v50l139 151c36 40 62.333 73.167 79 99.5s25 49.5 25 69.5
c0 18 -6.66699 32.833 -20 44.5s-32 17.5 -56 17.5s-47.833 -6 -71.5 -18s-45.167 -28.667 -64.5 -50h-10l-13 61c26 24 54 42.5 84 55.5s60.333 19.5 91 19.5c40 0 72.833 -10.167 98.5 -30.5z" />
    <glyph glyph-name="three" unicode="3" horiz-adv-x="412" 
d="M301 467.5c28 -23.667 42.0029 -54.1631 42.0029 -91.4961c0 -28.667 -8.5 -56.334 -25.5 -83.001s-41.833 -48.334 -74.5 -65.001v-4c40 -9.33301 70.333 -25.333 91 -48s31 -51 31 -85c0 -36.667 -9.5 -69.334 -28.5 -98.001s-45.833 -50.834 -80.5 -66.501
s-74.334 -23.5 -119.001 -23.5c-30.667 0 -63.334 3 -98.001 9l-5 68l6 5c31.333 -13.333 65.333 -20 102 -20c44 0 79.667 10.5 107 31.5s41 49.167 41 84.5c0 31.333 -11.167 56 -33.5 74s-54.166 27.667 -95.499 29h-59l-5 6l2 55l44 1c18 0 36.333 5 55 15
s34.167 23.667 46.5 41s18.5 36.333 18.5 57c0 24 -8 43 -24 57s-37 21 -63 21c-20.667 0 -40.834 -4.83301 -60.501 -14.5s-40.834 -24.5 -63.501 -44.5h-9l-12 63c50 41.333 103.333 62 160 62c45.333 0 82 -11.833 110 -35.5z" />
    <glyph glyph-name="four" unicode="4" horiz-adv-x="481" 
d="M352 77h-2l3 -163l-5 -6l-60 -5l-5 6l2 168h-187l-66 -2l-5 8v51l251 364h73l-2 -359h94l6 -8l-5 -56zM286 139v263h-7l-182 -263h189z" />
    <glyph glyph-name="five" unicode="5" horiz-adv-x="418" 
d="M375 496l-8 -63.002l-6 -6l-73 6h-148l-4 -156l63 -13c62 -13.333 106 -32.666 132 -57.999s39 -58.666 39 -99.999c0 -40 -10.167 -75.333 -30.5 -106s-48.666 -54.667 -84.999 -72s-77.5 -26 -123.5 -26c-28 0 -59.333 3.33301 -94 10l-6 70l7 7
c37.333 -16 73.666 -24 108.999 -24c45.333 0 81.333 11.833 108 35.5s40 54.5 40 92.5c0 30 -10.167 54 -30.5 72s-53.5 31.333 -99.5 40l-85 16l-7 7l5 261l13 11l53 -2h135l92 4z" />
    <glyph glyph-name="six" unicode="6" horiz-adv-x="470" 
d="M384.5 303c28.333 -30.667 42.5 -71.668 42.5 -123.001c0 -55.333 -17.333 -100.5 -52 -135.5s-82.334 -52.5 -143.001 -52.5c-61.333 0 -107.666 19 -138.999 57s-47 92 -47 162c0 84.667 25.833 160.334 77.5 227.001s124.5 118.667 218.5 156h5l62 -36v-8
c-80 -28 -142.5 -61.333 -187.5 -100s-75.167 -84.667 -90.5 -138l6 -7c40 29.333 83.333 44 130 44c50 0 89.167 -15.333 117.5 -46zM325 78.499c20.667 21 31 51.167 31 90.5c0 38.667 -9.66699 68.5 -29 89.5s-46.666 31.5 -81.999 31.5c-44 0 -86 -17.333 -126 -52
c-0.666992 -6 -1 -15 -1 -27c0 -54.667 9.66699 -95.667 29 -123s49.666 -41 90.999 -41c37.333 0 66.333 10.5 87 31.5z" />
    <glyph glyph-name="seven" unicode="7" horiz-adv-x="417" 
d="M117 498h229l42 2l1 -59l-194 -424l-45 -119l-64 18l-5 13l233 503h-211l-76 -8l-5 9l5 68z" />
    <glyph glyph-name="eight" unicode="8" horiz-adv-x="474" 
d="M359.5 554.5c27.667 -25 41.501 -59.167 41.501 -102.5c0 -34 -8.66699 -62 -26 -84s-41 -41.667 -71 -59v-5c36 -17.333 64.167 -36.5 84.5 -57.5s30.5 -50.5 30.5 -88.5c0 -50 -17.667 -90 -53 -120s-82.333 -45 -141 -45c-54.667 0 -97.834 13.833 -129.501 41.5
s-47.5 63.834 -47.5 108.501c0 37.333 10.667 67.833 32 91.5s49.666 44.167 84.999 61.5v5c-28 14.667 -50.667 32.667 -68 54s-26 49.333 -26 84c0 47.333 16 84.666 48 111.999s74 41 126 41c48.667 0 86.834 -12.5 114.501 -37.5zM166.001 509
c-18.667 -16.667 -28 -39.332 -28 -67.999s8.83301 -50.834 26.5 -66.501s43.167 -30.167 76.5 -43.5c30 12.667 53.5 27.5 70.5 44.5s25.5 40.167 25.5 69.5c0 28 -8.5 49.833 -25.5 65.5s-40.5 23.5 -70.5 23.5c-31.333 0 -56.333 -8.33301 -75 -25zM146.001 226.002
c-20 -18 -30.001 -42.998 -30.001 -74.998c0 -30 10.5 -54.333 31.5 -73s49.167 -28 84.5 -28c36.667 0 65.834 9.5 87.501 28.5s32.5 43.833 32.5 74.5c0 21.333 -5.66699 39.166 -17 53.499s-24.833 25.666 -40.5 33.999s-38.167 18.5 -67.5 30.5c-34 -12 -61 -27 -81 -45
z" />
    <glyph glyph-name="nine" unicode="9" horiz-adv-x="470" 
d="M377 450c31.333 -38 47.001 -91.999 47.001 -161.999c0 -84.667 -25.833 -160.334 -77.5 -227.001s-124.5 -118.667 -218.5 -156h-5l-62 36v8c80 28 142.5 61.333 187.5 100s75.167 84.667 90.5 138l-6 7c-40 -29.333 -83.333 -44 -130 -44
c-50 0 -89.167 15.333 -117.5 46s-42.5 71.667 -42.5 123c0 56 17.5 101.333 52.5 136s82.5 52 142.5 52c61.333 0 107.666 -19 138.999 -57zM351.001 261.001c0.666992 6 1 15 1 27c0 54.667 -9.66699 95.667 -29 123s-49.666 41 -90.999 41
c-37.333 0 -66.333 -10.5 -87 -31.5s-31 -51.167 -31 -90.5c0 -38.667 9.66699 -68.5 29 -89.5s46.666 -31.5 81.999 -31.5c44 0 86 17.333 126 52z" />
    <glyph glyph-name="colon" unicode=":" horiz-adv-x="229" 
d="M144 76c8 -8 12 -18.999 12 -32.999c0 -14.667 -4.16699 -26.334 -12.5 -35.001s-19.833 -13 -34.5 -13c-14 0 -24.833 4 -32.5 12s-11.5 19.333 -11.5 34c0 14 4.16699 25.333 12.5 34s19.833 13 34.5 13c13.333 0 24 -4 32 -12zM144 346.001
c8 -8 12 -18.999 12 -32.999c0 -14.667 -4.16699 -26.334 -12.5 -35.001s-19.833 -13 -34.5 -13c-14 0 -24.833 4 -32.5 12s-11.5 19.333 -11.5 34c0 14 4.16699 25.333 12.5 34s19.833 13 34.5 13c13.333 0 24 -4 32 -12z" />
    <glyph glyph-name="semicolon" unicode=";" horiz-adv-x="229" 
d="M165 20c0 -43.333 -31.333 -88.002 -94 -134.002l-27 25v7c36.667 28.667 55 58 55 88c0 18 -10.333 33.667 -31 47v8c18.667 12.667 37 21.334 55 26.001c28 -17.333 42 -39.666 42 -66.999zM144 345.998c8 -8 12 -18.999 12 -32.999
c0 -14.667 -4.16699 -26.334 -12.5 -35.001s-19.833 -13 -34.5 -13c-14 0 -24.833 4 -32.5 12s-11.5 19.333 -11.5 34c0 14 4.16699 25.333 12.5 34s19.833 13 34.5 13c13.333 0 24 -4 32 -12z" />
    <glyph glyph-name="less" unicode="&#x3c;" horiz-adv-x="480" 
d="M442 417l-4 -7l-340 -141v-6l342 -132l-12 -46l-9 -5l-383 152v65l7 9l381 157z" />
    <glyph glyph-name="equal" unicode="=" horiz-adv-x="480" 
d="M449 370l-5 -50h-407l-6 6l5 50h407zM449 203l-5 -50h-407l-6 6l5 50h407z" />
    <glyph glyph-name="greater" unicode="&#x3e;" horiz-adv-x="480" 
d="M437 306l7 -9v-65l-383 -152l-9 5l-12 46l342 132v6l-340 141l-4 7l18 46z" />
    <glyph glyph-name="question" unicode="?" horiz-adv-x="280" 
d="M214.5 467.5c37.667 -22.333 56.5 -52.834 56.5 -91.501c0 -21.333 -6.5 -41.666 -19.5 -60.999s-31.167 -35.333 -54.5 -48l-69 -42l-2 -3l3 -64l-49 -6l-6 7l-6 81l4 9l76 45c35.333 20.667 53 45 53 73c0 50.667 -55.333 79 -166 85l-6 7l15 43l9 5
c70 -4 123.833 -17.167 161.5 -39.5zM135 66.499c7.33301 -7.66699 10.999 -17.5 10.999 -29.5c0 -13.333 -4 -23.833 -12 -31.5s-18.667 -11.5 -32 -11.5c-12 0 -21.5 3.5 -28.5 10.5s-10.5 16.833 -10.5 29.5c0 13.333 3.83301 24 11.5 32s17.834 12 30.501 12
s22.667 -3.83301 30 -11.5z" />
    <glyph glyph-name="at" unicode="@" horiz-adv-x="825" 
d="M706 80c-58.667 -52 -142.333 -80 -251 -84l29 207h-10c-51.333 -88 -105 -158.333 -161 -211h-15c-50.667 30 -76 83 -76 159c0 48 9 94.667 27 140s45 83.833 81 115.5s79.333 51.167 130 58.5h5l64 -23l46 23l10 -4l-50 -351l-2 -55c65.333 8 116 33 152 75
s54 97.333 54 166c0 52.667 -11.5 99 -34.5 139s-55.833 71 -98.5 93s-92.667 33 -150 33c-72 0 -135.5 -15.333 -190.5 -46s-97.833 -73.5 -128.5 -128.5s-46 -117.833 -46 -188.5c0 -72 15.833 -134.167 47.5 -186.5s76.334 -92.333 134.001 -120
s125.167 -41.5 202.5 -41.5l2 -8l-24 -40c-83.333 0.666992 -156.333 16.667 -219 48s-111.334 75.833 -146.001 133.5s-52 125.5 -52 203.5c0 82.667 17.5 156.334 52.5 221.001s84.333 115.167 148 151.5s137.167 54.5 220.5 54.5c67.333 0 126.5 -13 177.5 -39
s90.333 -62.833 118 -110.5s41.5 -102.834 41.5 -165.501c0 -94 -29.333 -167 -88 -219zM362.001 108c20 22 42.833 53.8311 68.5 95.498s50.5 90.834 74.5 147.501l1 6l2 25l-63 22c-32 0 -59.667 -10.5 -83 -31.5s-41.333 -49.167 -54 -84.5s-19 -74.666 -19 -117.999
c0 -34 3.16699 -58.333 9.5 -73s13.5 -22 21.5 -22s22 11 42 33z" />
    <glyph glyph-name="A" unicode="A" horiz-adv-x="578" 
d="M556 0h-82l-15 64l-36 110l-144 3l-130 -3l-39 -106l-16 -68h-80l235 641h93zM401 242l-104 316h-7l-116 -316l112 -2z" />
    <glyph glyph-name="B" unicode="B" horiz-adv-x="537" 
d="M498 179c0 -60.667 -21.999 -106.332 -65.999 -136.999s-109.667 -46 -197 -46c-58.667 0 -105.667 1.33301 -141 4h-1l5 193l-5 448l178 1c60 0 106.167 -13.333 138.5 -40s48.5 -65.334 48.5 -116.001c0 -36 -8.33301 -67 -25 -93s-40.334 -45.667 -71.001 -59
c90.667 -18 136 -69.667 136 -155zM347.501 552.502c-19 15.667 -49.833 23.498 -92.5 23.498h-81l-2 -215l110 -3c62.667 14.667 94 54.334 94 119.001c0 34.667 -9.5 59.834 -28.5 75.501zM373.001 94c29.333 20.667 44 50.334 44 89.001
c0 65.333 -41 102.666 -123 111.999l-123 -1l-1 -94l3 -134c26 -2 50.667 -3 74 -3c54.667 0 96.667 10.333 126 31z" />
    <glyph glyph-name="C" unicode="C" horiz-adv-x="520" 
d="M497 598l-15.999 -72.999l-9 -2c-44.667 37.333 -96 56 -154 56c-63.333 0 -112 -21.833 -146 -65.5s-51 -107.5 -51 -191.5c0 -84.667 17 -149.334 51 -194.001s82 -67 144 -67c29.333 0 58.5 5.33301 87.5 16s55.5 25.667 79.5 45l10 -5l-7 -76
c-58 -32 -117 -48 -177 -48c-86 0 -152.667 27.833 -200 83.5s-71 135.167 -71 238.5c0 106 24.667 187.667 74 245s119.333 86 210 86c67.333 0 125.666 -16 174.999 -48z" />
    <glyph glyph-name="D" unicode="D" horiz-adv-x="646" 
d="M535 567c48.667 -52 73.001 -126.667 73.001 -224c0 -112.667 -26.333 -199 -79 -259s-128.334 -90 -227.001 -90c-27.333 0 -60.5 0.5 -99.5 1.5s-75.167 2.5 -108.5 4.5h-1l5 193l-5 448h1l231 4c91.333 0 161.333 -26 210 -78zM471.501 127.5
c36.333 44.333 54.5 110.5 54.5 198.5c0 168 -69 252 -207 252c-42 0 -90.333 -1.33301 -145 -4l-4 -374l3 -133c20.667 -2 45.5 -3.5 74.5 -4.5s51.5 -1.5 67.5 -1.5c68 0 120.167 22.167 156.5 66.5z" />
    <glyph glyph-name="E" unicode="E" horiz-adv-x="482" 
d="M459 62l-6 -62h-360l5 193l-5 448h361l4 -8l-6 -62l-151 3l-127 -2l-2 -210l120 -2l106 3l6 -7l-7 -62l-112 2l-114 -1l-1 -95l3 -133l127 -1l154 4z" />
    <glyph glyph-name="F" unicode="F" horiz-adv-x="434" 
d="M174 572l-2 -223l108 -2l104 3l6 -8l-7 -61l-111 3l-101 -1l-1 -83l4 -200h-81l5 193l-5 448h341l6 -8l-7 -64l-147 5z" />
    <glyph glyph-name="G" unicode="G" horiz-adv-x="600" 
d="M538 601l-16.0029 -75.999l-10 -2c-32 20 -61.5 34.333 -88.5 43s-55.5 13 -85.5 13c-144.667 0 -217 -89.333 -217 -268c0 -86 16.833 -149.167 50.5 -189.5s85.834 -60.5 156.501 -60.5c18.667 0 37.5 1.66699 56.5 5s43.5 9.66602 73.5 18.999l2 75l-1 96l75 6l-2 -91
l4 -140c-43.333 -13.333 -81.666 -23 -114.999 -29s-65.666 -9 -96.999 -9c-95.333 0 -166.833 27 -214.5 81s-71.5 132 -71.5 234c0 110 27 193.833 81 251.5s131 86.5 231 86.5c67.333 0 130 -15 188 -45z" />
    <glyph glyph-name="H" unicode="H" horiz-adv-x="684" 
d="M586 200l2 -200h-79l4 193l-1 96l-178 1l-163 -1l-1 -89l3 -200h-79l3 193l-3 448h80l-3 -284l170 -1l171 1l-3 284h81z" />
    <glyph glyph-name="I" unicode="I" horiz-adv-x="268" 
d="M170 200l4 -200h-81l5 193l-5 448h82z" />
    <glyph glyph-name="J" unicode="J" horiz-adv-x="310" 
d="M213 212l2 -94c0 -50.667 -12.667 -92.5 -38 -125.5s-69.333 -64.5 -132 -94.5l-31 45v10c46 24.667 78.667 49 98 73s29 54.333 29 91v87l-4 372l-123 -1l-8 7l5 59h206z" />
    <glyph glyph-name="K" unicode="K" horiz-adv-x="547" 
d="M170 200l3 -200h-79l3 193l-3 448h80zM269 340c88.667 -114.667 181.333 -222.332 278 -322.999l-1 -10c-20 -6 -45 -11.333 -75 -16l-10 5c-105.333 119.333 -197.333 232.666 -276 339.999v6l214 243l40 56h90z" />
    <glyph glyph-name="L" unicode="L" horiz-adv-x="416" 
d="M413 60l-7 -60h-316l5 193l-5 448h82l-5 -441l3 -133h237z" />
    <glyph glyph-name="M" unicode="M" horiz-adv-x="789" 
d="M728 0h-72l-15 195l-34 319h-7l-178 -440h-66l-169 440h-8l-34 -313l-17 -201h-68l67 641h91l33 -98l139 -365h6l146 371l33 92h90z" />
    <glyph glyph-name="N" unicode="N" horiz-adv-x="683" 
d="M585 188l2 -188h-84l-332 513h-5l-1 -302l1 -211h-72l3 190l-2 451h83l331 -513h7l-1 509l75 6z" />
    <glyph glyph-name="O" unicode="O" horiz-adv-x="635" 
d="M527.5 566c47 -54 70.5 -131.667 70.5 -233c0 -109.333 -25 -193.5 -75 -252.5s-121.333 -88.5 -214 -88.5c-86.667 0 -153.5 28 -200.5 84s-70.5 135.667 -70.5 239c0 106.667 24.833 188.667 74.5 246s120.5 86 212.5 86c88 0 155.5 -27 202.5 -81zM120 324
c0 -91.333 16.167 -158.999 48.5 -202.999s81.166 -66 146.499 -66c133.333 0 200 87.667 200 263c0 89.333 -16.167 155.666 -48.5 198.999s-81.166 65 -146.499 65c-133.333 0 -200 -86 -200 -258z" />
    <glyph glyph-name="P" unicode="P" horiz-adv-x="520" 
d="M434 593.5c34 -32.333 51 -78.833 51 -139.5c0 -71.333 -21.167 -127.333 -63.5 -168s-100.833 -61 -175.5 -61h-76v-25l4 -200h-81l5 193l-5 448l196 1c62.667 0 111 -16.167 145 -48.5zM370.5 340c21.667 26.667 32.5 62.332 32.5 106.999
c0 82.667 -44 125.667 -132 129l-97 -3l-3 -281l105 -2c41.333 6.66699 72.833 23.334 94.5 50.001z" />
    <glyph glyph-name="Q" unicode="Q" horiz-adv-x="639" 
d="M733 -138c-6.66699 -12.667 -12.668 -22.668 -18.001 -30.001s-11.666 -14.333 -18.999 -21l-7 -3c-64.667 16.667 -127.167 40.667 -187.5 72s-115.5 69 -165.5 113c-5.33301 -0.666992 -13.333 -1 -24 -1c-88 0 -155.667 28 -203 84s-71 135.667 -71 239
c0 106.667 24.833 188.667 74.5 246s120.834 86 213.501 86c87.333 0 154.5 -27.167 201.5 -81.5s70.5 -132.833 70.5 -235.5c0 -86 -16.333 -156.667 -49 -212s-79.334 -92.666 -140.001 -111.999c96 -67.333 203 -112 321 -134zM316.999 58.999
c64.667 0 113.834 22 147.501 66s50.5 110 50.5 198c0 172 -65.667 258 -197 258c-66.667 0 -116.334 -21.333 -149.001 -64s-49 -107.667 -49 -195c0 -175.333 65.667 -263 197 -263z" />
    <glyph glyph-name="R" unicode="R" horiz-adv-x="555" 
d="M520 19l-1 -9.99902c-24 -9.33301 -48.667 -15.333 -74 -18l-11 7c-54.667 82 -103.667 162 -147 240h-117v-38l4 -200h-81l5 193l-5 448l196 1c62.667 0 111.167 -15.833 145.5 -47.5s51.5 -76.834 51.5 -135.501c0 -44 -11.5 -83.5 -34.5 -118.5
s-55.5 -62.167 -97.5 -81.5c44 -72.667 99.333 -152.667 166 -240zM171 306.001l120 -2.99902c74.667 21.333 112 71 112 149c0 40.667 -11 71.167 -33 91.5s-55 31.166 -99 32.499l-97 -3z" />
    <glyph glyph-name="S" unicode="S" horiz-adv-x="472" 
d="M410 616l-13.0049 -77.0029l-14 -4c-19.333 14.667 -39.833 26 -61.5 34s-43.167 12 -64.5 12c-24.667 0 -46.167 -5 -64.5 -15s-32.333 -23 -42 -39s-14.5 -32.667 -14.5 -50c0 -18 5.5 -33.833 16.5 -47.5s24.833 -25.5 41.5 -35.5s39.334 -22 68.001 -36
c36 -16.667 65 -32.167 87 -46.5s40.833 -32.5 56.5 -54.5s23.5 -48.667 23.5 -80c0 -33.333 -9 -64 -27 -92s-43.333 -50.333 -76 -67s-70 -25 -112 -25c-28 0 -57.167 3.83301 -87.5 11.5s-58.5 18.834 -84.5 33.501l10 82l11 5c23.333 -22.667 49.166 -39.5 77.499 -50.5
s55.5 -16.5 81.5 -16.5c25.333 0 47.833 5 67.5 15s34.667 23.333 45 40s15.5 34.334 15.5 53.001c0 28 -10.667 50.5 -32 67.5s-53.666 35.5 -96.999 55.5c-35.333 17.333 -63.666 32.833 -84.999 46.5s-39.666 31.334 -54.999 53.001s-23 48.167 -23 79.5
c0 32.667 8.83301 62.667 26.5 90s42.334 48.833 74.001 64.5s67.834 23.5 108.501 23.5c46 0 93.667 -10 143 -30z" />
    <glyph glyph-name="T" unicode="T" horiz-adv-x="490" 
d="M469 633l-6 -62l-112 6h-65l-3 -377l3 -200h-81l6 193l-5 384h-65l-114 -6l-5 8l6 62h435z" />
    <glyph glyph-name="U" unicode="U" horiz-adv-x="626" 
d="M551 315l-0.998047 -72.001c1.33301 -78.667 -19.334 -140 -62.001 -184s-103.334 -66 -182.001 -66c-75.333 0 -133.166 21 -173.499 63s-59.833 101.333 -58.5 178l1 87l-1 320h79l-3 -397c-0.666992 -60 12.666 -105.167 39.999 -135.5s68 -45.5 122 -45.5
s95 14.333 123 43s41.667 71.334 41 128.001l-4 407h80z" />
    <glyph glyph-name="V" unicode="V" horiz-adv-x="564" 
d="M322 0h-93l-214 641h82l15 -65l163 -495h6l180 491l16 69h80z" />
    <glyph glyph-name="W" unicode="W" horiz-adv-x="893" 
d="M655 0h-83l-125 372h-7l-132 -372h-83l-204 641h80l11 -62l156 -490h7l138 390l-54 162h82l15 -69l158 -483h6l174 486l15 66h76z" />
    <glyph glyph-name="X" unicode="X" horiz-adv-x="594" 
d="M347 334l219 -334h-97l-27 52l-149 219l-153 -224l-25 -47h-86l218 324l-210 317h97l27 -51l138 -205l138 206l26 50h87z" />
    <glyph glyph-name="Y" unicode="Y" horiz-adv-x="528" 
d="M292 187l2 -187h-79l4 187l-1 42l-203 412h86l13 -36l140 -288h7l154 286l15 38h84l-221 -409z" />
    <glyph glyph-name="Z" unicode="Z" horiz-adv-x="528" 
d="M486 582l-359 -517h266l95 7l4 -6l-7 -68l-116 2h-281l-57 -3v59l360 519h-247l-96 -7l-5 6l6 68l388 -1l49 1v-60z" />
    <glyph glyph-name="bracketleft" unicode="[" horiz-adv-x="288" 
d="M282 641v-38l-119 -11v-667l119 -11v-38l-5 -5l-179 10l4 378l-4 378l179 10z" />
    <glyph glyph-name="backslash" unicode="\" horiz-adv-x="287" 
d="M6 669l6 9h54l205 -783l-5 -8h-56z" />
    <glyph glyph-name="bracketright" unicode="]" horiz-adv-x="288" 
d="M6 -123v38l119 11v667l-119 11v38l5 5l179 -10l-4 -378l4 -378l-179 -10z" />
    <glyph glyph-name="asciicircum" unicode="^" horiz-adv-x="424" 
d="M404 134l-6 -8l-46 -11l-132 317h-6l-140 -315l-8 -5l-46 18l158 357l8 5h66z" />
    <glyph glyph-name="underscore" unicode="_" horiz-adv-x="450" 
d="M465 -94l-5 -47h-469l-6 7l5 46h469z" />
    <glyph glyph-name="grave" unicode="`" horiz-adv-x="389" 
d="M296 552l-22 -32l-9 -1c-47.333 33.333 -104 75.666 -170 126.999l-2 8l30 42l9 1c49.333 -47.333 104 -95.666 164 -144.999z" />
    <glyph glyph-name="a" unicode="a" horiz-adv-x="512" 
d="M478 0h-75l-12 54l-26 74l-119 1l-106 -1l-27 -70l-14 -58h-74l192 498h86zM344 189l-83 236h-6l-91 -236l88 -1z" />
    <glyph glyph-name="b" unicode="b" horiz-adv-x="481" 
d="M435 141c0 -48 -18.667 -84 -56 -108s-92 -36 -164 -36c-43.333 0 -85 1 -125 3l3 150l-3 348l156 1c50 0 88.833 -10.5 116.5 -31.5s41.5 -50.833 41.5 -89.5c0 -28.667 -7 -53 -21 -73s-33.667 -35.333 -59 -46c74 -14.667 111 -54 111 -118zM301 423
c-16 11.333 -41.667 16.999 -77 16.999h-61l-1 -154l89 -3c24.667 5.33301 43.167 14.833 55.5 28.5s18.5 32.834 18.5 57.501s-8 42.667 -24 54zM323.5 76.499c23 15 34.5 37.167 34.5 66.5c0 24 -8 42.667 -24 56s-40.333 22.333 -73 27l-99 -1l-1 -69l2 -99
c20.667 -2 41 -3 61 -3c43.333 0 76.5 7.5 99.5 22.5z" />
    <glyph glyph-name="c" unicode="c" horiz-adv-x="461" 
d="M428 468l-14 -69.001l-9 -3c-16.667 14 -36 25 -58 33s-45.667 12 -71 12c-49.333 0 -87 -15.833 -113 -47.5s-39 -78.834 -39 -141.501c0 -63.333 13 -111.666 39 -144.999s63.667 -50 113 -50c24 0 48.167 4.16699 72.5 12.5s46.166 19.5 65.499 33.5l9 -3l-7 -69
c-45.333 -24.667 -93 -37 -143 -37c-73.333 0 -129.666 21.833 -168.999 65.5s-59 105.834 -59 186.501c0 82 20.833 145.333 62.5 190s100.5 67 176.5 67c55.333 0 103.333 -11.667 144 -35z" />
    <glyph glyph-name="d" unicode="d" horiz-adv-x="566" 
d="M459.5 441c40.333 -40.667 60.499 -99 60.499 -175c0 -87.333 -22 -154.333 -66 -201s-107 -70 -189 -70c-23.333 0 -51.166 0.5 -83.499 1.5s-62.833 2.16699 -91.5 3.5l3 150l-3 348l195 4c76 0 134.167 -20.333 174.5 -61zM400.499 104.5
c29 32.333 43.5 81.166 43.5 146.499c0 64 -13.667 111.333 -41 142s-68.666 46 -123.999 46c-32.667 0 -71 -1.33301 -115 -4l-2 -279l1 -94c19.333 -1.33301 39.666 -2.66602 60.999 -3.99902s39 -2 53 -2c53.333 0 94.5 16.167 123.5 48.5z" />
    <glyph glyph-name="e" unicode="e" horiz-adv-x="435" 
d="M394 64l6 -6l-7 -58h-303l3 150l-3 348h305l5 -6l-6 -58l-126 4l-104 -1l-1 -151l99 -1l87 3l5 -7l-6 -59l-92 3l-93 -1l-1 -68l1 -95l98 -1z" />
    <glyph glyph-name="f" unicode="f" horiz-adv-x="387" 
d="M159 437l-1 -164l86 -1l88 3l5 -7l-5 -57l-95 1l-80 -1v-55l2 -156h-74l2 150l-2 348h290l4 -6l-6 -58l-123 4z" />
    <glyph glyph-name="g" unicode="g" horiz-adv-x="526" 
d="M463 469l-25.001 -71.999h-9c-24.667 16 -47.334 27.167 -68.001 33.5s-43 9.5 -67 9.5c-56.667 0 -99.167 -16 -127.5 -48s-42.5 -82 -42.5 -150c0 -65.333 13 -112.5 39 -141.5s67.333 -43.5 124 -43.5c16.667 0 32.667 1.5 48 4.5s34 8.5 56 16.5v50l-1 71l69 5v-180
c-67.333 -20 -125.666 -30 -174.999 -30c-78.667 0 -138.167 21.167 -178.5 63.5s-60.5 102.833 -60.5 181.5c0 85.333 22.833 150.666 68.5 195.999s109.834 68 192.501 68c52 0 104.333 -11.333 157 -34z" />
    <glyph glyph-name="h" unicode="h" horiz-adv-x="596" 
d="M504 156l2 -156h-74l3 150l-1 68l-271 -1l-1 -61l2 -156h-74l3 150l-3 348h75l-2 -214l135 -1l136 1l-2 214h75z" />
    <glyph glyph-name="i" unicode="i" horiz-adv-x="259" 
d="M162 156l2 -156h-74l3 150l-3 348h75z" />
    <glyph glyph-name="j" unicode="j" horiz-adv-x="289" 
d="M194 165v-72c0 -40.667 -9.16699 -74 -27.5 -100s-50.833 -50.333 -97.5 -73l-30 39v7c31.333 17.333 53.5 35.5 66.5 54.5s19.5 42.833 19.5 71.5v64l-2 285l-95 -1l-5 6l5 52h169z" />
    <glyph glyph-name="k" unicode="k" horiz-adv-x="490" 
d="M252 265c70.667 -86.667 145.667 -169.333 225 -248l-2 -11c-20.667 -6.66699 -44.667 -11.667 -72 -15l-12 5c-85.333 96 -159 184 -221 264v6l172 188l33 44l89 1zM162 156.001l2 -156h-74l3 150l-3 348h75z" />
    <glyph glyph-name="l" unicode="l" horiz-adv-x="377" 
d="M358 56l-5 -56h-265l3 150l-3 348h75l-3 -342l2 -93h192z" />
    <glyph glyph-name="m" unicode="m" horiz-adv-x="683" 
d="M620 0h-67l-11 152l-27 230h-6l-143 -326h-59l-135 326h-6l-26 -224l-14 -158h-64l55 498h87l25 -75l109 -268h6l114 272l26 71h85z" />
    <glyph glyph-name="n" unicode="n" horiz-adv-x="596" 
d="M503 149l1 -149h-80l-262 380h-5l-1 -214l2 -166h-68l3 147l-2 351h79l262 -380h7l-2 377l69 5z" />
    <glyph glyph-name="o" unicode="o" horiz-adv-x="557" 
d="M453.5 440c39 -42.667 58.5 -103.001 58.5 -181.001c0 -84.667 -20.833 -150.167 -62.5 -196.5s-101.167 -69.5 -178.5 -69.5c-72 0 -127.667 21.833 -167 65.5s-59 105.834 -59 186.501c0 82.667 21 146.5 63 191.5s101.333 67.5 178 67.5
c72.667 0 128.5 -21.333 167.5 -64zM161.5 395.999c-25.667 -30 -38.498 -77.333 -38.498 -142c0 -69.333 12.667 -119.666 38 -150.999s64 -47 116 -47c53.333 0 93 15.333 119 46s39 78.667 39 144c0 67.333 -12.833 116.666 -38.5 147.999s-64.834 47 -117.501 47
s-91.834 -15 -117.501 -45z" />
    <glyph glyph-name="p" unicode="p" horiz-adv-x="466" 
d="M381.5 461c28.333 -25.333 42.501 -62 42.501 -110c0 -56 -17.833 -99.833 -53.5 -131.5s-84.834 -47.5 -147.501 -47.5h-61v-16l2 -156h-74l3 150l-3 348l170 1c52.667 0 93.167 -12.667 121.5 -38zM346.001 345c0 31.333 -8.83301 54.6689 -26.5 70.002
s-44.167 23.666 -79.5 24.999l-76 -1l-1 -207l84 -2c66 11.333 99 49.666 99 114.999z" />
    <glyph glyph-name="q" unicode="q" horiz-adv-x="560" 
d="M620 -103c-12 -21.333 -23.333 -36.667 -34 -46l-6 -2c-103.333 27.333 -198 75.666 -284 144.999c-5.33301 -0.666992 -13.666 -1 -24.999 -1c-72 0 -127.667 21.833 -167 65.5s-59 105.834 -59 186.501c0 82.667 21 146.5 63 191.5s101.333 67.5 178 67.5
c72.667 0 128.5 -21.333 167.5 -64s58.5 -103 58.5 -181c0 -66 -12.667 -120.5 -38 -163.5s-62 -72.5 -110 -88.5c79.333 -50.667 163.666 -84.667 252.999 -102zM161 102.999c25.333 -31.333 64.002 -47 116.002 -47c53.333 0 93 15.333 119 46s39 78.667 39 144
c0 67.333 -12.833 116.666 -38.5 147.999s-64.834 47 -117.501 47s-91.834 -15 -117.501 -45s-38.5 -77.333 -38.5 -142c0 -69.333 12.667 -119.666 38 -150.999z" />
    <glyph glyph-name="r" unicode="r" horiz-adv-x="496" 
d="M454 18l-1.00098 -9.99902c-28 -8.66699 -51 -13.667 -69 -15l-13 8c-50.667 76.667 -89 137 -115 181l-94 -1v-25l2 -156h-74l3 150l-3 348l170 1c52.667 0 93.167 -12.333 121.5 -37s42.5 -60.334 42.5 -107.001c0 -34 -9.16699 -64.333 -27.5 -91
s-44.166 -47.667 -77.499 -63c40.667 -62 85.667 -123 135 -183zM162.999 243.001l93.999 -3c59.333 16.667 89 53 89 109c0 29.333 -8.66699 51.333 -26 66s-43.666 22.667 -78.999 24l-77 -1z" />
    <glyph glyph-name="s" unicode="s" horiz-adv-x="425" 
d="M359 479l-12.9971 -74.001l-12 -3c-18.667 14.667 -36.334 25.5 -53.001 32.5s-34 10.5 -52 10.5c-28.667 0 -51.334 -7.5 -68.001 -22.5s-25 -32.167 -25 -51.5s8.16699 -35 24.5 -47s41.5 -25.333 75.5 -40c30 -13.333 53.833 -25.333 71.5 -36s33 -24.834 46 -42.501
s19.5 -39.167 19.5 -64.5c0 -26 -7 -50.167 -21 -72.5s-34.5 -40.333 -61.5 -54s-59.167 -20.5 -96.5 -20.5c-23.333 0 -47.833 2.83301 -73.5 8.5s-49.5 14.167 -71.5 25.5l9 79l10 4c18.667 -18.667 40.5 -33.167 65.5 -43.5s48.167 -15.5 69.5 -15.5c28 0 51 7.5 69 22.5
s27 33.167 27 54.5c0 20 -8.16699 36 -24.5 48s-41.833 26 -76.5 42c-28.667 12.667 -52.167 24.334 -70.5 35.001s-33.833 24.834 -46.5 42.501s-19 39.167 -19 64.5c0 26.667 7.16699 50.667 21.5 72s34.666 38.333 60.999 51s57.166 19 92.499 19
c40.667 0 81.334 -8 122.001 -24z" />
    <glyph glyph-name="t" unicode="t" horiz-adv-x="437" 
d="M405 492l-5 -63l-93 7h-50l-3 -280l3 -156h-75l3 150l-2 286h-50l-95 -7l-6 7l6 62h363z" />
    <glyph glyph-name="u" unicode="u" horiz-adv-x="549" 
d="M473 245v-72c0.666992 -56.667 -16.5 -100.667 -51.5 -132s-85.167 -47 -150.5 -47c-64.667 0 -114 15.5 -148 46.5s-50.333 75.167 -49 132.5l1 76l-1 249h75l-4 -313c-0.666992 -42 9.83301 -73.667 31.5 -95s54.167 -32 97.5 -32c42.667 0 75 10.667 97 32
s32.667 53 32 95l-3 313h76z" />
    <glyph glyph-name="v" unicode="v" horiz-adv-x="500" 
d="M290 0h-89l-174 498h77l12 -55l129 -369h5l143 366l12 58h75z" />
    <glyph glyph-name="w" unicode="w" horiz-adv-x="768" 
d="M563 0h-80l-98 272h-6l-103 -272h-80l-163 498h75l9 -53l122 -362h5l109 291l-41 124h78l11 -59l122 -356h6l135 358l12 57h73z" />
    <glyph glyph-name="x" unicode="x" horiz-adv-x="520" 
d="M305 260l179 -260h-90l-23 43l-116 159l-121 -163l-22 -39h-79l178 250l-173 248h93l21 -42l109 -149l109 150l21 41h81z" />
    <glyph glyph-name="y" unicode="y" horiz-adv-x="473" 
d="M263 143l3 -143h-75l4 143l-1 31l-169 324h82l10 -29l112 -214h5l122 211l13 32h80l-185 -324z" />
    <glyph glyph-name="z" unicode="z" horiz-adv-x="470" 
d="M421 443l-291 -384h209l83 8l4 -5l-6 -64l-103 2h-226l-51 -2v54l292 386h-203l-77 -8l-4 6l7 63l90 -1h233l43 1v-56z" />
    <glyph glyph-name="braceleft" unicode="{" horiz-adv-x="288" 
d="M273 648l4 -7.00195l-8 -43c-15.333 3.33301 -27.666 5 -36.999 5c-21.333 0 -37 -6 -47 -18s-15 -30.333 -15 -55c0 -21.333 3.66699 -49.666 11 -84.999c6.66699 -38.667 10 -65 10 -79c0 -49.333 -22.333 -83.666 -67 -102.999v-4c44.667 -19.333 67 -53.333 67 -102
c0 -15.333 -3.33301 -41.666 -10 -78.999c-7.33301 -36.667 -11 -65 -11 -85c0 -25.333 5 -44 15 -56s25.667 -18 47 -18c9.33301 0 21.666 1.66699 36.999 5l8 -43l-4 -7c-16.667 -4 -34 -6 -52 -6c-37.333 0 -65.833 9.5 -85.5 28.5s-29.5 46.833 -29.5 83.5
c0 18 1.66699 37.667 5 59s5.33301 34.333 6 39c6 33.333 9 58.666 9 75.999c0 48.667 -27 77.334 -81 86.001v41c28 5.33301 48.5 15.166 61.5 29.499s19.5 33.5 19.5 57.5c0 16.667 -3 41.667 -9 75c-0.666992 4 -2.66699 17 -6 39s-5 42 -5 60
c0 36.667 9.83301 64.667 29.5 84s48.167 29 85.5 29c14.667 0 32 -2.33301 52 -7z" />
    <glyph glyph-name="bar" unicode="|" horiz-adv-x="314" 
d="M188 792l-1 -504v-547l-55 -3l-7 8v537l1 510l57 4z" />
    <glyph glyph-name="braceright" unicode="}" horiz-adv-x="288" 
d="M15 -126l-4 7.00195l8 43c15.333 -3.33301 27.666 -5 36.999 -5c21.333 0 37 6 47 18s15 30.333 15 55c0 21.333 -3.66699 49.666 -11 84.999c-6.66699 38.667 -10 65 -10 79c0 49.333 22.333 83.666 67 102.999v4c-44.667 19.333 -67 53.333 -67 102
c0 15.333 3.33301 41.666 10 78.999c7.33301 36.667 11 65 11 85c0 25.333 -5 44 -15 56s-25.667 18 -47 18c-9.33301 0 -21.666 -1.66699 -36.999 -5l-8 43l4 7c16.667 4 34 6 52 6c37.333 0 65.833 -9.5 85.5 -28.5s29.5 -46.833 29.5 -83.5
c0 -18 -1.66699 -37.667 -5 -59s-5.33301 -34.333 -6 -39c-6 -33.333 -9 -58.666 -9 -75.999c0 -48.667 27 -77.334 81 -86.001v-41c-28 -5.33301 -48.5 -15.166 -61.5 -29.499s-19.5 -33.5 -19.5 -57.5c0 -16.667 3 -41.667 9 -75c0.666992 -4 2.66699 -17 6 -39
s5 -42 5 -60c0 -36.667 -9.83301 -64.667 -29.5 -84s-48.167 -29 -85.5 -29c-14.667 0 -32 2.33301 -52 7z" />
    <glyph glyph-name="asciitilde" unicode="~" horiz-adv-x="480" 
d="M129 249.5c-6.66699 -5 -17.666 -14.5 -32.999 -28.5l-15 -15h-9l-22 27v9l73 73l10 4c16.667 -2 49.334 -10.333 98.001 -25c21.333 -6 41.833 -11.5 61.5 -16.5s33.167 -7.5 40.5 -7.5c6.66699 0 13.667 2.83301 21 8.5s15.833 13 25.5 22l21.5 20.5h8l22 -27v-9
l-73 -74l-10 -2c-14.667 2 -50.334 10.667 -107.001 26c-4 1.33301 -18 5.33301 -42 12s-40.667 10 -50 10c-6.66699 0 -13.334 -2.5 -20.001 -7.5z" />
    <glyph glyph-name="uni00A0" unicode="&#xa0;" horiz-adv-x="165" 
 />
    <glyph glyph-name="exclamdown" unicode="&#xa1;" horiz-adv-x="230" 
d="M89.5 434c-7 7.33301 -10.5 17.333 -10.5 30c0 13.333 3.83301 24 11.5 32s18.167 12 31.5 12s23.5 -3.5 30.5 -10.5s10.5 -17.167 10.5 -30.5s-4 -24 -12 -32s-18.667 -12 -32 -12c-12.667 0 -22.5 3.66699 -29.5 11zM73 5l18 337l45 5l8 -9v-330l-8 -10l-54 -2z" />
    <glyph glyph-name="cent" unicode="&#xa2;" horiz-adv-x="383" 
d="M358 73c-18 -10.667 -38.332 -19.335 -60.999 -26.002s-45.334 -10.334 -68.001 -11.001l-13 -155h-38l-8 7l12 153c-44.667 10 -79.667 34.833 -105 74.5s-38 89.834 -38 150.501c0 70.667 16 127.334 48 170.001s75.667 66 131 70l11 146h39l8 -8l-11 -139
c36 -4.66699 68.333 -16 97 -34l-12 -51l-9 -1c-24 16.667 -50.333 27.334 -79 32.001l-29 -361h6c19.333 0 39.333 3.16699 60 9.5s40 14.833 58 25.5l8 -4zM123.501 161.499c15 -29.667 36.167 -50.166 63.5 -61.499l27 351c-35.333 -5.33301 -63 -23.833 -83 -55.5
s-30 -72.834 -30 -123.501c0 -44 7.5 -80.833 22.5 -110.5z" />
    <glyph glyph-name="sterling" unicode="&#xa3;" horiz-adv-x="416" 
d="M384 52l-6.00098 -54l-101 2h-247l-5 6l5 45c46.667 8.66699 70 43.667 70 105v133h-69l-4 5l4 42h69v93c0 53.333 14 94 42 122s69 42 123 42c34.667 0 70.334 -5.66699 107.001 -17l-6 -58l-6 -3c-34.667 16 -67.667 24 -99 24c-60.667 0 -91 -33.333 -91 -100v-103
h139l4 -6l-5 -41h-139v-121c0 -26 -3 -47.333 -9 -64s-16.333 -32 -31 -46v-2h168l82 2z" />
    <glyph glyph-name="currency" unicode="&#xa4;" horiz-adv-x="435" 
d="M398 510v-9l-67 -63c18 -23.333 27 -50 27 -80c0 -29.333 -8.66699 -55.333 -26 -78l68 -62l1 -9l-35 -36l-8 1l-63 67c-11.333 -8.66699 -24.166 -15.5 -38.499 -20.5s-28.5 -7.5 -42.5 -7.5c-28 0 -53.667 9 -77 27l-63 -68h-8l-37 35l1 8l67 63
c-18 23.333 -27 50 -27 80c0 28 8.66699 54 26 78l-68 63l1 8l33 36h9l64 -68c23.333 18 49.666 27 78.999 27c28 0 53.667 -8.33301 77 -25l63 67l9 1zM145.5 427c-19 -18.667 -28.5 -41.667 -28.5 -69c0 -28 9.33301 -51.167 28 -69.5s41.667 -27.5 69 -27.5
c28 0 51.333 9.16699 70 27.5s28 41.5 28 69.5c0 27.333 -9.33301 50.333 -28 69s-42 28 -70 28c-26.667 0 -49.5 -9.33301 -68.5 -28z" />
    <glyph glyph-name="yen" unicode="&#xa5;" horiz-adv-x="481" 
d="M460 161l4 -5l-3 -35h-191l2 -121h-65l3 121h-185l-4 5l3 35h186v11l-44 82h-141l-4 5l3 35h120l-109 203h71l11 -28l122 -220h5l132 218l14 30h70l-119 -203h119l4 -4l-3 -36h-144l-46 -78v-15h189z" />
    <glyph glyph-name="brokenbar" unicode="&#xa6;" horiz-adv-x="314" 
d="M188 792l-1 -419l-55 -7l-7 6v421l58 4zM187 151v-410l-55 -3l-7 8v407l55 7z" />
    <glyph glyph-name="section" unicode="&#xa7;" horiz-adv-x="419" 
d="M353 188c-16.667 -23.333 -39.668 -42.002 -69.001 -56.002c32 -30 48 -62.333 48 -97c0 -24 -7.16699 -46.5 -21.5 -67.5s-34.166 -37.667 -59.499 -50s-54 -18.5 -86 -18.5c-20.667 0 -43.167 2.83301 -67.5 8.5s-46.166 13.5 -65.499 23.5l11 68l8 6
c40 -36 81 -54 123 -54c27.333 0 49.166 7.33301 65.499 22s24.5 31.334 24.5 50.001c0 18 -7.5 34 -22.5 48s-38.833 32 -71.5 54c-27.333 18 -49.5 33.667 -66.5 47s-31.5 29.333 -43.5 48s-18 39.667 -18 63c0 27.333 8.33301 52.833 25 76.5
s39.334 42.834 68.001 57.501c-31.333 29.333 -47 60.666 -47 93.999c0 24 7 46.333 21 67s33.5 37.167 58.5 49.5s52.833 18.5 83.5 18.5c38 0 74.333 -7 109 -21l-11 -68l-11 -3c-36 25.333 -69 38 -99 38c-24.667 0 -44.667 -7.16699 -60 -21.5s-23 -30.5 -23 -48.5
c0 -17.333 7.66699 -33.166 23 -47.499s38.666 -31.5 69.999 -51.5c28 -18 50.5 -33.833 67.5 -47.5s31.5 -29.834 43.5 -48.501s18 -39.667 18 -63c0 -27.333 -8.33301 -52.666 -25 -75.999zM309.999 247.998c0 21.333 -8.33301 39.998 -25 55.998s-42 35.333 -76 58
l-28 19c-48 -22.667 -72 -50.667 -72 -84c0 -19.333 8 -36.666 24 -51.999s40.333 -33.666 73 -54.999l33 -23c47.333 21.333 71 48.333 71 81z" />
    <glyph glyph-name="dieresis" unicode="&#xa8;" horiz-adv-x="389" 
d="M148.5 640c7.66699 -7.33301 11.499 -17.666 11.499 -30.999c0 -14 -4 -25.333 -12 -34s-18.667 -13 -32 -13c-14 0 -24.667 3.83301 -32 11.5s-11 18.5 -11 32.5c0 13.333 4 24.166 12 32.499s19 12.5 33 12.5c12.667 0 22.834 -3.66699 30.501 -11zM305.999 640
c7.33301 -7.33301 11.001 -17.666 11.001 -30.999c0 -14 -4 -25.333 -12 -34s-18.667 -13 -32 -13s-23.833 4 -31.5 12s-11.5 18.667 -11.5 32s4 24.166 12 32.499s19 12.5 33 12.5c13.333 0 23.666 -3.66699 30.999 -11z" />
    <glyph glyph-name="copyright" unicode="&#xa9;" horiz-adv-x="685" 
d="M497 560c44.667 -25.333 79.167 -61 103.5 -107s36.5 -99.333 36.5 -160s-12.167 -114 -36.5 -160s-58.833 -81.667 -103.5 -107s-96.334 -38 -155.001 -38s-110.334 12.667 -155.001 38s-79.334 61 -104.001 107s-37 99.333 -37 160s12.333 114 37 160
s59.334 81.667 104.001 107s96.334 38 155.001 38s110.334 -12.667 155.001 -38zM204.5 530.5c-39.667 -22.333 -70.334 -54.002 -92.001 -95.002s-32.5 -88.5 -32.5 -142.5s10.833 -101.5 32.5 -142.5s52.334 -72.667 92.001 -95s85.5 -33.5 137.5 -33.5
c51.333 0 96.833 11.333 136.5 34s70.5 54.334 92.5 95.001s33 88 33 142s-11 101.333 -33 142s-52.833 72.334 -92.5 95.001s-85.167 34 -136.5 34c-52 0 -97.833 -11.167 -137.5 -33.5zM451 441.998l-11.999 -45.0029l-5 -2c-10.667 7.33301 -23 13 -37 17s-28 6 -42 6
c-68 0 -102 -39.667 -102 -119c0 -41.333 8.66699 -72.666 26 -93.999s42.666 -32 75.999 -32c13.333 0 27.666 2 42.999 6s29.333 9.66699 42 17l6 -2l-5 -45c-28.667 -15.333 -58.667 -23 -90 -23c-51.333 0 -90.166 14.333 -116.499 43s-39.5 70.334 -39.5 125.001
s14 96.834 42 126.501s68 44.5 120 44.5c32 0 63.333 -7.66699 94 -23z" />
    <glyph glyph-name="ordfeminine" unicode="&#xaa;" horiz-adv-x="320" 
d="M240 627c17.333 -14.667 25.998 -35.667 25.998 -63l-3 -81c-2 -32 -3 -55.333 -3 -70c0 -18 5.66699 -27 17 -27c8 0 14.333 2 19 6l6 -4l-8 -40c-12.667 -10 -26.667 -15 -42 -15c-14.667 0 -25.667 3.66699 -33 11s-12.666 19.666 -15.999 36.999h-3
c-23.333 -26.667 -48.333 -43 -75 -49c-28.667 1.33301 -51 9.83301 -67 25.5s-24 36.834 -24 63.501c0 41.333 21.667 66 65 74l101 19l1 37c0 31.333 -16 47 -48 47c-25.333 0 -55.666 -12.333 -90.999 -37l-5 2l-9 47c39.333 26 78.333 39 117 39
c32.667 0 57.667 -7.33301 75 -22zM128.998 463c-20.667 -4 -30.998 -15.999 -30.998 -35.999c0 -13.333 3.66699 -24 11 -32s17.333 -12 30 -12c9.33301 0 19.166 3.16699 29.499 9.5s20.166 15.166 29.499 26.499l1 60z" />
    <glyph glyph-name="guillemotleft" unicode="&#xab;" horiz-adv-x="396" 
d="M210 216v16l145 174l38 -22l1 -10l-124 -149l124 -149l-1 -9l-38 -22zM44 216v16l145 174l38 -22l1 -10l-124 -149l124 -149l-1 -9l-38 -22z" />
    <glyph glyph-name="logicalnot" unicode="&#xac;" horiz-adv-x="480" 
d="M424 286v-226l-50 -4l-6 6v175h-334l-5 6l4 50h385z" />
    <glyph glyph-name="uni00AD" unicode="&#xad;" horiz-adv-x="307" 
d="M278 293v-50l-241 -35l-8 8v50l242 34z" />
    <glyph glyph-name="registered" unicode="&#xae;" horiz-adv-x="439" 
d="M351.5 652.5c33 -33 49.5 -76.833 49.5 -131.5s-16.5 -98.667 -49.5 -132s-76.833 -50 -131.5 -50s-98.667 16.667 -132 50s-50 77.333 -50 132s16.667 98.5 50 131.5s77.333 49.5 132 49.5s98.5 -16.5 131.5 -49.5zM333.5 408
c28.333 28.667 42.498 66.334 42.498 113.001s-14.167 84.167 -42.5 112.5s-65.833 42.5 -112.5 42.5c-47.333 0 -85.166 -14.167 -113.499 -42.5s-42.5 -65.833 -42.5 -112.5s14.333 -84.334 43 -113.001s66.334 -43 113.001 -43s84.167 14.333 112.5 43zM281.998 533.5
c-6.66699 -10.333 -16.332 -18.834 -28.999 -25.501c12 -19.333 29.333 -42.666 52 -69.999l-1 -4c-8.66699 -2.66699 -20.334 -4.66699 -35.001 -6l-4 3c-16 23.333 -30.333 46 -43 68h-34v-7l2 -61h-36l1 58l-1 135h73c43.333 0 65 -19 65 -57
c0 -12 -3.33301 -23.167 -10 -33.5zM189 528.999l36 -1.99902c20 7.33301 30 19.666 30 36.999c0 21.333 -13 32.333 -39 33l-26 -1z" />
    <glyph glyph-name="macron" unicode="&#xaf;" horiz-adv-x="389" 
d="M342 629l-5 -47h-283l-6 6l4 46h283z" />
    <glyph glyph-name="degree" unicode="&#xb0;" horiz-adv-x="293" 
d="M236.5 611c24.333 -24 36.5 -53.333 36.5 -88s-12.167 -64.167 -36.5 -88.5s-54.166 -36.5 -89.499 -36.5s-65.333 12.167 -90 36.5s-37 53.833 -37 88.5s12.333 64 37 88s54.667 36 90 36s65.166 -12 89.499 -36zM85.5 583c-17 -16.667 -25.5 -36.667 -25.5 -60
s8.5 -43.333 25.5 -60s37.167 -25 60.5 -25c24 0 44.5 8.33301 61.5 25s25.5 36.667 25.5 60s-8.5 43.333 -25.5 60s-37.5 25 -61.5 25c-23.333 0 -43.5 -8.33301 -60.5 -25z" />
    <glyph glyph-name="plusminus" unicode="&#xb1;" horiz-adv-x="480" 
d="M268 468v-175h175l6 -6l-5 -50h-176v-177l-50 -4l-6 6v175h-175l-6 6l5 50h176v177l50 5zM449 -42l-5 -50h-407l-6 6l5 50h407z" />
    <glyph glyph-name="uni00B2" unicode="&#xb2;" horiz-adv-x="349" 
d="M253.5 681.5c20.333 -15.667 30.501 -36.499 30.501 -62.499c0 -19.333 -6.5 -40.333 -19.5 -63s-34.833 -53 -65.5 -91l-67 -85l2 -2h123l64 3l3 -6l-8 -55l-80 3h-166l-27 -1l-4 3v42l98 114c27.333 33.333 46.666 58.666 57.999 75.999s17 33 17 47
c0 12.667 -4.5 23.167 -13.5 31.5s-21.5 12.5 -37.5 12.5c-16.667 0 -33.667 -4.5 -51 -13.5s-33 -21.5 -47 -37.5h-9l-11 53c43.333 36.667 88 55 134 55c30.667 0 56.167 -7.83301 76.5 -23.5z" />
    <glyph glyph-name="uni00B3" unicode="&#xb3;" horiz-adv-x="308" 
d="M220.5 682.5c19.667 -15.667 29.499 -36.5 29.499 -62.5c0 -18 -5.16699 -35.333 -15.5 -52s-25.833 -29.667 -46.5 -39v-4c24.667 -6.66699 43.5 -17.667 56.5 -33s19.5 -34.666 19.5 -57.999c0 -34.667 -14.5 -62.5 -43.5 -83.5s-67.167 -31.5 -114.5 -31.5
c-26 0 -48.667 2.33301 -68 7l-5 50l6 5c24 -6 46.667 -9 68 -9c27.333 0 48.833 5.66699 64.5 17s23.5 26.666 23.5 45.999c0 18 -6 31.833 -18 41.5s-29.333 14.834 -52 15.501h-43l-4 5l1 47h30c16.667 0 32.5 6.16699 47.5 18.5s22.5 27.166 22.5 44.499
c0 14 -4.66699 24.833 -14 32.5s-22 11.5 -38 11.5c-22.667 0 -49 -10.333 -79 -31h-7l-11 47c34 26 71.333 39 112 39c32.667 0 58.834 -7.83301 78.501 -23.5z" />
    <glyph glyph-name="acute" unicode="&#xb4;" horiz-adv-x="389" 
d="M267 696l30 -42l-2 -8c-66 -51.333 -122.667 -93.666 -170 -126.999l-9 1l-22 32c65.333 53.333 120 101.666 164 144.999z" />
    <glyph glyph-name="uni00B5" unicode="&#xb5;" horiz-adv-x="683" 
d="M620 0h-67l-11 152l-27 230h-6l-143 -326h-59l-135 326h-6l-26 -224l-14 -158h-64l55 498h87l25 -75l109 -268h6l114 272l26 71h85z" />
    <glyph glyph-name="paragraph" unicode="&#xb6;" horiz-adv-x="485" 
d="M459 633l-6.00195 -55h-74l-3 -395l1 -54c0 -44 -12.167 -82.333 -36.5 -115s-65.166 -63 -122.499 -91l-23 36v10c37.333 23.333 64.5 47.166 81.5 71.499s25.5 52.166 25.5 83.499v46l-1 409h-59c-38.667 -3.33301 -68.5 -17.166 -89.5 -41.499
s-31.5 -56.833 -31.5 -97.5s11.5 -75 34.5 -103s56.167 -48.667 99.5 -62l-25 -45c-61.333 12 -108.666 36 -141.999 72s-50 83 -50 141c0 62.667 19 111.334 57 146.001s92 52 162 52h196z" />
    <glyph glyph-name="periodcentered" unicode="&#xb7;" horiz-adv-x="229" 
d="M148 280c8 -8 12 -18.999 12 -32.999c0 -14.667 -4.16699 -26.334 -12.5 -35.001s-19.833 -13 -34.5 -13c-14 0 -24.833 4 -32.5 12s-11.5 19.333 -11.5 34c0 14 4.16699 25.333 12.5 34s19.833 13 34.5 13c13.333 0 24 -4 32 -12z" />
    <glyph glyph-name="cedilla" unicode="&#xb8;" horiz-adv-x="389" 
d="M200 -51l33.999 -20.001c25.333 -14.667 38 -33.334 38 -56.001c0 -19.333 -7.5 -35.166 -22.5 -47.499s-34.5 -18.5 -58.5 -18.5c-28.667 0 -52.667 10.333 -72 31l7 40l5 1c9.33301 -10.667 18.333 -18.5 27 -23.5s18.667 -7.5 30 -7.5
c9.33301 0 16.833 2.33301 22.5 7s8.5 11.334 8.5 20.001c0 5.33301 -1.66699 9.83301 -5 13.5s-8.66602 7.5 -15.999 11.5l-48 29l25 90h46z" />
    <glyph glyph-name="uni00B9" unicode="&#xb9;" horiz-adv-x="258" 
d="M169 698l-2 -240l2 -135h-71l2 126v179l-80 -21l-6 3v56l146 41z" />
    <glyph glyph-name="ordmasculine" unicode="&#xba;" horiz-adv-x="339" 
d="M273.5 609c23 -26.667 34.499 -65 34.499 -115c0 -52 -12.333 -92.167 -37 -120.5s-59.667 -42.5 -105 -42.5c-43.333 0 -76.666 13.333 -99.999 40s-35 65 -35 115c0 52.667 12.333 93 37 121s59.667 42 105 42c44 0 77.5 -13.333 100.5 -40zM116.999 572.5
c-12 -17 -18 -43.5 -18 -79.5c0 -74.667 23.667 -112 71 -112c48.667 0 73 35.333 73 106c0 74 -24 111 -72 111c-24 0 -42 -8.5 -54 -25.5z" />
    <glyph glyph-name="guillemotright" unicode="&#xbb;" horiz-adv-x="396" 
d="M351 236v-16l-145 -174l-38 22l-1 10l124 149l-124 149l1 9l38 22zM185 236v-16l-145 -174l-38 22l-1 10l124 149l-124 149l1 9l38 22z" />
    <glyph glyph-name="onequarter" unicode="&#xbc;" horiz-adv-x="685" 
d="M169 638l-2 -240l2 -135h-71l2 126v179l-80 -21l-6 3v56l146 41zM528 658l6 -14l-472 -735l-35 20l-5 12l471 737zM647 98l-58 3l4 -95l-4 -6l-56 -3l-4 4l1 100h-114l-51 -3l-5 7v44l164 230h65l-1 -226h58l5 -6zM422 153h109v147h-5z" />
    <glyph glyph-name="onehalf" unicode="&#xbd;" horiz-adv-x="683" 
d="M169 638l-2 -240l2 -135h-71l2 126v179l-80 -21l-6 3v56l146 41zM528 658l6 -14l-472 -735l-35 20l-5 12l471 737zM587.5 358.5c20.333 -15.667 30.501 -36.499 30.501 -62.499c0 -19.333 -6.5 -40.333 -19.5 -63s-34.833 -53 -65.5 -91l-67 -85l2 -2h123l64 3l3 -6
l-8 -55l-80 3h-166l-27 -1l-4 3v42l98 114c27.333 33.333 46.666 58.666 57.999 75.999s17 33 17 47c0 12.667 -4.5 23.167 -13.5 31.5s-21.5 12.5 -37.5 12.5c-16.667 0 -33.667 -4.5 -51 -13.5s-33 -21.5 -47 -37.5h-9l-11 53c43.333 36.667 88 55 134 55
c30.667 0 56.167 -7.83301 76.5 -23.5z" />
    <glyph glyph-name="threequarters" unicode="&#xbe;" horiz-adv-x="735" 
d="M220.5 622.5c19.667 -15.667 29.499 -36.5 29.499 -62.5c0 -18 -5.16699 -35.333 -15.5 -52s-25.833 -29.667 -46.5 -39v-4c24.667 -6.66699 43.5 -17.667 56.5 -33s19.5 -34.666 19.5 -57.999c0 -34.667 -14.5 -62.5 -43.5 -83.5s-67.167 -31.5 -114.5 -31.5
c-26 0 -48.667 2.33301 -68 7l-5 50l6 5c24 -6 46.667 -9 68 -9c27.333 0 48.833 5.66699 64.5 17s23.5 26.666 23.5 45.999c0 18 -6 31.833 -18 41.5s-29.333 14.834 -52 15.501h-43l-4 5l1 47h30c16.667 0 32.5 6.16699 47.5 18.5s22.5 27.166 22.5 44.499
c0 14 -4.66699 24.833 -14 32.5s-22 11.5 -38 11.5c-22.667 0 -49 -10.333 -79 -31h-7l-11 47c34 26 71.333 39 112 39c32.667 0 58.834 -7.83301 78.501 -23.5zM577.999 658l6 -14l-472 -735l-35 20l-5 12l471 737zM696.999 98l-58 3l4 -95l-4 -6l-56 -3l-4 4l1 100h-114
l-51 -3l-5 7v44l164 230h65l-1 -226h58l5 -6zM471.999 153h109v147h-5z" />
    <glyph glyph-name="questiondown" unicode="&#xbf;" horiz-adv-x="280" 
d="M145 434.5c-7.33301 7.66699 -10.999 17.5 -10.999 29.5c0 13.333 4 23.833 12 31.5s18.667 11.5 32 11.5c12 0 21.5 -3.5 28.5 -10.5s10.5 -16.833 10.5 -29.5c0 -13.333 -3.83301 -24 -11.5 -32s-17.834 -12 -30.501 -12s-22.667 3.83301 -30 11.5zM65.501 33.5
c-37.667 22.333 -56.5 52.834 -56.5 91.501c0 21.333 6.5 41.666 19.5 60.999s31.167 35.333 54.5 48l69 42l2 3l-3 64l49 6l6 -7l6 -81l-4 -9l-76 -45c-35.333 -20.667 -53 -45 -53 -73c0 -50.667 55.333 -79 166 -85l6 -7l-15 -43l-9 -5
c-70 4 -123.833 17.167 -161.5 39.5z" />
    <glyph glyph-name="Agrave" unicode="&#xc0;" horiz-adv-x="578" 
d="M556 0h-82l-15 64l-36 110l-144 3l-130 -3l-39 -106l-16 -68h-80l235 641h93zM401 242l-104 316h-7l-116 -316l112 -2zM400 761l-14 -36.001l-9 -4c-69.333 28.667 -134.333 57.334 -195 86.001l-3 8l20 47l10 2c57.333 -34 121 -68.333 191 -103z" />
    <glyph glyph-name="Aacute" unicode="&#xc1;" horiz-adv-x="578" 
d="M556 0h-82l-15 64l-36 110l-144 3l-130 -3l-39 -106l-16 -68h-80l235 641h93zM401 242l-104 316h-7l-116 -316l112 -2zM401 862l19.999 -47l-2 -8c-63.333 -29.333 -128.666 -58 -195.999 -86l-9 4l-14 36c70 34.667 133.667 69 191 103z" />
    <glyph glyph-name="Acircumflex" unicode="&#xc2;" horiz-adv-x="578" 
d="M556 0h-82l-15 64l-36 110l-144 3l-130 -3l-39 -106l-16 -68h-80l235 641h93zM401 242l-104 316h-7l-116 -316l112 -2zM163 768c48.667 34 87.332 64.333 115.999 91h22c34.667 -30 73.667 -60.333 117 -91l-15 -34h-10c-42 26 -76 48 -102 66
c-17.333 -12 -51.666 -34 -102.999 -66h-9z" />
    <glyph glyph-name="Atilde" unicode="&#xc3;" horiz-adv-x="578" 
d="M556 0h-82l-15 64l-36 110l-144 3l-130 -3l-39 -106l-16 -68h-80l235 641h93zM401 242l-104 316h-7l-116 -316l112 -2zM447 825l-0.000976562 -8.00098l-61 -69l-10 -3c-14.667 1.33301 -42.667 8 -84 20c-38 11.333 -61.667 17 -71 17
c-4.66699 0 -9.66699 -2.16699 -15 -6.5s-13.666 -12.166 -24.999 -23.499l-16 -17h-9l-24 26v7l61 69l10 3c16 -1.33301 43.667 -8 83 -20c4.66699 -1.33301 16 -4.33301 34 -9s30.667 -7 38 -7c5.33301 0 11 2.33301 17 7s13.667 12 23 22l17 17h8z" />
    <glyph glyph-name="Adieresis" unicode="&#xc4;" horiz-adv-x="578" 
d="M556 0h-82l-15 64l-36 110l-144 3l-130 -3l-39 -106l-16 -68h-80l235 641h93zM401 242l-104 316h-7l-116 -316l112 -2zM244.5 823c7.66699 -7.33301 11.499 -17.666 11.499 -30.999c0 -14 -4 -25.333 -12 -34s-18.667 -13 -32 -13c-14 0 -24.667 3.83301 -32 11.5
s-11 18.5 -11 32.5c0 13.333 4 24.166 12 32.499s19 12.5 33 12.5c12.667 0 22.834 -3.66699 30.501 -11zM401.999 823c7.33301 -7.33301 11.001 -17.666 11.001 -30.999c0 -14 -4 -25.333 -12 -34s-18.667 -13 -32 -13s-23.833 4 -31.5 12s-11.5 18.667 -11.5 32
s4 24.166 12 32.499s19 12.5 33 12.5c13.333 0 23.666 -3.66699 30.999 -11z" />
    <glyph glyph-name="Aring" unicode="&#xc5;" horiz-adv-x="578" 
d="M556 0h-82l-15 64l-36 110l-144 3l-130 -3l-39 -106l-16 -68h-80l235 641h93zM401 242l-104 316h-7l-116 -316l112 -2zM351 857.5c14.667 -15 22 -34.5 22 -58.5c0 -26 -8.16699 -46.5 -24.5 -61.5s-36.833 -22.5 -61.5 -22.5c-24 0 -43.667 7.16699 -59 21.5
s-23 34.5 -23 60.5c0 25.333 7.66699 45.5 23 60.5s36 22.5 62 22.5s46.333 -7.5 61 -22.5zM254.5 829.5c-7.66699 -7.66699 -11.498 -18.166 -11.498 -31.499c0 -14.667 4.16699 -25.834 12.5 -33.501s19.5 -11.5 33.5 -11.5c13.333 0 24.166 3.66699 32.499 11
s12.5 18 12.5 32s-3.83301 25 -11.5 33s-19.167 12 -34.5 12c-14.667 0 -25.834 -3.83301 -33.501 -11.5z" />
    <glyph glyph-name="AE" unicode="&#xc6;" horiz-adv-x="807" 
d="M792 62l-7 -62h-348l-5 64l-29 195l-238 -54l-73 -137l-25 -68h-83l338 641h373l6 -8l-8 -62l-162 4h-97l35 -237l215 45l7 -6l4 -58l-217 -43l31 -211h113l164 5zM393 322l-35 236h-6l-147 -277z" />
    <glyph glyph-name="Ccedilla" unicode="&#xc7;" horiz-adv-x="520" 
d="M403.5 77c29 10.667 55.5 25.6689 79.5 45.002l10 -5l-7 -76c-50.667 -28.667 -102.667 -44.334 -156 -47.001l-13 -45l34 -20c25.333 -14.667 38 -33.334 38 -56.001c0 -19.333 -7.5 -35.166 -22.5 -47.499s-34.5 -18.5 -58.5 -18.5c-28.667 0 -52.667 10.333 -72 31
l7 40l5 1c9.33301 -10.667 18.333 -18.5 27 -23.5s18.667 -7.5 30 -7.5c9.33301 0 16.833 2.33301 22.5 7s8.5 11.334 8.5 20.001c0 5.33301 -1.66699 9.83301 -5 13.5s-8.66602 7.5 -15.999 11.5l-48 29l18 65c-78.667 5.33301 -139.5 35.666 -182.5 90.999
s-64.5 132 -64.5 230c0 106 24.667 187.667 74 245s119.333 86 210 86c67.333 0 125.666 -16 174.999 -48l-16 -73l-9 -2c-44.667 37.333 -96 56 -154 56c-63.333 0 -112 -21.833 -146 -65.5s-51 -107.5 -51 -191.5c0 -84.667 17 -149.334 51 -194.001s82 -67 144 -67
c29.333 0 58.5 5.33301 87.5 16z" />
    <glyph glyph-name="Egrave" unicode="&#xc8;" horiz-adv-x="482" 
d="M459 62l-6 -62h-360l5 193l-5 448h361l4 -8l-6 -62l-151 3l-127 -2l-2 -210l120 -2l106 3l6 -7l-7 -62l-112 2l-114 -1l-1 -95l3 -133l127 -1l154 4zM384 761l-14 -36.001l-9 -4c-69.333 28.667 -134.333 57.334 -195 86.001l-3 8l20 47l10 2
c57.333 -34 121 -68.333 191 -103z" />
    <glyph glyph-name="Eacute" unicode="&#xc9;" horiz-adv-x="482" 
d="M459 62l-6 -62h-360l5 193l-5 448h361l4 -8l-6 -62l-151 3l-127 -2l-2 -210l120 -2l106 3l6 -7l-7 -62l-112 2l-114 -1l-1 -95l3 -133l127 -1l154 4zM385 862l19.999 -47l-2 -8c-63.333 -29.333 -128.666 -58 -195.999 -86l-9 4l-14 36c70 34.667 133.667 69 191 103z
" />
    <glyph glyph-name="Ecircumflex" unicode="&#xca;" horiz-adv-x="482" 
d="M459 62l-6 -62h-360l5 193l-5 448h361l4 -8l-6 -62l-151 3l-127 -2l-2 -210l120 -2l106 3l6 -7l-7 -62l-112 2l-114 -1l-1 -95l3 -133l127 -1l154 4zM147 768c48.667 34 87.332 64.333 115.999 91h22c34.667 -30 73.667 -60.333 117 -91l-15 -34h-10
c-42 26 -76 48 -102 66c-17.333 -12 -51.666 -34 -102.999 -66h-9z" />
    <glyph glyph-name="Edieresis" unicode="&#xcb;" horiz-adv-x="482" 
d="M459 62l-6 -62h-360l5 193l-5 448h361l4 -8l-6 -62l-151 3l-127 -2l-2 -210l120 -2l106 3l6 -7l-7 -62l-112 2l-114 -1l-1 -95l3 -133l127 -1l154 4zM228.5 823c7.66699 -7.33301 11.499 -17.666 11.499 -30.999c0 -14 -4 -25.333 -12 -34s-18.667 -13 -32 -13
c-14 0 -24.667 3.83301 -32 11.5s-11 18.5 -11 32.5c0 13.333 4 24.166 12 32.499s19 12.5 33 12.5c12.667 0 22.834 -3.66699 30.501 -11zM385.999 823c7.33301 -7.33301 11.001 -17.666 11.001 -30.999c0 -14 -4 -25.333 -12 -34s-18.667 -13 -32 -13s-23.833 4 -31.5 12
s-11.5 18.667 -11.5 32s4 24.166 12 32.499s19 12.5 33 12.5c13.333 0 23.666 -3.66699 30.999 -11z" />
    <glyph glyph-name="Igrave" unicode="&#xcc;" horiz-adv-x="268" 
d="M170 200l4 -200h-81l5 193l-5 448h82zM244 761l-14 -36.001l-9 -4c-69.333 28.667 -134.333 57.334 -195 86.001l-3 8l20 47l10 2c57.333 -34 121 -68.333 191 -103z" />
    <glyph glyph-name="Iacute" unicode="&#xcd;" horiz-adv-x="268" 
d="M170 200l4 -200h-81l5 193l-5 448h82zM245 862l19.999 -47l-2 -8c-63.333 -29.333 -128.666 -58 -195.999 -86l-9 4l-14 36c70 34.667 133.667 69 191 103z" />
    <glyph glyph-name="Icircumflex" unicode="&#xce;" horiz-adv-x="268" 
d="M170 200l4 -200h-81l5 193l-5 448h82zM7 768c48.667 34 87.332 64.333 115.999 91h22c34.667 -30 73.667 -60.333 117 -91l-15 -34h-10c-42 26 -76 48 -102 66c-17.333 -12 -51.666 -34 -102.999 -66h-9z" />
    <glyph glyph-name="Eth" unicode="&#xd0;" horiz-adv-x="668" 
d="M557 567c48.667 -52 73.001 -126.667 73.001 -224c0 -112.667 -26.333 -199 -79 -259s-128.334 -90 -227.001 -90c-27.333 0 -60.5 0.5 -99.5 1.5s-75.167 2.5 -108.5 4.5h-1l5 193l-1 104h-103l-4 6l3 50h103l-3 288h1l231 4c91.333 0 161.333 -26 210 -78z
M493.501 127.5c36.333 44.333 54.5 110.5 54.5 198.5c0 168 -69 252 -207 252c-42 0 -90.333 -1.33301 -145 -4l-2 -221h144l3 -7l-2 -49h-146l-1 -97l3 -133c20.667 -2 45.5 -3.5 74.5 -4.5s51.5 -1.5 67.5 -1.5c68 0 120.167 22.167 156.5 66.5z" />
    <glyph glyph-name="Ntilde" unicode="&#xd1;" horiz-adv-x="683" 
d="M585 188l2 -188h-84l-332 513h-5l-1 -302l1 -211h-72l3 190l-2 451h83l331 -513h7l-1 509l75 6zM496 825l-0.000976562 -8.00098l-61 -69l-10 -3c-14.667 1.33301 -42.667 8 -84 20c-38 11.333 -61.667 17 -71 17c-4.66699 0 -9.66699 -2.16699 -15 -6.5
s-13.666 -12.166 -24.999 -23.499l-16 -17h-9l-24 26v7l61 69l10 3c16 -1.33301 43.667 -8 83 -20c4.66699 -1.33301 16 -4.33301 34 -9s30.667 -7 38 -7c5.33301 0 11 2.33301 17 7s13.667 12 23 22l17 17h8z" />
    <glyph glyph-name="Ograve" unicode="&#xd2;" horiz-adv-x="635" 
d="M527.5 566c47 -54 70.5 -131.667 70.5 -233c0 -109.333 -25 -193.5 -75 -252.5s-121.333 -88.5 -214 -88.5c-86.667 0 -153.5 28 -200.5 84s-70.5 135.667 -70.5 239c0 106.667 24.833 188.667 74.5 246s120.5 86 212.5 86c88 0 155.5 -27 202.5 -81zM120 324
c0 -91.333 16.167 -158.999 48.5 -202.999s81.166 -66 146.499 -66c133.333 0 200 87.667 200 263c0 89.333 -16.167 155.666 -48.5 198.999s-81.166 65 -146.499 65c-133.333 0 -200 -86 -200 -258zM429 761.001l-14 -36.001l-9 -4
c-69.333 28.667 -134.333 57.334 -195 86.001l-3 8l20 47l10 2c57.333 -34 121 -68.333 191 -103z" />
    <glyph glyph-name="Oacute" unicode="&#xd3;" horiz-adv-x="635" 
d="M527.5 566c47 -54 70.5 -131.667 70.5 -233c0 -109.333 -25 -193.5 -75 -252.5s-121.333 -88.5 -214 -88.5c-86.667 0 -153.5 28 -200.5 84s-70.5 135.667 -70.5 239c0 106.667 24.833 188.667 74.5 246s120.5 86 212.5 86c88 0 155.5 -27 202.5 -81zM120 324
c0 -91.333 16.167 -158.999 48.5 -202.999s81.166 -66 146.499 -66c133.333 0 200 87.667 200 263c0 89.333 -16.167 155.666 -48.5 198.999s-81.166 65 -146.499 65c-133.333 0 -200 -86 -200 -258zM430 862.001l19.999 -47l-2 -8
c-63.333 -29.333 -128.666 -58 -195.999 -86l-9 4l-14 36c70 34.667 133.667 69 191 103z" />
    <glyph glyph-name="Ocircumflex" unicode="&#xd4;" horiz-adv-x="635" 
d="M527.5 566c47 -54 70.5 -131.667 70.5 -233c0 -109.333 -25 -193.5 -75 -252.5s-121.333 -88.5 -214 -88.5c-86.667 0 -153.5 28 -200.5 84s-70.5 135.667 -70.5 239c0 106.667 24.833 188.667 74.5 246s120.5 86 212.5 86c88 0 155.5 -27 202.5 -81zM120 324
c0 -91.333 16.167 -158.999 48.5 -202.999s81.166 -66 146.499 -66c133.333 0 200 87.667 200 263c0 89.333 -16.167 155.666 -48.5 198.999s-81.166 65 -146.499 65c-133.333 0 -200 -86 -200 -258zM192 768.001c48.667 34 87.332 64.333 115.999 91h22
c34.667 -30 73.667 -60.333 117 -91l-15 -34h-10c-42 26 -76 48 -102 66c-17.333 -12 -51.666 -34 -102.999 -66h-9z" />
    <glyph glyph-name="Otilde" unicode="&#xd5;" horiz-adv-x="635" 
d="M527.5 566c47 -54 70.5 -131.667 70.5 -233c0 -109.333 -25 -193.5 -75 -252.5s-121.333 -88.5 -214 -88.5c-86.667 0 -153.5 28 -200.5 84s-70.5 135.667 -70.5 239c0 106.667 24.833 188.667 74.5 246s120.5 86 212.5 86c88 0 155.5 -27 202.5 -81zM120 324
c0 -91.333 16.167 -158.999 48.5 -202.999s81.166 -66 146.499 -66c133.333 0 200 87.667 200 263c0 89.333 -16.167 155.666 -48.5 198.999s-81.166 65 -146.499 65c-133.333 0 -200 -86 -200 -258zM476 825.001l-0.000976562 -8.00098l-61 -69l-10 -3
c-14.667 1.33301 -42.667 8 -84 20c-38 11.333 -61.667 17 -71 17c-4.66699 0 -9.66699 -2.16699 -15 -6.5s-13.666 -12.166 -24.999 -23.499l-16 -17h-9l-24 26v7l61 69l10 3c16 -1.33301 43.667 -8 83 -20c4.66699 -1.33301 16 -4.33301 34 -9s30.667 -7 38 -7
c5.33301 0 11 2.33301 17 7s13.667 12 23 22l17 17h8z" />
    <glyph glyph-name="multiply" unicode="&#xd7;" horiz-adv-x="480" 
d="M403 398v-10l-123 -123l123 -123v-9l-38 -33l-125 125l-126 -125l-37 33v8l124 124l-124 123v10l37 32l126 -125l125 125z" />
    <glyph glyph-name="Oslash" unicode="&#xd8;" horiz-adv-x="635" 
d="M568 500c20 -46 30.001 -101.667 30.001 -167c0 -109.333 -25 -193.5 -75 -252.5s-121.333 -88.5 -214 -88.5c-40 0 -75.667 6 -107 18l-53 -112l-49 17l-3 8l53 115c-36.667 25.333 -64.5 61.5 -83.5 108.5s-28.5 103.167 -28.5 168.5
c0 106.667 24.833 188.667 74.5 246s120.5 86 212.5 86c37.333 0 71.666 -5 102.999 -15l43 92l48 -18l4 -10l-42 -90c38 -24.667 67 -60 87 -106zM182.001 105l217 464c-22 8.66699 -48.333 13 -79 13c-133.333 0 -200 -86 -200 -258c0 -102.667 20.667 -175.667 62 -219z
M515.001 318c0 104 -21.999 177 -65.999 219l-219 -466c23.333 -10.667 51.666 -16 84.999 -16c133.333 0 200 87.667 200 263z" />
    <glyph glyph-name="Ugrave" unicode="&#xd9;" horiz-adv-x="626" 
d="M551 315l-0.998047 -72.001c1.33301 -78.667 -19.334 -140 -62.001 -184s-103.334 -66 -182.001 -66c-75.333 0 -133.166 21 -173.499 63s-59.833 101.333 -58.5 178l1 87l-1 320h79l-3 -397c-0.666992 -60 12.666 -105.167 39.999 -135.5s68 -45.5 122 -45.5
s95 14.333 123 43s41.667 71.334 41 128.001l-4 407h80zM425.002 760.999l-14 -36.001l-9 -4c-69.333 28.667 -134.333 57.334 -195 86.001l-3 8l20 47l10 2c57.333 -34 121 -68.333 191 -103z" />
    <glyph glyph-name="Uacute" unicode="&#xda;" horiz-adv-x="626" 
d="M551 315l-0.998047 -72.001c1.33301 -78.667 -19.334 -140 -62.001 -184s-103.334 -66 -182.001 -66c-75.333 0 -133.166 21 -173.499 63s-59.833 101.333 -58.5 178l1 87l-1 320h79l-3 -397c-0.666992 -60 12.666 -105.167 39.999 -135.5s68 -45.5 122 -45.5
s95 14.333 123 43s41.667 71.334 41 128.001l-4 407h80zM426.002 861.999l19.999 -47l-2 -8c-63.333 -29.333 -128.666 -58 -195.999 -86l-9 4l-14 36c70 34.667 133.667 69 191 103z" />
    <glyph glyph-name="Ucircumflex" unicode="&#xdb;" horiz-adv-x="626" 
d="M551 315l-0.998047 -72.001c1.33301 -78.667 -19.334 -140 -62.001 -184s-103.334 -66 -182.001 -66c-75.333 0 -133.166 21 -173.499 63s-59.833 101.333 -58.5 178l1 87l-1 320h79l-3 -397c-0.666992 -60 12.666 -105.167 39.999 -135.5s68 -45.5 122 -45.5
s95 14.333 123 43s41.667 71.334 41 128.001l-4 407h80zM188.002 767.999c48.667 34 87.332 64.333 115.999 91h22c34.667 -30 73.667 -60.333 117 -91l-15 -34h-10c-42 26 -76 48 -102 66c-17.333 -12 -51.666 -34 -102.999 -66h-9z" />
    <glyph glyph-name="Udieresis" unicode="&#xdc;" horiz-adv-x="626" 
d="M551 315l-0.998047 -72.001c1.33301 -78.667 -19.334 -140 -62.001 -184s-103.334 -66 -182.001 -66c-75.333 0 -133.166 21 -173.499 63s-59.833 101.333 -58.5 178l1 87l-1 320h79l-3 -397c-0.666992 -60 12.666 -105.167 39.999 -135.5s68 -45.5 122 -45.5
s95 14.333 123 43s41.667 71.334 41 128.001l-4 407h80zM269.502 822.999c7.66699 -7.33301 11.499 -17.666 11.499 -30.999c0 -14 -4 -25.333 -12 -34s-18.667 -13 -32 -13c-14 0 -24.667 3.83301 -32 11.5s-11 18.5 -11 32.5c0 13.333 4 24.166 12 32.499s19 12.5 33 12.5
c12.667 0 22.834 -3.66699 30.501 -11zM427.001 822.999c7.33301 -7.33301 11.001 -17.666 11.001 -30.999c0 -14 -4 -25.333 -12 -34s-18.667 -13 -32 -13s-23.833 4 -31.5 12s-11.5 18.667 -11.5 32s4 24.166 12 32.499s19 12.5 33 12.5
c13.333 0 23.666 -3.66699 30.999 -11z" />
    <glyph glyph-name="Thorn" unicode="&#xde;" horiz-adv-x="525" 
d="M437 482.5c34 -32.333 51.001 -79.167 51.001 -140.5c0 -72 -20.833 -127.667 -62.5 -167s-100.834 -59 -177.501 -59l-76 -1l2 -115h-80l3 193l-3 448h81l-1 -111l117 1c63.333 0 112 -16.167 146 -48.5zM405.001 335.999c0 82.667 -44 126 -132 130l-100 -3l-2 -263
v-18l106 -2c85.333 15.333 128 67.333 128 156z" />
    <glyph glyph-name="germandbls" unicode="&#xdf;" horiz-adv-x="558" 
d="M376.5 491.5c30.333 -7.66699 64.5 -19.834 102.5 -36.501l4 -13l-131 -153c58.667 -19.333 101.167 -40.666 127.5 -63.999s39.5 -54 39.5 -92c0 -43.333 -15.833 -77.333 -47.5 -102s-71.5 -37 -119.5 -37c-23.333 0 -47.666 3 -72.999 9s-48 14.333 -68 25l8 75l8 4
c18 -16 38.167 -28.667 60.5 -38s42.5 -14 60.5 -14c27.333 0 49.333 7.5 66 22.5s25 33.833 25 56.5c0 26.667 -14.167 48.5 -42.5 65.5s-73.5 33.167 -135.5 48.5l-3 14l128 151c-38 19.333 -74 29 -108 29c-41.333 0 -73.5 -10 -96.5 -30s-34.5 -48.333 -34.5 -85
l-2 -171l3 -156h-74l2 147l-1 180c0 53.333 18.667 96 56 128s88.333 48 153 48c31.333 0 62.166 -3.83301 92.499 -11.5z" />
    <glyph glyph-name="agrave" unicode="&#xe0;" horiz-adv-x="512" 
d="M161 686l-2 8l30 42l9 1c49.333 -47.333 104 -95.666 164 -144.999l-22 -32l-9 -1c-47.333 33.333 -104 75.666 -170 126.999zM478 0h-75l-12 54l-26 74l-119 1l-106 -1l-27 -70l-14 -58h-74l192 498h86zM344 189l-83 236h-6l-91 -236l88 -1z" />
    <glyph glyph-name="aacute" unicode="&#xe1;" horiz-adv-x="512" 
d="M209 560l-22 32c65.333 53.333 120 101.666 164 144.999l9 -1l30 -42l-2 -8c-66 -51.333 -122.667 -93.666 -170 -126.999zM478 0h-75l-12 54l-26 74l-119 1l-106 -1l-27 -70l-14 -58h-74l192 498h86zM344 189l-83 236h-6l-91 -236l88 -1z" />
    <glyph glyph-name="acircumflex" unicode="&#xe2;" horiz-adv-x="512" 
d="M150 563l-22 31.999c38.667 38.667 79.334 83.334 122.001 134.001h24c41.333 -51.333 81.666 -96 120.999 -134l-22 -32h-9c-41.333 39.333 -75.333 74 -102 104c-25.333 -28 -59.333 -62.667 -102 -104h-10zM478 -0.000976562h-75l-12 54l-26 74l-119 1l-106 -1
l-27 -70l-14 -58h-74l192 498h86zM344 188.999l-83 236h-6l-91 -236l88 -1z" />
    <glyph glyph-name="atilde" unicode="&#xe3;" horiz-adv-x="512" 
d="M127 592l-24.001 25.999v7l61 69l10 3c16 -1.33301 43.667 -8 83 -20c4.66699 -1.33301 16 -4.33301 34 -9s30.667 -7 38 -7c5.33301 0 11 2.33301 17 7s13.667 12 23 22l17 17h8l24 -25v-8l-61 -69l-10 -3c-14.667 1.33301 -42.667 8 -84 20
c-38 11.333 -61.667 17 -71 17c-4.66699 0 -9.66699 -2.16699 -15 -6.5s-13.666 -12.166 -24.999 -23.499l-16 -17h-9zM477.999 -0.000976562h-75l-12 54l-26 74l-119 1l-106 -1l-27 -70l-14 -58h-74l192 498h86zM343.999 188.999l-83 236h-6l-91 -236l88 -1z" />
    <glyph glyph-name="adieresis" unicode="&#xe4;" horiz-adv-x="512" 
d="M151 613.5c-7.33301 7.66699 -10.999 18.5 -10.999 32.5c0 13.333 4 24.166 12 32.499s19 12.5 33 12.5c13.333 0 23.666 -3.66699 30.999 -11s11 -17.666 11 -30.999c0 -14 -4 -25.333 -12 -34s-18.667 -13 -32 -13c-14 0 -24.667 3.83301 -32 11.5zM308.501 614
c-7.66699 8 -11.499 18.667 -11.499 32s4 24.166 12 32.499s19 12.5 33 12.5c13.333 0 23.666 -3.66699 30.999 -11s11 -17.666 11 -30.999c0 -14 -4 -25.333 -12 -34s-18.667 -13 -32 -13s-23.833 4 -31.5 12zM478.002 0h-75l-12 54l-26 74l-119 1l-106 -1l-27 -70l-14 -58
h-74l192 498h86zM344.002 189l-83 236h-6l-91 -236l88 -1z" />
    <glyph glyph-name="aring" unicode="&#xe5;" horiz-adv-x="512" 
d="M199 593.5c-15.333 14.333 -23 34.5 -23 60.5c0 25.333 7.66699 45.5 23 60.5s36 22.5 62 22.5s46.333 -7.5 61 -22.5s22 -34.5 22 -58.5c0 -26 -8.16699 -46.5 -24.5 -61.5s-36.833 -22.5 -61.5 -22.5c-24 0 -43.667 7.16699 -59 21.5zM225.5 686.5
c-7.66699 -7.66699 -11.498 -18.166 -11.498 -31.499c0 -14.667 4.16699 -25.834 12.5 -33.501s19.5 -11.5 33.5 -11.5c13.333 0 24.166 3.66699 32.499 11s12.5 18 12.5 32s-3.83301 25 -11.5 33s-19.167 12 -34.5 12c-14.667 0 -25.834 -3.83301 -33.501 -11.5z
M478.002 0.000976562h-75l-12 54l-26 74l-119 1l-106 -1l-27 -70l-14 -58h-74l192 498h86zM344.002 189.001l-83 236h-6l-91 -236l88 -1z" />
    <glyph glyph-name="ae" unicode="&#xe6;" horiz-adv-x="700" 
d="M674 60l-6 -60h-293l-4 53l-21 136l-205 -46l-49 -86l-20 -57h-74l277 498h316l5 -6l-7 -58l-133 5h-79l28 -176l176 38l6 -4l4 -60l-177 -34l22 -142h92l137 4zM340 248l-28 177h-6l-120 -211z" />
    <glyph glyph-name="ccedilla" unicode="&#xe7;" horiz-adv-x="461" 
d="M348.5 69.5c24.333 8.33301 46.166 19.501 65.499 33.501l9 -3l-7 -69c-40.667 -22 -82.667 -34.333 -126 -37l-14 -45l34 -20c25.333 -14.667 38 -33.334 38 -56.001c0 -19.333 -7.5 -35.166 -22.5 -47.499s-34.5 -18.5 -58.5 -18.5c-28.667 0 -52.667 10.333 -72 31
l7 40l5 1c9.33301 -10.667 18.333 -18.5 27 -23.5s18.667 -7.5 30 -7.5c9.33301 0 16.833 2.33301 22.5 7s8.5 11.334 8.5 20.001c0 5.33301 -1.66699 9.83301 -5 13.5s-8.66602 7.5 -15.999 11.5l-48 29l18 66c-64 5.33301 -113.167 29.666 -147.5 72.999
s-51.5 102.666 -51.5 177.999c0 82 20.833 145.333 62.5 190s100.5 67 176.5 67c55.333 0 103.333 -11.667 144 -35l-14 -69l-9 -3c-16.667 14 -36 25 -58 33s-45.667 12 -71 12c-49.333 0 -87 -15.833 -113 -47.5s-39 -78.834 -39 -141.501
c0 -63.333 13 -111.666 39 -144.999s63.667 -50 113 -50c24 0 48.167 4.16699 72.5 12.5z" />
    <glyph glyph-name="egrave" unicode="&#xe8;" horiz-adv-x="435" 
d="M142 686l-2 8l30 42l9 1c49.333 -47.333 104 -95.666 164 -144.999l-22 -32l-9 -1c-47.333 33.333 -104 75.666 -170 126.999zM394 64l6 -6l-7 -58h-303l3 150l-3 348h305l5 -6l-6 -58l-126 4l-104 -1l-1 -151l99 -1l87 3l5 -7l-6 -59l-92 3l-93 -1l-1 -68l1 -95l98 -1z
" />
    <glyph glyph-name="eacute" unicode="&#xe9;" horiz-adv-x="435" 
d="M191 560l-22 32c65.333 53.333 120 101.666 164 144.999l9 -1l30 -42l-2 -8c-66 -51.333 -122.667 -93.666 -170 -126.999zM394 64l6 -6l-7 -58h-303l3 150l-3 348h305l5 -6l-6 -58l-126 4l-104 -1l-1 -151l99 -1l87 3l5 -7l-6 -59l-92 3l-93 -1l-1 -68l1 -95l98 -1z" />
    <glyph glyph-name="ecircumflex" unicode="&#xea;" horiz-adv-x="435" 
d="M131 563l-21.999 32c38 38 78.667 82.667 122 134h24c41.333 -51.333 81.666 -96 120.999 -134l-22 -32h-9c-41.333 39.333 -75.333 74 -102 104c-25.333 -28 -59.333 -62.667 -102 -104h-10zM394.001 64l6 -6l-7 -58h-303l3 150l-3 348h305l5 -6l-6 -58l-126 4l-104 -1
l-1 -151l99 -1l87 3l5 -7l-6 -59l-92 3l-93 -1l-1 -68l1 -95l98 -1z" />
    <glyph glyph-name="edieresis" unicode="&#xeb;" horiz-adv-x="435" 
d="M132 613.5c-7.33301 7.66699 -10.999 18.5 -10.999 32.5c0 13.333 4 24.166 12 32.499s19 12.5 33 12.5c13.333 0 23.666 -3.66699 30.999 -11s11 -17.666 11 -30.999c0 -14 -4 -25.333 -12 -34s-18.667 -13 -32 -13c-14 0 -24.667 3.83301 -32 11.5zM289.501 614
c-7.66699 8 -11.499 18.667 -11.499 32s4 24.166 12 32.499s19 12.5 33 12.5c13.333 0 23.666 -3.66699 30.999 -11s11 -17.666 11 -30.999c0 -14 -4 -25.333 -12 -34s-18.667 -13 -32 -13s-23.833 4 -31.5 12zM394.002 64l6 -6l-7 -58h-303l3 150l-3 348h305l5 -6l-6 -58
l-126 4l-104 -1l-1 -151l99 -1l87 3l5 -7l-6 -59l-92 3l-93 -1l-1 -68l1 -95l98 -1z" />
    <glyph glyph-name="igrave" unicode="&#xec;" horiz-adv-x="259" 
d="M232 592l-22 -32l-9 -1c-47.333 33.333 -104 75.666 -170 126.999l-2 8l30 42l9 1c49.333 -47.333 104 -95.666 164 -144.999zM162 156l2 -156h-74l3 150l-3 348h75z" />
    <glyph glyph-name="iacute" unicode="&#xed;" horiz-adv-x="259" 
d="M230 736l30 -42l-2 -8c-66 -51.333 -122.667 -93.666 -170 -126.999l-9 1l-22 32c65.333 53.333 120 101.666 164 144.999zM162 156l2 -156h-74l3 150l-3 348h75z" />
    <glyph glyph-name="icircumflex" unicode="&#xee;" horiz-adv-x="259" 
d="M-2 595c38.667 38.667 79.334 83.333 122.001 134h24c41.333 -51.333 81.666 -96 120.999 -134l-22 -32h-9c-41.333 39.333 -75.333 74 -102 104c-25.333 -28 -59.333 -62.667 -102 -104h-10zM162 155.999l2 -156h-74l3 150l-3 348h75z" />
    <glyph glyph-name="eth" unicode="&#xf0;" horiz-adv-x="582" 
d="M476 440.5c40.667 -41 60.999 -99.167 60.999 -174.5c0 -86.667 -22.167 -153.5 -66.5 -200.5s-107.5 -70.5 -189.5 -70.5c-23.333 0 -51.166 0.5 -83.499 1.5s-62.833 2.16699 -91.5 3.5l3 150l-1 69h-86l-5 7l3 47h88l-2 225l195 4c76 0 134.333 -20.5 175 -61.5z
M416.999 104.5c28.667 32.333 43 81.167 43 146.5c0 64 -13.667 111.333 -41 142s-68.333 46 -123 46c-32.667 0 -71 -1.33301 -115 -4l-2 -162h128l4 -7l-3 -47h-129l-1 -63l2 -94l60.5 -4c21 -1.33301 38.5 -2 52.5 -2c54 0 95.333 16.167 124 48.5z" />
    <glyph glyph-name="ntilde" unicode="&#xf1;" horiz-adv-x="596" 
d="M454 682l-0.000976562 -8.00098l-61 -69l-10 -3c-14.667 1.33301 -42.667 8 -84 20c-38 11.333 -61.667 17 -71 17c-4.66699 0 -9.66699 -2.16699 -15 -6.5s-13.666 -12.166 -24.999 -23.499l-16 -17h-9l-24 26v7l61 69l10 3c16 -1.33301 43.667 -8 83 -20
c4.66699 -1.33301 16 -4.33301 34 -9s30.667 -7 38 -7c5.33301 0 11 2.33301 17 7s13.667 12 23 22l17 17h8zM502.999 148.999l1 -149h-80l-262 380h-5l-1 -214l2 -166h-68l3 147l-2 351h79l262 -380h7l-2 377l69 5z" />
    <glyph glyph-name="ograve" unicode="&#xf2;" horiz-adv-x="557" 
d="M381 592l-22 -32l-9 -1c-47.333 33.333 -104 75.666 -170 126.999l-2 8l30 42l9 1c49.333 -47.333 104 -95.666 164 -144.999zM453.5 440c39 -42.667 58.5 -103.001 58.5 -181.001c0 -84.667 -20.833 -150.167 -62.5 -196.5s-101.167 -69.5 -178.5 -69.5
c-72 0 -127.667 21.833 -167 65.5s-59 105.834 -59 186.501c0 82.667 21 146.5 63 191.5s101.333 67.5 178 67.5c72.667 0 128.5 -21.333 167.5 -64zM161.5 395.999c-25.667 -30 -38.498 -77.333 -38.498 -142c0 -69.333 12.667 -119.666 38 -150.999s64 -47 116 -47
c53.333 0 93 15.333 119 46s39 78.667 39 144c0 67.333 -12.833 116.666 -38.5 147.999s-64.834 47 -117.501 47s-91.834 -15 -117.501 -45z" />
    <glyph glyph-name="oacute" unicode="&#xf3;" horiz-adv-x="557" 
d="M379 736l30 -42l-2 -8c-66 -51.333 -122.667 -93.666 -170 -126.999l-9 1l-22 32c65.333 53.333 120 101.666 164 144.999zM453.5 440c39 -42.667 58.5 -103.001 58.5 -181.001c0 -84.667 -20.833 -150.167 -62.5 -196.5s-101.167 -69.5 -178.5 -69.5
c-72 0 -127.667 21.833 -167 65.5s-59 105.834 -59 186.501c0 82.667 21 146.5 63 191.5s101.333 67.5 178 67.5c72.667 0 128.5 -21.333 167.5 -64zM161.5 395.999c-25.667 -30 -38.498 -77.333 -38.498 -142c0 -69.333 12.667 -119.666 38 -150.999s64 -47 116 -47
c53.333 0 93 15.333 119 46s39 78.667 39 144c0 67.333 -12.833 116.666 -38.5 147.999s-64.834 47 -117.501 47s-91.834 -15 -117.501 -45z" />
    <glyph glyph-name="ocircumflex" unicode="&#xf4;" horiz-adv-x="557" 
d="M147 595c38.667 38.667 79.334 83.333 122.001 134h24c41.333 -51.333 81.666 -96 120.999 -134l-22 -32h-9c-41.333 39.333 -75.333 74 -102 104c-25.333 -28 -59.333 -62.667 -102 -104h-10zM453.5 439.999c39 -42.667 58.5 -103.001 58.5 -181.001
c0 -84.667 -20.833 -150.167 -62.5 -196.5s-101.167 -69.5 -178.5 -69.5c-72 0 -127.667 21.833 -167 65.5s-59 105.834 -59 186.501c0 82.667 21 146.5 63 191.5s101.333 67.5 178 67.5c72.667 0 128.5 -21.333 167.5 -64zM161.5 395.998
c-25.667 -30 -38.498 -77.333 -38.498 -142c0 -69.333 12.667 -119.666 38 -150.999s64 -47 116 -47c53.333 0 93 15.333 119 46s39 78.667 39 144c0 67.333 -12.833 116.666 -38.5 147.999s-64.834 47 -117.501 47s-91.834 -15 -117.501 -45z" />
    <glyph glyph-name="otilde" unicode="&#xf5;" horiz-adv-x="557" 
d="M437 682l-0.000976562 -8.00098l-61 -69l-10 -3c-14.667 1.33301 -42.667 8 -84 20c-38 11.333 -61.667 17 -71 17c-4.66699 0 -9.66699 -2.16699 -15 -6.5s-13.666 -12.166 -24.999 -23.499l-16 -17h-9l-24 26v7l61 69l10 3c16 -1.33301 43.667 -8 83 -20
c4.66699 -1.33301 16 -4.33301 34 -9s30.667 -7 38 -7c5.33301 0 11 2.33301 17 7s13.667 12 23 22l17 17h8zM453.499 439.999c39 -42.667 58.5 -103.001 58.5 -181.001c0 -84.667 -20.833 -150.167 -62.5 -196.5s-101.167 -69.5 -178.5 -69.5
c-72 0 -127.667 21.833 -167 65.5s-59 105.834 -59 186.501c0 82.667 21 146.5 63 191.5s101.333 67.5 178 67.5c72.667 0 128.5 -21.333 167.5 -64zM161.499 395.998c-25.667 -30 -38.498 -77.333 -38.498 -142c0 -69.333 12.667 -119.666 38 -150.999s64 -47 116 -47
c53.333 0 93 15.333 119 46s39 78.667 39 144c0 67.333 -12.833 116.666 -38.5 147.999s-64.834 47 -117.501 47s-91.834 -15 -117.501 -45z" />
    <glyph glyph-name="divide" unicode="&#xf7;" horiz-adv-x="480" 
d="M291 474.5c7.33301 -7.66699 11 -18.168 11 -31.501s-4 -24.166 -12 -32.499s-18.667 -12.5 -32 -12.5s-23.5 3.83301 -30.5 11.5s-10.5 18.5 -10.5 32.5c0 13.333 4 24 12 32s18.667 12 32 12c12.667 0 22.667 -3.83301 30 -11.5zM459 286.999l-5 -50h-407l-6 6l5 50
h407zM291 124.499c7.33301 -7.66699 11 -18.168 11 -31.501s-4 -24.166 -12 -32.499s-18.667 -12.5 -32 -12.5s-23.5 3.83301 -30.5 11.5s-10.5 18.5 -10.5 32.5c0 13.333 4 24 12 32s18.667 12 32 12c12.667 0 22.667 -3.83301 30 -11.5z" />
    <glyph glyph-name="oslash" unicode="&#xf8;" horiz-adv-x="557" 
d="M488.5 385.5c15.667 -35.667 23.501 -77.833 23.501 -126.5c0 -84.667 -20.833 -150.167 -62.5 -196.5s-101.167 -69.5 -178.5 -69.5c-30.667 0 -58.334 4 -83.001 12l-53 -105l-44 21l-3 8l50 100c-30 20.667 -53 49.167 -69 85.5s-24 79.833 -24 130.5
c0 82.667 21 146.5 63 191.5s101.333 67.5 178 67.5c30.667 0 58.667 -4 84 -12l38 76l42 -20l5 -9l-35 -70c30 -20 52.833 -47.833 68.5 -83.5zM170.001 93.001l170.001 339c-18 6 -38.333 9 -61 9c-52.667 0 -91.834 -15 -117.501 -45s-38.5 -77.333 -38.5 -142
c0 -76 15.667 -129.667 47 -161zM396.002 102.001c26 30.667 39 78.667 39 144c0 74 -15.667 126.667 -47 158l-171 -340c19.333 -5.33301 39.333 -8 60 -8c53.333 0 93 15.333 119 46z" />
    <glyph glyph-name="ugrave" unicode="&#xf9;" horiz-adv-x="549" 
d="M378 592l-22 -32l-9 -1c-47.333 33.333 -104 75.666 -170 126.999l-2 8l30 42l9 1c49.333 -47.333 104 -95.666 164 -144.999zM473 245v-72c0.666992 -56.667 -16.5 -100.667 -51.5 -132s-85.167 -47 -150.5 -47c-64.667 0 -114 15.5 -148 46.5s-50.333 75.167 -49 132.5
l1 76l-1 249h75l-4 -313c-0.666992 -42 9.83301 -73.667 31.5 -95s54.167 -32 97.5 -32c42.667 0 75 10.667 97 32s32.667 53 32 95l-3 313h76z" />
    <glyph glyph-name="uacute" unicode="&#xfa;" horiz-adv-x="549" 
d="M376 736l30 -42l-2 -8c-66 -51.333 -122.667 -93.666 -170 -126.999l-9 1l-22 32c65.333 53.333 120 101.666 164 144.999zM473 245v-72c0.666992 -56.667 -16.5 -100.667 -51.5 -132s-85.167 -47 -150.5 -47c-64.667 0 -114 15.5 -148 46.5s-50.333 75.167 -49 132.5
l1 76l-1 249h75l-4 -313c-0.666992 -42 9.83301 -73.667 31.5 -95s54.167 -32 97.5 -32c42.667 0 75 10.667 97 32s32.667 53 32 95l-3 313h76z" />
    <glyph glyph-name="ucircumflex" unicode="&#xfb;" horiz-adv-x="549" 
d="M144 595c38 38 78.668 82.667 122.001 134h24c41.333 -51.333 81.666 -96 120.999 -134l-22 -32h-9c-41.333 39.333 -75.333 74 -102 104c-25.333 -28 -59.333 -62.667 -102 -104h-10zM473.001 245v-72c0.666992 -56.667 -16.5 -100.667 -51.5 -132
s-85.167 -47 -150.5 -47c-64.667 0 -114 15.5 -148 46.5s-50.333 75.167 -49 132.5l1 76l-1 249h75l-4 -313c-0.666992 -42 9.83301 -73.667 31.5 -95s54.167 -32 97.5 -32c42.667 0 75 10.667 97 32s32.667 53 32 95l-3 313h76z" />
    <glyph glyph-name="udieresis" unicode="&#xfc;" horiz-adv-x="549" 
d="M232 680c7.33301 -7.33301 11.001 -17.666 11.001 -30.999c0 -14 -4 -25.333 -12 -34s-18.667 -13 -32 -13c-14 0 -24.667 3.83301 -32 11.5s-11 18.5 -11 32.5c0 13.333 4 24.166 12 32.499s19 12.5 33 12.5c13.333 0 23.666 -3.66699 30.999 -11zM389.001 680
c7.33301 -7.33301 11.001 -17.666 11.001 -30.999c0 -14 -4 -25.333 -12 -34s-18.667 -13 -32 -13s-23.833 4 -31.5 12s-11.5 18.667 -11.5 32s4 24.166 12 32.499s19 12.5 33 12.5c13.333 0 23.666 -3.66699 30.999 -11zM473.002 245v-72
c0.666992 -56.667 -16.5 -100.667 -51.5 -132s-85.167 -47 -150.5 -47c-64.667 0 -114 15.5 -148 46.5s-50.333 75.167 -49 132.5l1 76l-1 249h75l-4 -313c-0.666992 -42 9.83301 -73.667 31.5 -95s54.167 -32 97.5 -32c42.667 0 75 10.667 97 32s32.667 53 32 95l-3 313h76
z" />
    <glyph glyph-name="thorn" unicode="&#xfe;" horiz-adv-x="471" 
d="M385 377.5c28 -25.667 42 -62.832 42 -111.499c0 -56.667 -17.5 -100.334 -52.5 -131.001s-84.833 -46 -149.5 -46l-61 -1l1 -88h-75l3 150l-3 348h76l-1 -83l98 1c53.333 0 94 -12.833 122 -38.5zM348 260.002c0 32 -8.83301 55.832 -26.5 71.499
s-44.167 24.167 -79.5 25.5l-77 -1l-2 -200v-6l86 -3c66 12.667 99 50.334 99 113.001z" />
    <glyph glyph-name="ydieresis" unicode="&#xff;" horiz-adv-x="473" 
d="M131 613.5c-7.33301 7.66699 -10.999 18.5 -10.999 32.5c0 13.333 4 24.166 12 32.499s19 12.5 33 12.5c13.333 0 23.666 -3.66699 30.999 -11s11 -17.666 11 -30.999c0 -14 -4 -25.333 -12 -34s-18.667 -13 -32 -13c-14 0 -24.667 3.83301 -32 11.5zM288.501 614
c-7.66699 8 -11.499 18.667 -11.499 32s4 24.166 12 32.499s19 12.5 33 12.5c13.333 0 23.666 -3.66699 30.999 -11s11 -17.666 11 -30.999c0 -14 -4 -25.333 -12 -34s-18.667 -13 -32 -13s-23.833 4 -31.5 12zM263.002 143l3 -143h-75l4 143l-1 31l-169 324h82l10 -29
l112 -214h5l122 211l13 32h80l-185 -324z" />
    <glyph glyph-name="Amacron" unicode="&#x100;" horiz-adv-x="578" 
d="M556 0h-82l-15 64l-36 110l-144 3l-130 -3l-39 -106l-16 -68h-80l235 641h93zM401 242l-104 316h-7l-116 -316l112 -2zM437 812l-5 -47h-283l-6 6l4 46h283z" />
    <glyph glyph-name="amacron" unicode="&#x101;" horiz-adv-x="512" 
d="M120 622l-6 6l4 46h283l7 -5l-5 -47h-283zM478 0h-75l-12 54l-26 74l-119 1l-106 -1l-27 -70l-14 -58h-74l192 498h86zM344 189l-83 236h-6l-91 -236l88 -1z" />
    <glyph glyph-name="Abreve" unicode="&#x102;" horiz-adv-x="578" 
d="M556 0h-82l-15 64l-36 110l-144 3l-130 -3l-39 -106l-16 -68h-80l235 641h93zM401 242l-104 316h-7l-116 -316l112 -2zM417 815c-10 -28.667 -26.0029 -50.832 -48.0029 -66.499s-48.667 -23.5 -80 -23.5c-30.667 0 -56.667 7.66699 -78 23
s-36.666 37.666 -45.999 66.999l22 28h12c7.33301 -19.333 18.833 -34.333 34.5 -45s34.834 -16 57.501 -16s41.834 5.33301 57.501 16s27.167 25.667 34.5 45h12z" />
    <glyph glyph-name="abreve" unicode="&#x103;" horiz-adv-x="512" 
d="M177.5 597c-20.333 20 -34.1689 48.333 -41.502 85l22 29h12c12.667 -58 43.334 -87 92.001 -87s79.334 29 92.001 87h12l23 -29c-18 -76.667 -61 -115 -129 -115c-34.667 0 -62.167 10 -82.5 30zM477.997 0h-75l-12 54l-26 74l-119 1l-106 -1l-27 -70l-14 -58h-74
l192 498h86zM343.997 189l-83 236h-6l-91 -236l88 -1z" />
    <glyph glyph-name="Aogonek" unicode="&#x104;" horiz-adv-x="578" 
d="M556 0h-82l-15 64l-36 110l-144 3l-130 -3l-39 -106l-16 -68h-80l235 641h93zM401 242l-104 316h-7l-116 -316l112 -2zM483.5 -85.5c-10.333 -13.667 -15.501 -25.167 -15.501 -34.5c0 -15.333 8 -23 24 -23c18.667 0 37.334 11.667 56.001 35h5l16 -39
c-23.333 -31.333 -52.333 -47 -87 -47c-20.667 0 -37 5.5 -49 16.5s-18 25.833 -18 44.5c0 17.333 6.33301 35.333 19 54s35.667 45 69 79h53c-38 -43.333 -62.167 -71.833 -72.5 -85.5z" />
    <glyph glyph-name="aogonek" unicode="&#x105;" horiz-adv-x="512" 
d="M491 -147c-23.333 -31.333 -52.334 -47 -87.001 -47c-20.667 0 -37 5.5 -49 16.5s-18 25.833 -18 44.5c0 17.333 6.33301 35.333 19 54s35.667 45 69 79h-22l-12 54l-26 74l-119 1l-106 -1l-27 -70l-14 -58h-74l192 498h86l175 -498
c-38 -43.333 -62.167 -71.833 -72.5 -85.5s-15.5 -25.167 -15.5 -34.5c0 -15.333 8 -23 24 -23c18.667 0 37.334 11.667 56.001 35h5zM343.999 189l-83 236h-6l-91 -236l88 -1z" />
    <glyph glyph-name="Cacute" unicode="&#x106;" horiz-adv-x="520" 
d="M497 598l-15.999 -72.999l-9 -2c-44.667 37.333 -96 56 -154 56c-63.333 0 -112 -21.833 -146 -65.5s-51 -107.5 -51 -191.5c0 -84.667 17 -149.334 51 -194.001s82 -67 144 -67c29.333 0 58.5 5.33301 87.5 16s55.5 25.667 79.5 45l10 -5l-7 -76
c-58 -32 -117 -48 -177 -48c-86 0 -152.667 27.833 -200 83.5s-71 135.167 -71 238.5c0 106 24.667 187.667 74 245s119.333 86 210 86c67.333 0 125.666 -16 174.999 -48zM425.001 862.001l19.999 -47l-2 -8c-63.333 -29.333 -128.666 -58 -195.999 -86l-9 4l-14 36
c70 34.667 133.667 69 191 103z" />
    <glyph glyph-name="cacute" unicode="&#x107;" horiz-adv-x="461" 
d="M364 736l30 -42l-2 -8c-66 -51.333 -122.667 -93.666 -170 -126.999l-9 1l-22 32c65.333 53.333 120 101.666 164 144.999zM428 468l-14 -69.001l-9 -3c-16.667 14 -36 25 -58 33s-45.667 12 -71 12c-49.333 0 -87 -15.833 -113 -47.5s-39 -78.834 -39 -141.501
c0 -63.333 13 -111.666 39 -144.999s63.667 -50 113 -50c24 0 48.167 4.16699 72.5 12.5s46.166 19.5 65.499 33.5l9 -3l-7 -69c-45.333 -24.667 -93 -37 -143 -37c-73.333 0 -129.666 21.833 -168.999 65.5s-59 105.834 -59 186.501c0 82 20.833 145.333 62.5 190
s100.5 67 176.5 67c55.333 0 103.333 -11.667 144 -35z" />
    <glyph glyph-name="Ccircumflex" unicode="&#x108;" horiz-adv-x="520" 
d="M497 598l-15.999 -72.999l-9 -2c-44.667 37.333 -96 56 -154 56c-63.333 0 -112 -21.833 -146 -65.5s-51 -107.5 -51 -191.5c0 -84.667 17 -149.334 51 -194.001s82 -67 144 -67c29.333 0 58.5 5.33301 87.5 16s55.5 25.667 79.5 45l10 -5l-7 -76
c-58 -32 -117 -48 -177 -48c-86 0 -152.667 27.833 -200 83.5s-71 135.167 -71 238.5c0 106 24.667 187.667 74 245s119.333 86 210 86c67.333 0 125.666 -16 174.999 -48zM187.001 768.001c48.667 34 87.332 64.333 115.999 91h22c34.667 -30 73.667 -60.333 117 -91
l-15 -34h-10c-42 26 -76 48 -102 66c-17.333 -12 -51.666 -34 -102.999 -66h-9z" />
    <glyph glyph-name="ccircumflex" unicode="&#x109;" horiz-adv-x="461" 
d="M131 595c38.667 38.667 79.334 83.333 122.001 134h24c41.333 -51.333 81.666 -96 120.999 -134l-22 -32h-9c-41.333 39.333 -75.333 74 -102 104c-25.333 -28 -59.333 -62.667 -102 -104h-10zM428 467.999l-14 -69.001l-9 -3c-16.667 14 -36 25 -58 33
s-45.667 12 -71 12c-49.333 0 -87 -15.833 -113 -47.5s-39 -78.834 -39 -141.501c0 -63.333 13 -111.666 39 -144.999s63.667 -50 113 -50c24 0 48.167 4.16699 72.5 12.5s46.166 19.5 65.499 33.5l9 -3l-7 -69c-45.333 -24.667 -93 -37 -143 -37
c-73.333 0 -129.666 21.833 -168.999 65.5s-59 105.834 -59 186.501c0 82 20.833 145.333 62.5 190s100.5 67 176.5 67c55.333 0 103.333 -11.667 144 -35z" />
    <glyph glyph-name="Cdotaccent" unicode="&#x10a;" horiz-adv-x="520" 
d="M497 598l-15.999 -72.999l-9 -2c-44.667 37.333 -96 56 -154 56c-63.333 0 -112 -21.833 -146 -65.5s-51 -107.5 -51 -191.5c0 -84.667 17 -149.334 51 -194.001s82 -67 144 -67c29.333 0 58.5 5.33301 87.5 16s55.5 25.667 79.5 45l10 -5l-7 -76
c-58 -32 -117 -48 -177 -48c-86 0 -152.667 27.833 -200 83.5s-71 135.167 -71 238.5c0 106 24.667 187.667 74 245s119.333 86 210 86c67.333 0 125.666 -16 174.999 -48zM348.001 834.001c8 -8 12 -18.999 12 -32.999c0 -14.667 -4.16699 -26.334 -12.5 -35.001
s-19.833 -13 -34.5 -13c-14 0 -24.833 4 -32.5 12s-11.5 19.333 -11.5 34c0 14 4.16699 25.333 12.5 34s19.833 13 34.5 13c13.333 0 24 -4 32 -12z" />
    <glyph glyph-name="cdotaccent" unicode="&#x10b;" horiz-adv-x="461" 
d="M298 691c8 -8 12 -18.999 12 -32.999c0 -14.667 -4.16699 -26.334 -12.5 -35.001s-19.833 -13 -34.5 -13c-14 0 -24.833 4 -32.5 12s-11.5 19.333 -11.5 34c0 14 4.16699 25.333 12.5 34s19.833 13 34.5 13c13.333 0 24 -4 32 -12zM428 468.001l-14 -69.001l-9 -3
c-16.667 14 -36 25 -58 33s-45.667 12 -71 12c-49.333 0 -87 -15.833 -113 -47.5s-39 -78.834 -39 -141.501c0 -63.333 13 -111.666 39 -144.999s63.667 -50 113 -50c24 0 48.167 4.16699 72.5 12.5s46.166 19.5 65.499 33.5l9 -3l-7 -69c-45.333 -24.667 -93 -37 -143 -37
c-73.333 0 -129.666 21.833 -168.999 65.5s-59 105.834 -59 186.501c0 82 20.833 145.333 62.5 190s100.5 67 176.5 67c55.333 0 103.333 -11.667 144 -35z" />
    <glyph glyph-name="Ccaron" unicode="&#x10c;" horiz-adv-x="520" 
d="M497 598l-15.999 -72.999l-9 -2c-44.667 37.333 -96 56 -154 56c-63.333 0 -112 -21.833 -146 -65.5s-51 -107.5 -51 -191.5c0 -84.667 17 -149.334 51 -194.001s82 -67 144 -67c29.333 0 58.5 5.33301 87.5 16s55.5 25.667 79.5 45l10 -5l-7 -76
c-58 -32 -117 -48 -177 -48c-86 0 -152.667 27.833 -200 83.5s-71 135.167 -71 238.5c0 106 24.667 187.667 74 245s119.333 86 210 86c67.333 0 125.666 -16 174.999 -48zM442.001 815.001c-48.667 -34 -87.332 -64.333 -115.999 -91h-22
c-34.667 30 -73.667 60.333 -117 91l15 34h10c42 -26 76 -48 102 -66c17.333 12 51.666 34 102.999 66h9z" />
    <glyph glyph-name="ccaron" unicode="&#x10d;" horiz-adv-x="461" 
d="M398 696c-38 -38.667 -78.668 -83.333 -122.001 -134h-24c-41.333 51.333 -81.666 96 -120.999 134l22 32h9c41.333 -39.333 75.333 -74 102 -104c25.333 28 59.333 62.667 102 104h10zM427.999 468.001l-14 -69.001l-9 -3c-16.667 14 -36 25 -58 33s-45.667 12 -71 12
c-49.333 0 -87 -15.833 -113 -47.5s-39 -78.834 -39 -141.501c0 -63.333 13 -111.666 39 -144.999s63.667 -50 113 -50c24 0 48.167 4.16699 72.5 12.5s46.166 19.5 65.499 33.5l9 -3l-7 -69c-45.333 -24.667 -93 -37 -143 -37c-73.333 0 -129.666 21.833 -168.999 65.5
s-59 105.834 -59 186.501c0 82 20.833 145.333 62.5 190s100.5 67 176.5 67c55.333 0 103.333 -11.667 144 -35z" />
    <glyph glyph-name="Dcaron" unicode="&#x10e;" horiz-adv-x="646" 
d="M535 567c48.667 -52 73.001 -126.667 73.001 -224c0 -112.667 -26.333 -199 -79 -259s-128.334 -90 -227.001 -90c-27.333 0 -60.5 0.5 -99.5 1.5s-75.167 2.5 -108.5 4.5h-1l5 193l-5 448h1l231 4c91.333 0 161.333 -26 210 -78zM471.501 127.5
c36.333 44.333 54.5 110.5 54.5 198.5c0 168 -69 252 -207 252c-42 0 -90.333 -1.33301 -145 -4l-4 -374l3 -133c20.667 -2 45.5 -3.5 74.5 -4.5s51.5 -1.5 67.5 -1.5c68 0 120.167 22.167 156.5 66.5zM452.001 815c-48.667 -34 -87.332 -64.333 -115.999 -91h-22
c-34.667 30 -73.667 60.333 -117 91l15 34h10c42 -26 76 -48 102 -66c17.333 12 51.666 34 102.999 66h9z" />
    <glyph glyph-name="dcaron" unicode="&#x10f;" horiz-adv-x="566" 
d="M150 696l22 32.001h9c41.333 -39.333 75.333 -74 102 -104c25.333 28 59.333 62.667 102 104h10l22 -32c-38.667 -38.667 -79.334 -83.334 -122.001 -134.001h-24c-41.333 51.333 -81.666 96 -120.999 134zM459.5 441.001c40.333 -40.667 60.499 -99 60.499 -175
c0 -87.333 -22 -154.333 -66 -201s-107 -70 -189 -70c-23.333 0 -51.166 0.5 -83.499 1.5s-62.833 2.16699 -91.5 3.5l3 150l-3 348l195 4c76 0 134.167 -20.333 174.5 -61zM400.499 104.501c29 32.333 43.5 81.166 43.5 146.499c0 64 -13.667 111.333 -41 142
s-68.666 46 -123.999 46c-32.667 0 -71 -1.33301 -115 -4l-2 -279l1 -94c19.333 -1.33301 39.666 -2.66602 60.999 -3.99902s39 -2 53 -2c53.333 0 94.5 16.167 123.5 48.5z" />
    <glyph glyph-name="Dcroat" unicode="&#x110;" horiz-adv-x="668" 
d="M557 567c48.667 -52 73.001 -126.667 73.001 -224c0 -112.667 -26.333 -199 -79 -259s-128.334 -90 -227.001 -90c-27.333 0 -60.5 0.5 -99.5 1.5s-75.167 2.5 -108.5 4.5h-1l5 193l-1 104h-103l-4 6l3 50h103l-3 288h1l231 4c91.333 0 161.333 -26 210 -78z
M493.501 127.5c36.333 44.333 54.5 110.5 54.5 198.5c0 168 -69 252 -207 252c-42 0 -90.333 -1.33301 -145 -4l-2 -221h144l3 -7l-2 -49h-146l-1 -97l3 -133c20.667 -2 45.5 -3.5 74.5 -4.5s51.5 -1.5 67.5 -1.5c68 0 120.167 22.167 156.5 66.5z" />
    <glyph glyph-name="dcroat" unicode="&#x111;" horiz-adv-x="582" 
d="M476 440.5c40.667 -41 60.999 -99.167 60.999 -174.5c0 -86.667 -22.167 -153.5 -66.5 -200.5s-107.5 -70.5 -189.5 -70.5c-23.333 0 -51.166 0.5 -83.499 1.5s-62.833 2.16699 -91.5 3.5l3 150l-1 69h-86l-5 7l3 47h88l-2 225l195 4c76 0 134.333 -20.5 175 -61.5z
M416.999 104.5c28.667 32.333 43 81.167 43 146.5c0 64 -13.667 111.333 -41 142s-68.333 46 -123 46c-32.667 0 -71 -1.33301 -115 -4l-2 -162h128l4 -7l-3 -47h-129l-1 -63l2 -94l60.5 -4c21 -1.33301 38.5 -2 52.5 -2c54 0 95.333 16.167 124 48.5z" />
    <glyph glyph-name="Emacron" unicode="&#x112;" horiz-adv-x="482" 
d="M459 62l-6 -62h-360l5 193l-5 448h361l4 -8l-6 -62l-151 3l-127 -2l-2 -210l120 -2l106 3l6 -7l-7 -62l-112 2l-114 -1l-1 -95l3 -133l127 -1l154 4zM421 812l-5 -47h-283l-6 6l4 46h283z" />
    <glyph glyph-name="emacron" unicode="&#x113;" horiz-adv-x="435" 
d="M101 622l-6 6l4 46h283l7 -5l-5 -47h-283zM394 64l6 -6l-7 -58h-303l3 150l-3 348h305l5 -6l-6 -58l-126 4l-104 -1l-1 -151l99 -1l87 3l5 -7l-6 -59l-92 3l-93 -1l-1 -68l1 -95l98 -1z" />
    <glyph glyph-name="Ebreve" unicode="&#x114;" horiz-adv-x="482" 
d="M459 62l-6 -62h-360l5 193l-5 448h361l4 -8l-6 -62l-151 3l-127 -2l-2 -210l120 -2l106 3l6 -7l-7 -62l-112 2l-114 -1l-1 -95l3 -133l127 -1l154 4zM401 815c-10 -28.667 -26.0029 -50.832 -48.0029 -66.499s-48.667 -23.5 -80 -23.5c-30.667 0 -56.667 7.66699 -78 23
s-36.666 37.666 -45.999 66.999l22 28h12c7.33301 -19.333 18.833 -34.333 34.5 -45s34.834 -16 57.501 -16s41.834 5.33301 57.501 16s27.167 25.667 34.5 45h12z" />
    <glyph glyph-name="ebreve" unicode="&#x115;" horiz-adv-x="435" 
d="M158.5 597c-20.333 20 -34.1689 48.333 -41.502 85l22 29h12c12.667 -58 43.334 -87 92.001 -87s79.334 29 92.001 87h12l23 -29c-18 -76.667 -61 -115 -129 -115c-34.667 0 -62.167 10 -82.5 30zM393.997 64l6 -6l-7 -58h-303l3 150l-3 348h305l5 -6l-6 -58l-126 4
l-104 -1l-1 -151l99 -1l87 3l5 -7l-6 -59l-92 3l-93 -1l-1 -68l1 -95l98 -1z" />
    <glyph glyph-name="Edotaccent" unicode="&#x116;" horiz-adv-x="482" 
d="M459 62l-6 -62h-360l5 193l-5 448h361l4 -8l-6 -62l-151 3l-127 -2l-2 -210l120 -2l106 3l6 -7l-7 -62l-112 2l-114 -1l-1 -95l3 -133l127 -1l154 4zM308 834c8 -8 12 -18.999 12 -32.999c0 -14.667 -4.16699 -26.334 -12.5 -35.001s-19.833 -13 -34.5 -13
c-14 0 -24.833 4 -32.5 12s-11.5 19.333 -11.5 34c0 14 4.16699 25.333 12.5 34s19.833 13 34.5 13c13.333 0 24 -4 32 -12z" />
    <glyph glyph-name="edotaccent" unicode="&#x117;" horiz-adv-x="435" 
d="M208.5 622c-7.66699 8 -11.5 19.334 -11.5 34.001c0 14 4.16699 25.333 12.5 34s19.833 13 34.5 13c13.333 0 24 -4 32 -12s12 -19 12 -33c0 -14.667 -4.16699 -26.334 -12.5 -35.001s-19.833 -13 -34.5 -13c-14 0 -24.833 4 -32.5 12zM394 64.001l6 -6l-7 -58h-303
l3 150l-3 348h305l5 -6l-6 -58l-126 4l-104 -1l-1 -151l99 -1l87 3l5 -7l-6 -59l-92 3l-93 -1l-1 -68l1 -95l98 -1z" />
    <glyph glyph-name="Eogonek" unicode="&#x118;" horiz-adv-x="482" 
d="M405 0c-38 -42.667 -62.501 -71.333 -73.501 -86s-16.5 -27.667 -16.5 -39c0 -21.333 12 -32 36 -32c22 0 46.667 13 74 39l5 -1l14 -42c-31.333 -32.667 -65 -49 -101 -49c-25.333 0 -45.666 6.5 -60.999 19.5s-23 30.833 -23 53.5c0 18.667 6.16699 37.5 18.5 56.5
s36.5 45.833 72.5 80.5h-257l5 193l-5 448h361l4 -8l-6 -62l-151 3l-127 -2l-2 -210l120 -2l106 3l6 -7l-7 -62l-112 2l-114 -1l-1 -95l3 -133l127 -1l154 4l5 -8l-6 -62h-48z" />
    <glyph glyph-name="eogonek" unicode="&#x119;" horiz-adv-x="435" 
d="M424 -168c-31.333 -32.667 -65 -49 -101 -49c-25.333 0 -45.666 6.5 -60.999 19.5s-23 30.833 -23 53.5c0 19.333 6.5 38.833 19.5 58.5s39.167 48.167 78.5 85.5h-247l3 150l-3 348h305l5 -6l-6 -58l-126 4l-104 -1l-1 -151l99 -1l87 3l5 -7l-6 -59l-92 3l-93 -1l-1 -68
l1 -95l98 -1l133 4l6 -6l-6 -49h5l-6 -6v-3h-2c-40.667 -45.333 -66.834 -75.833 -78.501 -91.5s-17.5 -29.167 -17.5 -40.5c0 -21.333 12 -32 36 -32c22 0 46.667 13 74 39l5 -1z" />
    <glyph glyph-name="Ecaron" unicode="&#x11a;" horiz-adv-x="482" 
d="M459 62l-6 -62h-360l5 193l-5 448h361l4 -8l-6 -62l-151 3l-127 -2l-2 -210l120 -2l106 3l6 -7l-7 -62l-112 2l-114 -1l-1 -95l3 -133l127 -1l154 4zM402 815c-48.667 -34 -87.332 -64.333 -115.999 -91h-22c-34.667 30 -73.667 60.333 -117 91l15 34h10
c42 -26 76 -48 102 -66c17.333 12 51.666 34 102.999 66h9z" />
    <glyph glyph-name="ecaron" unicode="&#x11b;" horiz-adv-x="435" 
d="M109 696l21.999 32h9c41.333 -39.333 75.333 -74 102 -104c25.333 28 59.333 62.667 102 104h10l22 -32c-38 -38 -78.667 -82.667 -122 -134h-24c-41.333 51.333 -81.666 96 -120.999 134zM393.999 64l6 -6l-7 -58h-303l3 150l-3 348h305l5 -6l-6 -58l-126 4l-104 -1
l-1 -151l99 -1l87 3l5 -7l-6 -59l-92 3l-93 -1l-1 -68l1 -95l98 -1z" />
    <glyph glyph-name="Gcircumflex" unicode="&#x11c;" horiz-adv-x="600" 
d="M538 601l-16.0029 -75.999l-10 -2c-32 20 -61.5 34.333 -88.5 43s-55.5 13 -85.5 13c-144.667 0 -217 -89.333 -217 -268c0 -86 16.833 -149.167 50.5 -189.5s85.834 -60.5 156.501 -60.5c18.667 0 37.5 1.66699 56.5 5s43.5 9.66602 73.5 18.999l2 75l-1 96l75 6l-2 -91
l4 -140c-43.333 -13.333 -81.666 -23 -114.999 -29s-65.666 -9 -96.999 -9c-95.333 0 -166.833 27 -214.5 81s-71.5 132 -71.5 234c0 110 27 193.833 81 251.5s131 86.5 231 86.5c67.333 0 130 -15 188 -45zM198.997 768.001c48.667 34 87.332 64.333 115.999 91h22
c34.667 -30 73.667 -60.333 117 -91l-15 -34h-10c-42 26 -76 48 -102 66c-17.333 -12 -51.666 -34 -102.999 -66h-9z" />
    <glyph glyph-name="gcircumflex" unicode="&#x11d;" horiz-adv-x="526" 
d="M146 595c38.667 38 79.334 82.667 122.001 134h24c41.333 -51.333 81.666 -96 120.999 -134l-22 -32h-9c-41.333 39.333 -75.333 74 -102 104c-25.333 -28 -59.333 -62.667 -102 -104h-10zM463 469l-25.001 -71.999h-9c-24.667 16 -47.334 27.167 -68.001 33.5
s-43 9.5 -67 9.5c-56.667 0 -99.167 -16 -127.5 -48s-42.5 -82 -42.5 -150c0 -65.333 13 -112.5 39 -141.5s67.333 -43.5 124 -43.5c16.667 0 32.667 1.5 48 4.5s34 8.5 56 16.5v50l-1 71l69 5v-180c-67.333 -20 -125.666 -30 -174.999 -30
c-78.667 0 -138.167 21.167 -178.5 63.5s-60.5 102.833 -60.5 181.5c0 85.333 22.833 150.666 68.5 195.999s109.834 68 192.501 68c52 0 104.333 -11.333 157 -34z" />
    <glyph glyph-name="Gbreve" unicode="&#x11e;" horiz-adv-x="600" 
d="M538 601l-16.0029 -75.999l-10 -2c-32 20 -61.5 34.333 -88.5 43s-55.5 13 -85.5 13c-144.667 0 -217 -89.333 -217 -268c0 -86 16.833 -149.167 50.5 -189.5s85.834 -60.5 156.501 -60.5c18.667 0 37.5 1.66699 56.5 5s43.5 9.66602 73.5 18.999l2 75l-1 96l75 6l-2 -91
l4 -140c-43.333 -13.333 -81.666 -23 -114.999 -29s-65.666 -9 -96.999 -9c-95.333 0 -166.833 27 -214.5 81s-71.5 132 -71.5 234c0 110 27 193.833 81 251.5s131 86.5 231 86.5c67.333 0 130 -15 188 -45zM452.997 815.001c-10 -28.667 -26.0029 -50.832 -48.0029 -66.499
s-48.667 -23.5 -80 -23.5c-30.667 0 -56.667 7.66699 -78 23s-36.666 37.666 -45.999 66.999l22 28h12c7.33301 -19.333 18.833 -34.333 34.5 -45s34.834 -16 57.501 -16s41.834 5.33301 57.501 16s27.167 25.667 34.5 45h12z" />
    <glyph glyph-name="gbreve" unicode="&#x11f;" horiz-adv-x="526" 
d="M407 682c-18 -76.667 -61.0029 -115 -129.003 -115c-34.667 0 -62.167 10 -82.5 30s-34.166 48.333 -41.499 85l22 29h12c12.667 -58 43.334 -87 92.001 -87s79.334 29 92.001 87h12zM462.997 469l-25.001 -71.999h-9c-24.667 16 -47.334 27.167 -68.001 33.5
s-43 9.5 -67 9.5c-56.667 0 -99.167 -16 -127.5 -48s-42.5 -82 -42.5 -150c0 -65.333 13 -112.5 39 -141.5s67.333 -43.5 124 -43.5c16.667 0 32.667 1.5 48 4.5s34 8.5 56 16.5v50l-1 71l69 5v-180c-67.333 -20 -125.666 -30 -174.999 -30
c-78.667 0 -138.167 21.167 -178.5 63.5s-60.5 102.833 -60.5 181.5c0 85.333 22.833 150.666 68.5 195.999s109.834 68 192.501 68c52 0 104.333 -11.333 157 -34z" />
    <glyph glyph-name="Gdotaccent" unicode="&#x120;" horiz-adv-x="600" 
d="M538 601l-16.0029 -75.999l-10 -2c-32 20 -61.5 34.333 -88.5 43s-55.5 13 -85.5 13c-144.667 0 -217 -89.333 -217 -268c0 -86 16.833 -149.167 50.5 -189.5s85.834 -60.5 156.501 -60.5c18.667 0 37.5 1.66699 56.5 5s43.5 9.66602 73.5 18.999l2 75l-1 96l75 6l-2 -91
l4 -140c-43.333 -13.333 -81.666 -23 -114.999 -29s-65.666 -9 -96.999 -9c-95.333 0 -166.833 27 -214.5 81s-71.5 132 -71.5 234c0 110 27 193.833 81 251.5s131 86.5 231 86.5c67.333 0 130 -15 188 -45zM359.997 834.001c8 -8 12 -18.999 12 -32.999
c0 -14.667 -4.16699 -26.334 -12.5 -35.001s-19.833 -13 -34.5 -13c-14 0 -24.833 4 -32.5 12s-11.5 19.333 -11.5 34c0 14 4.16699 25.333 12.5 34s19.833 13 34.5 13c13.333 0 24 -4 32 -12z" />
    <glyph glyph-name="gdotaccent" unicode="&#x121;" horiz-adv-x="526" 
d="M313 691c8 -8 12 -18.999 12 -32.999c0 -14.667 -4.16699 -26.334 -12.5 -35.001s-19.833 -13 -34.5 -13c-14 0 -24.833 4 -32.5 12s-11.5 19.333 -11.5 34c0 14 4.16699 25.333 12.5 34s19.833 13 34.5 13c13.333 0 24 -4 32 -12zM463 469.001l-25.001 -71.999h-9
c-24.667 16 -47.334 27.167 -68.001 33.5s-43 9.5 -67 9.5c-56.667 0 -99.167 -16 -127.5 -48s-42.5 -82 -42.5 -150c0 -65.333 13 -112.5 39 -141.5s67.333 -43.5 124 -43.5c16.667 0 32.667 1.5 48 4.5s34 8.5 56 16.5v50l-1 71l69 5v-180
c-67.333 -20 -125.666 -30 -174.999 -30c-78.667 0 -138.167 21.167 -178.5 63.5s-60.5 102.833 -60.5 181.5c0 85.333 22.833 150.666 68.5 195.999s109.834 68 192.501 68c52 0 104.333 -11.333 157 -34z" />
    <glyph glyph-name="Gcommaaccent" unicode="&#x122;" horiz-adv-x="600" 
d="M538 601l-16.0029 -75.999l-10 -2c-32 20 -61.5 34.333 -88.5 43s-55.5 13 -85.5 13c-144.667 0 -217 -89.333 -217 -268c0 -86 16.833 -149.167 50.5 -189.5s85.834 -60.5 156.501 -60.5c18.667 0 37.5 1.66699 56.5 5s43.5 9.66602 73.5 18.999l2 75l-1 96l75 6l-2 -91
l4 -140c-43.333 -13.333 -81.666 -23 -114.999 -29s-65.666 -9 -96.999 -9c-95.333 0 -166.833 27 -214.5 81s-71.5 132 -71.5 234c0 110 27 193.833 81 251.5s131 86.5 231 86.5c67.333 0 130 -15 188 -45zM364.997 -117.999c0 -40.667 -29.333 -82.332 -88 -124.999
l-25 23v7c34 26.667 51 54 51 82c0 16.667 -9.66699 31 -29 43v8c16.667 11.333 33.667 19.333 51 24c26.667 -16.667 40 -37.334 40 -62.001z" />
    <glyph glyph-name="gcommaaccent" unicode="&#x123;" horiz-adv-x="526" 
d="M463 469l-25.001 -71.999h-9c-24.667 16 -47.334 27.167 -68.001 33.5s-43 9.5 -67 9.5c-56.667 0 -99.167 -16 -127.5 -48s-42.5 -82 -42.5 -150c0 -65.333 13 -112.5 39 -141.5s67.333 -43.5 124 -43.5c16.667 0 32.667 1.5 48 4.5s34 8.5 56 16.5v50l-1 71l69 5v-180
c-67.333 -20 -125.666 -30 -174.999 -30c-78.667 0 -138.167 21.167 -178.5 63.5s-60.5 102.833 -60.5 181.5c0 85.333 22.833 150.666 68.5 195.999s109.834 68 192.501 68c52 0 104.333 -11.333 157 -34zM324.999 -117.999c0 -40.667 -29.333 -82.332 -88 -124.999l-25 23
v7c34 26.667 51 54 51 82c0 16.667 -9.66699 31 -29 43v8c16.667 11.333 33.667 19.333 51 24c26.667 -16.667 40 -37.334 40 -62.001z" />
    <glyph glyph-name="Hcircumflex" unicode="&#x124;" horiz-adv-x="684" 
d="M586 200l2 -200h-79l4 193l-1 96l-178 1l-163 -1l-1 -89l3 -200h-79l3 193l-3 448h80l-3 -284l170 -1l171 1l-3 284h81zM215 768c48.667 34 87.332 64.333 115.999 91h22c34.667 -30 73.667 -60.333 117 -91l-15 -34h-10c-42 26 -76 48 -102 66
c-17.333 -12 -51.666 -34 -102.999 -66h-9z" />
    <glyph glyph-name="hcircumflex" unicode="&#x125;" horiz-adv-x="596" 
d="M188 563l-22 31.999c38.667 38.667 79.334 83.334 122.001 134.001h24c41.333 -51.333 81.666 -96 120.999 -134l-22 -32h-9c-41.333 39.333 -75.333 74 -102 104c-25.333 -28 -59.333 -62.667 -102 -104h-10zM504 155.999l2 -156h-74l3 150l-1 68l-271 -1l-1 -61l2 -156
h-74l3 150l-3 348h75l-2 -214l135 -1l136 1l-2 214h75z" />
    <glyph glyph-name="Hbar" unicode="&#x126;" horiz-adv-x="715" 
d="M603 478l-2 -278l1 -200h-79l4 193l-1 96l-178 1l-163 -1l-1 -89l3 -200h-79l3 193l-2 285h-64l-5 4l4 52h65l-1 107h80l-1 -107h337l-1 107h81l-1 -107h67l5 -6l-4 -50h-68zM524 478h-337l-2 -121l170 -1l171 1z" />
    <glyph glyph-name="hbar" unicode="&#x127;" horiz-adv-x="621" 
d="M515 364l-2 -208l3 -156h-75l3 150l-1 68l-271 -1l-1 -61l3 -156h-75l3 150l-2 214h-52l-4 6l5 42h51l-1 86h76l-1 -86h268l-1 86h76l-1 -86h56l4 -4l-4 -44h-57zM442 364h-269l-1 -80l136 -1l135 1z" />
    <glyph glyph-name="Imacron" unicode="&#x12a;" horiz-adv-x="268" 
d="M170 200l4 -200h-81l5 193l-5 448h82zM247 812l-4 -47h-217l-5 6l4 46h217z" />
    <glyph glyph-name="imacron" unicode="&#x12b;" horiz-adv-x="259" 
d="M244 669l-4 -47h-217l-5 6l4 46h217zM162 156l2 -156h-74l3 150l-3 348h75z" />
    <glyph glyph-name="Ibreve" unicode="&#x12c;" horiz-adv-x="268" 
d="M170 200l4 -200h-81l5 193l-5 448h82zM261 815c-10 -28.667 -26.0029 -50.832 -48.0029 -66.499s-48.667 -23.5 -80 -23.5c-30.667 0 -56.667 7.66699 -78 23s-36.666 37.666 -45.999 66.999l22 28h12c7.33301 -19.333 18.833 -34.333 34.5 -45s34.834 -16 57.501 -16
s41.834 5.33301 57.501 16s27.167 25.667 34.5 45h12z" />
    <glyph glyph-name="ibreve" unicode="&#x12d;" horiz-adv-x="259" 
d="M259 682c-18 -76.667 -61.0029 -115 -129.003 -115c-34.667 0 -62.167 10 -82.5 30s-34.166 48.333 -41.499 85l22 29h12c12.667 -58 43.334 -87 92.001 -87s79.334 29 92.001 87h12zM161.997 156l2 -156h-74l3 150l-3 348h75z" />
    <glyph glyph-name="Iogonek" unicode="&#x12e;" horiz-adv-x="268" 
d="M170 200l4 -200h-81l5 193l-5 448h82zM101.5 -85.5c-10.333 -13.667 -15.501 -25.167 -15.501 -34.5c0 -15.333 8 -23 24 -23c18.667 0 37.334 11.667 56.001 35h5l16 -39c-23.333 -31.333 -52.333 -47 -87 -47c-20.667 0 -37 5.5 -49 16.5s-18 25.833 -18 44.5
c0 17.333 6.33301 35.333 19 54s35.667 45 69 79h53c-38 -43.333 -62.167 -71.833 -72.5 -85.5z" />
    <glyph glyph-name="iogonek" unicode="&#x12f;" horiz-adv-x="259" 
d="M177 -147c-23.333 -31.333 -52.334 -47 -87.001 -47c-20.667 0 -37 5.5 -49 16.5s-18 25.833 -18 44.5c0 17.333 6.33301 35.333 19 54s35.667 45 69 79h-21l3 150l-3 348h75l-3 -342l2 -156c-38 -43.333 -62.167 -71.833 -72.5 -85.5s-15.5 -25.167 -15.5 -34.5
c0 -15.333 8 -23 24 -23c18.667 0 37.334 11.667 56.001 35h5z" />
    <glyph glyph-name="Idotaccent" unicode="&#x130;" horiz-adv-x="268" 
d="M170 200l4 -200h-81l5 193l-5 448h82zM168 834c8 -8 12 -18.999 12 -32.999c0 -14.667 -4.16699 -26.334 -12.5 -35.001s-19.833 -13 -34.5 -13c-14 0 -24.833 4 -32.5 12s-11.5 19.333 -11.5 34c0 14 4.16699 25.333 12.5 34s19.833 13 34.5 13c13.333 0 24 -4 32 -12z
" />
    <glyph glyph-name="dotlessi" unicode="&#x131;" horiz-adv-x="259" 
d="M162 156l2 -156h-74l3 150l-3 348h75z" />
    <glyph glyph-name="IJ" unicode="&#x132;" horiz-adv-x="578" 
d="M170 200l4 -200h-81l5 193l-5 448h82zM481 212l2 -94c0 -50.667 -12.667 -92.5 -38 -125.5s-69.333 -64.5 -132 -94.5l-31 45v10c46 24.667 78.667 49 98 73s29 54.333 29 91v87l-4 372l-123 -1l-8 7l5 59h206z" />
    <glyph glyph-name="ij" unicode="&#x133;" horiz-adv-x="548" 
d="M165 498l-3 -342l2 -156h-74l3 150l-3 348h75zM453 165v-72c0 -40.667 -9.16699 -74 -27.5 -100s-50.833 -50.333 -97.5 -73l-30 39v7c31.333 17.333 53.5 35.5 66.5 54.5s19.5 42.833 19.5 71.5v64l-2 285l-95 -1l-5 6l5 52h169z" />
    <glyph glyph-name="Jcircumflex" unicode="&#x134;" horiz-adv-x="310" 
d="M213 212l2 -94c0 -50.667 -12.667 -92.5 -38 -125.5s-69.333 -64.5 -132 -94.5l-31 45v10c46 24.667 78.667 49 98 73s29 54.333 29 91v87l-4 372l-123 -1l-8 7l5 59h206zM6 768c48.667 34 87.332 64.333 115.999 91h22c34.667 -30 73.667 -60.333 117 -91l-15 -34h-10
c-42 26 -76 48 -102 66c-17.333 -12 -51.666 -34 -102.999 -66h-9z" />
    <glyph glyph-name="jcircumflex" unicode="&#x135;" horiz-adv-x="289" 
d="M246 595l-22 -32.001h-9c-41.333 39.333 -75.333 74 -102 104c-25.333 -28 -59.333 -62.667 -102 -104h-10l-22 32c38.667 38.667 79.334 83.334 122.001 134.001h24c41.333 -51.333 81.666 -96 120.999 -134zM194 164.999v-72c0 -40.667 -9.16699 -74 -27.5 -100
s-50.833 -50.333 -97.5 -73l-30 39v7c31.333 17.333 53.5 35.5 66.5 54.5s19.5 42.833 19.5 71.5v64l-2 285l-95 -1l-5 6l5 52h169z" />
    <glyph glyph-name="Kcommaaccent" unicode="&#x136;" horiz-adv-x="547" 
d="M170 200l3 -200h-79l3 193l-3 448h80zM269 340c88.667 -114.667 181.333 -222.332 278 -322.999l-1 -10c-20 -6 -45 -11.333 -75 -16l-10 5c-105.333 119.333 -197.333 232.666 -276 339.999v6l214 243l40 56h90zM344.999 -117.998
c0 -40.667 -29.333 -82.332 -88 -124.999l-25 23v7c34 26.667 51 54 51 82c0 16.667 -9.66699 31 -29 43v8c16.667 11.333 33.667 19.333 51 24c26.667 -16.667 40 -37.334 40 -62.001z" />
    <glyph glyph-name="kcommaaccent" unicode="&#x137;" horiz-adv-x="490" 
d="M252 265c70.667 -86.667 145.667 -169.333 225 -248l-2 -11c-20.667 -6.66699 -44.667 -11.667 -72 -15l-12 5c-85.333 96 -159 184 -221 264v6l172 188l33 44l89 1zM162 156.001l2 -156h-74l3 150l-3 348h75zM296 -117.999c0 -40.667 -29.333 -82.332 -88 -124.999
l-25 23v7c34 26.667 51 54 51 82c0 16.667 -9.66699 31 -29 43v8c16.667 11.333 33.667 19.333 51 24c26.667 -16.667 40 -37.334 40 -62.001z" />
    <glyph glyph-name="kgreenlandic" unicode="&#x138;" horiz-adv-x="490" 
d="M252 265c70.667 -86.667 145.667 -169.333 225 -248l-2 -11c-20.667 -6.66699 -44.667 -11.667 -72 -15l-12 5c-85.333 96 -159 184 -221 264v6l172 188l33 44l89 1zM162 156.001l2 -156h-74l3 150l-3 348h75z" />
    <glyph glyph-name="Lacute" unicode="&#x139;" horiz-adv-x="416" 
d="M413 60l-7 -60h-316l5 193l-5 448h82l-5 -441l3 -133h237zM245 862l19.999 -47l-2 -8c-63.333 -29.333 -128.666 -58 -195.999 -86l-9 4l-14 36c70 34.667 133.667 69 191 103z" />
    <glyph glyph-name="lacute" unicode="&#x13a;" horiz-adv-x="377" 
d="M255 686c-66 -51.333 -122.667 -93.666 -170 -126.999l-9 1l-22 32c65.333 53.333 120 101.666 164 144.999l9 -1l30 -42zM358 56l-5 -56h-265l3 150l-3 348h75l-3 -342l2 -93h192z" />
    <glyph glyph-name="Lcommaaccent" unicode="&#x13b;" horiz-adv-x="416" 
d="M413 60l-7 -60h-316l5 193l-5 448h82l-5 -441l3 -133h237zM293 -118c0 -40.667 -29.333 -82.332 -88 -124.999l-25 23v7c34 26.667 51 54 51 82c0 16.667 -9.66699 31 -29 43v8c16.667 11.333 33.667 19.333 51 24c26.667 -16.667 40 -37.334 40 -62.001z" />
    <glyph glyph-name="lcommaaccent" unicode="&#x13c;" horiz-adv-x="377" 
d="M358 56l-5 -56h-265l3 150l-3 348h75l-3 -342l2 -93h192zM296 -118c0 -40.667 -29.333 -82.332 -88 -124.999l-25 23v7c34 26.667 51 54 51 82c0 16.667 -9.66699 31 -29 43v8c16.667 11.333 33.667 19.333 51 24c26.667 -16.667 40 -37.334 40 -62.001z" />
    <glyph glyph-name="Lcaron" unicode="&#x13d;" horiz-adv-x="446" 
d="M413 60l-7 -60h-316l5 193l-5 448h82l-5 -441l3 -133h237zM319 398l-7 6l5 175l57 4l6 -7l-23 -172z" />
    <glyph glyph-name="lcaron" unicode="&#x13e;" horiz-adv-x="388" 
d="M358 56l-5 -56h-265l3 150l-3 348h75l-3 -342l2 -93h192zM286 292l-6 6l4 175l58 4l5 -7l-23 -172z" />
    <glyph glyph-name="Ldot" unicode="&#x13f;" horiz-adv-x="416" 
d="M413 60l-7 -60h-316l5 193l-5 448h82l-5 -441l3 -133h237zM371 413c8 -8 12 -18.999 12 -32.999c0 -14.667 -4.16699 -26.334 -12.5 -35.001s-19.833 -13 -34.5 -13c-14 0 -24.833 4 -32.5 12s-11.5 19.333 -11.5 34c0 14 4.16699 25.333 12.5 34s19.833 13 34.5 13
c13.333 0 24 -4 32 -12z" />
    <glyph glyph-name="ldot" unicode="&#x140;" horiz-adv-x="387" 
d="M358 56l-5 -56h-265l3 150l-3 348h75l-3 -342l2 -93h192zM252.5 254c-7.66699 8 -11.5 19.333 -11.5 34c0 14 4.16699 25.333 12.5 34s19.833 13 34.5 13c14 0 24.833 -4 32.5 -12s11.5 -18.667 11.5 -32c0 -15.333 -4.16699 -27.333 -12.5 -36s-19.833 -13 -34.5 -13
c-14 0 -24.833 4 -32.5 12z" />
    <glyph glyph-name="Lslash" unicode="&#x141;" horiz-adv-x="429" 
d="M427 60l-7 -60h-316l5 193l-1 96l-73 -39l-10 5l-15 48l97 51l-3 287h81l-2 -247l130 68l9 -4l15 -47l-155 -83l-1 -128l3 -133h237z" />
    <glyph glyph-name="lslash" unicode="&#x142;" horiz-adv-x="396" 
d="M375 56l-6 -56h-265l3 150l-1 69l-64 -30l-8 5l-13 44l85 39l-2 221h76l-2 -187l101 47l6 -3l14 -45l-122 -57l-1 -97l2 -93h192z" />
    <glyph glyph-name="Nacute" unicode="&#x143;" horiz-adv-x="683" 
d="M585 188l2 -188h-84l-332 513h-5l-1 -302l1 -211h-72l3 190l-2 451h83l331 -513h7l-1 509l75 6zM450 862l19.999 -47l-2 -8c-63.333 -29.333 -128.666 -58 -195.999 -86l-9 4l-14 36c70 34.667 133.667 69 191 103z" />
    <glyph glyph-name="nacute" unicode="&#x144;" horiz-adv-x="596" 
d="M396 736l30 -42l-2 -8c-66 -51.333 -122.667 -93.666 -170 -126.999l-9 1l-22 32c65.333 53.333 120 101.666 164 144.999zM503 149l1 -149h-80l-262 380h-5l-1 -214l2 -166h-68l3 147l-2 351h79l262 -380h7l-2 377l69 5z" />
    <glyph glyph-name="Ncommaaccent" unicode="&#x145;" horiz-adv-x="683" 
d="M585 188l2 -188h-84l-332 513h-5l-1 -302l1 -211h-72l3 190l-2 451h83l331 -513h7l-1 509l75 6zM396 -118c0 -40.667 -29.333 -82.332 -88 -124.999l-25 23v7c34 26.667 51 54 51 82c0 16.667 -9.66699 31 -29 43v8c16.667 11.333 33.667 19.333 51 24
c26.667 -16.667 40 -37.334 40 -62.001z" />
    <glyph glyph-name="ncommaaccent" unicode="&#x146;" horiz-adv-x="596" 
d="M503 149l1 -149h-80l-262 380h-5l-1 -214l2 -166h-68l3 147l-2 351h79l262 -380h7l-2 377l69 5zM353 -118c0 -40.667 -29.333 -82.332 -88 -124.999l-25 23v7c34 26.667 51 54 51 82c0 16.667 -9.66699 31 -29 43v8c16.667 11.333 33.667 19.333 51 24
c26.667 -16.667 40 -37.334 40 -62.001z" />
    <glyph glyph-name="Ncaron" unicode="&#x147;" horiz-adv-x="683" 
d="M585 188l2 -188h-84l-332 513h-5l-1 -302l1 -211h-72l3 190l-2 451h83l331 -513h7l-1 509l75 6zM467 815c-48.667 -34 -87.332 -64.333 -115.999 -91h-22c-34.667 30 -73.667 60.333 -117 91l15 34h10c42 -26 76 -48 102 -66c17.333 12 51.666 34 102.999 66h9z" />
    <glyph glyph-name="ncaron" unicode="&#x148;" horiz-adv-x="596" 
d="M430 696c-38 -38.667 -78.668 -83.333 -122.001 -134h-24c-41.333 51.333 -81.666 96 -120.999 134l22 32h9c41.333 -39.333 75.333 -74 102 -104c25.333 28 59.333 62.667 102 104h10zM502.999 149.001l1 -149h-80l-262 380h-5l-1 -214l2 -166h-68l3 147l-2 351h79
l262 -380h7l-2 377l69 5z" />
    <glyph glyph-name="Eng" unicode="&#x14a;" horiz-adv-x="683" 
d="M585 188l1 -132c0 -49.333 -12.667 -90.333 -38 -123s-69.333 -63.667 -132 -93l-31 44v10c33.333 18 59.333 35.333 78 52s32 35 40 55l-331 512h-6l-1 -302l3 -211h-75l5 190l-3 451h84l330 -512h7l-1 508l76 6z" />
    <glyph glyph-name="eng" unicode="&#x14b;" horiz-adv-x="596" 
d="M503 149l1 -111c0 -38 -8.16699 -69.167 -24.5 -93.5s-44.833 -47.5 -85.5 -69.5l-26 32v9c18.667 12.667 33.167 25.667 43.5 39s16.833 28 19.5 44l-269 381h-6v-214l2 -166h-68l4 147l-3 351h79l262 -372h7l-2 369l69 5z" />
    <glyph glyph-name="Omacron" unicode="&#x14c;" horiz-adv-x="635" 
d="M527.5 566c47 -54 70.5 -131.667 70.5 -233c0 -109.333 -25 -193.5 -75 -252.5s-121.333 -88.5 -214 -88.5c-86.667 0 -153.5 28 -200.5 84s-70.5 135.667 -70.5 239c0 106.667 24.833 188.667 74.5 246s120.5 86 212.5 86c88 0 155.5 -27 202.5 -81zM120 324
c0 -91.333 16.167 -158.999 48.5 -202.999s81.166 -66 146.499 -66c133.333 0 200 87.667 200 263c0 89.333 -16.167 155.666 -48.5 198.999s-81.166 65 -146.499 65c-133.333 0 -200 -86 -200 -258zM466 812.001l-5 -47h-283l-6 6l4 46h283z" />
    <glyph glyph-name="omacron" unicode="&#x14d;" horiz-adv-x="557" 
d="M427 669l-5 -47h-283l-6 6l4 46h283zM453.5 440c39 -42.667 58.5 -103.001 58.5 -181.001c0 -84.667 -20.833 -150.167 -62.5 -196.5s-101.167 -69.5 -178.5 -69.5c-72 0 -127.667 21.833 -167 65.5s-59 105.834 -59 186.501c0 82.667 21 146.5 63 191.5
s101.333 67.5 178 67.5c72.667 0 128.5 -21.333 167.5 -64zM161.5 395.999c-25.667 -30 -38.498 -77.333 -38.498 -142c0 -69.333 12.667 -119.666 38 -150.999s64 -47 116 -47c53.333 0 93 15.333 119 46s39 78.667 39 144c0 67.333 -12.833 116.666 -38.5 147.999
s-64.834 47 -117.501 47s-91.834 -15 -117.501 -45z" />
    <glyph glyph-name="Obreve" unicode="&#x14e;" horiz-adv-x="635" 
d="M527.5 566c47 -54 70.5 -131.667 70.5 -233c0 -109.333 -25 -193.5 -75 -252.5s-121.333 -88.5 -214 -88.5c-86.667 0 -153.5 28 -200.5 84s-70.5 135.667 -70.5 239c0 106.667 24.833 188.667 74.5 246s120.5 86 212.5 86c88 0 155.5 -27 202.5 -81zM120 324
c0 -91.333 16.167 -158.999 48.5 -202.999s81.166 -66 146.499 -66c133.333 0 200 87.667 200 263c0 89.333 -16.167 155.666 -48.5 198.999s-81.166 65 -146.499 65c-133.333 0 -200 -86 -200 -258zM446 815.001c-10 -28.667 -26.0029 -50.832 -48.0029 -66.499
s-48.667 -23.5 -80 -23.5c-30.667 0 -56.667 7.66699 -78 23s-36.666 37.666 -45.999 66.999l22 28h12c7.33301 -19.333 18.833 -34.333 34.5 -45s34.834 -16 57.501 -16s41.834 5.33301 57.501 16s27.167 25.667 34.5 45h12z" />
    <glyph glyph-name="obreve" unicode="&#x14f;" horiz-adv-x="557" 
d="M408 682c-18 -76.667 -61.0029 -115 -129.003 -115c-34.667 0 -62.167 10 -82.5 30s-34.166 48.333 -41.499 85l22 29h12c12.667 -58 43.334 -87 92.001 -87s79.334 29 92.001 87h12zM453.497 440c39 -42.667 58.5 -103.001 58.5 -181.001
c0 -84.667 -20.833 -150.167 -62.5 -196.5s-101.167 -69.5 -178.5 -69.5c-72 0 -127.667 21.833 -167 65.5s-59 105.834 -59 186.501c0 82.667 21 146.5 63 191.5s101.333 67.5 178 67.5c72.667 0 128.5 -21.333 167.5 -64zM161.497 395.999
c-25.667 -30 -38.498 -77.333 -38.498 -142c0 -69.333 12.667 -119.666 38 -150.999s64 -47 116 -47c53.333 0 93 15.333 119 46s39 78.667 39 144c0 67.333 -12.833 116.666 -38.5 147.999s-64.834 47 -117.501 47s-91.834 -15 -117.501 -45z" />
    <glyph glyph-name="Ohungarumlaut" unicode="&#x150;" horiz-adv-x="635" 
d="M527.5 566c47 -54 70.5 -131.667 70.5 -233c0 -109.333 -25 -193.5 -75 -252.5s-121.333 -88.5 -214 -88.5c-86.667 0 -153.5 28 -200.5 84s-70.5 135.667 -70.5 239c0 106.667 24.833 188.667 74.5 246s120.5 86 212.5 86c88 0 155.5 -27 202.5 -81zM120 324
c0 -91.333 16.167 -158.999 48.5 -202.999s81.166 -66 146.499 -66c133.333 0 200 87.667 200 263c0 89.333 -16.167 155.666 -48.5 198.999s-81.166 65 -146.499 65c-133.333 0 -200 -86 -200 -258zM315 864.001h9l36 -25v-9c-24 -24 -63.333 -60.667 -118 -110l-9 -1
l-26 24c48 52 84 92.333 108 121zM458 864.001h8l37 -25v-9l-86 -81l-32 -29l-9 -1l-26 24c48 52 84 92.333 108 121z" />
    <glyph glyph-name="ohungarumlaut" unicode="&#x151;" horiz-adv-x="557" 
d="M280 737l7 1.00098l37 -27v-8c-42 -44 -90 -91.667 -144 -143l-9 -1l-26 24c31.333 33.333 76.333 84.666 135 153.999zM421 737.001l8 1l37 -27l-1 -8c-42 -44 -90 -91.667 -144 -143l-8 -1l-27 24c36.667 38.667 81.667 90 135 154zM453.5 440.001
c39 -42.667 58.5 -103.001 58.5 -181.001c0 -84.667 -20.833 -150.167 -62.5 -196.5s-101.167 -69.5 -178.5 -69.5c-72 0 -127.667 21.833 -167 65.5s-59 105.834 -59 186.501c0 82.667 21 146.5 63 191.5s101.333 67.5 178 67.5c72.667 0 128.5 -21.333 167.5 -64z
M161.5 396c-25.667 -30 -38.498 -77.333 -38.498 -142c0 -69.333 12.667 -119.666 38 -150.999s64 -47 116 -47c53.333 0 93 15.333 119 46s39 78.667 39 144c0 67.333 -12.833 116.666 -38.5 147.999s-64.834 47 -117.501 47s-91.834 -15 -117.501 -45z" />
    <glyph glyph-name="OE" unicode="&#x152;" horiz-adv-x="851" 
d="M444 647c36 -4 62.666 -6 79.999 -6h298l5 -8l-6 -62l-144 3h-135l-1 -212l114 -2l113 3l5 -7l-7 -62l-117 2l-110 -1v-100l1 -128l125 -1l157 4l6 -8l-7 -62h-297c-16.667 0.666992 -35.167 0 -55.5 -2s-33.166 -3.33301 -38.499 -4c-40 -4 -70 -6 -90 -6
c-96 0 -170.333 28.667 -223 86s-79 138 -79 242c0 106.667 27.667 189.5 83 248.5s133.333 88.5 234 88.5c22 0 51.667 -2 89 -6zM177.999 519c-38.667 -44.667 -57.999 -110.667 -57.999 -198c0 -178 76 -267 228 -267c17.333 0 35.166 1.16699 53.499 3.5
s31.833 4.5 40.5 6.5c9.33301 3.33301 15.833 7.5 19.5 12.5s5.5 12.5 5.5 22.5l-4 437c0 12 -1 20.833 -3 26.5s-5.66699 9.16699 -11 10.5c-7.33301 3.33301 -20.833 6.33301 -40.5 9s-39.5 4 -59.5 4c-75.333 0 -132.333 -22.333 -171 -67z" />
    <glyph glyph-name="oe" unicode="&#x153;" horiz-adv-x="736" 
d="M384 502c29.333 -2.66699 51.333 -4 66 -4h249l4 -6l-5 -58l-121 4h-109v-152l92 -1l93 3l5 -7l-6 -59l-97 3l-89 -1v-164h102l130 4l5 -6l-7 -58h-246c-15.333 0 -40.333 -1.33301 -75 -4c-30 -3.33301 -56.667 -5 -80 -5c-80 0 -141.667 22.167 -185 66.5
s-65 106.833 -65 187.5c0 82.667 23.167 147 69.5 193s110.833 69 193.5 69c24 0 49.333 -1.66699 76 -5zM167.5 395c-29.667 -31.333 -44.5 -79.666 -44.5 -144.999c0 -66.667 14.667 -116 44 -148s74.333 -48 135 -48c14.667 0 29.5 1 44.5 3s25.5 4.33301 31.5 7
c7.33301 2 12.166 5 14.499 9s3.5 10.333 3.5 19l-3 309c0 10 -0.666992 17.167 -2 21.5s-4 7.16602 -8 8.49902c-7.33301 2.66699 -18.666 5.16699 -33.999 7.5s-31 3.5 -47 3.5c-60 0 -104.833 -15.667 -134.5 -47z" />
    <glyph glyph-name="Racute" unicode="&#x154;" horiz-adv-x="555" 
d="M520 19l-1 -9.99902c-24 -9.33301 -48.667 -15.333 -74 -18l-11 7c-54.667 82 -103.667 162 -147 240h-117v-38l4 -200h-81l5 193l-5 448l196 1c62.667 0 111.167 -15.833 145.5 -47.5s51.5 -76.834 51.5 -135.501c0 -44 -11.5 -83.5 -34.5 -118.5
s-55.5 -62.167 -97.5 -81.5c44 -72.667 99.333 -152.667 166 -240zM171 306.001l120 -2.99902c74.667 21.333 112 71 112 149c0 40.667 -11 71.167 -33 91.5s-55 31.166 -99 32.499l-97 -3zM377 879.002l30 -42l-2 -8c-66 -51.333 -122.667 -93.666 -170 -126.999l-9 1
l-22 32c65.333 53.333 120 101.666 164 144.999z" />
    <glyph glyph-name="racute" unicode="&#x155;" horiz-adv-x="496" 
d="M180 560l-22 32c65.333 53.333 120 101.666 164 144.999l9 -1l30 -42l-2 -8c-66 -51.333 -122.667 -93.666 -170 -126.999zM454 18l-1.00098 -9.99902c-28 -8.66699 -51 -13.667 -69 -15l-13 8c-50.667 76.667 -89 137 -115 181l-94 -1v-25l2 -156h-74l3 150l-3 348
l170 1c52.667 0 93.167 -12.333 121.5 -37s42.5 -60.334 42.5 -107.001c0 -34 -9.16699 -64.333 -27.5 -91s-44.166 -47.667 -77.499 -63c40.667 -62 85.667 -123 135 -183zM162.999 243.001l93.999 -3c59.333 16.667 89 53 89 109c0 29.333 -8.66699 51.333 -26 66
s-43.666 22.667 -78.999 24l-77 -1z" />
    <glyph glyph-name="Rcommaaccent" unicode="&#x156;" horiz-adv-x="555" 
d="M520 19l-1 -9.99902c-24 -9.33301 -48.667 -15.333 -74 -18l-11 7c-54.667 82 -103.667 162 -147 240h-117v-38l4 -200h-81l5 193l-5 448l196 1c62.667 0 111.167 -15.833 145.5 -47.5s51.5 -76.834 51.5 -135.501c0 -44 -11.5 -83.5 -34.5 -118.5
s-55.5 -62.167 -97.5 -81.5c44 -72.667 99.333 -152.667 166 -240zM171 306.001l120 -2.99902c74.667 21.333 112 71 112 149c0 40.667 -11 71.167 -33 91.5s-55 31.166 -99 32.499l-97 -3zM336 -117.998c0 -40.667 -29.333 -82.332 -88 -124.999l-25 23v7
c34 26.667 51 54 51 82c0 16.667 -9.66699 31 -29 43v8c16.667 11.333 33.667 19.333 51 24c26.667 -16.667 40 -37.334 40 -62.001z" />
    <glyph glyph-name="rcommaaccent" unicode="&#x157;" horiz-adv-x="496" 
d="M454 18l-1.00098 -9.99902c-28 -8.66699 -51 -13.667 -69 -15l-13 8c-50.667 76.667 -89 137 -115 181l-94 -1v-25l2 -156h-74l3 150l-3 348l170 1c52.667 0 93.167 -12.333 121.5 -37s42.5 -60.334 42.5 -107.001c0 -34 -9.16699 -64.333 -27.5 -91
s-44.166 -47.667 -77.499 -63c40.667 -62 85.667 -123 135 -183zM162.999 243.001l93.999 -3c59.333 16.667 89 53 89 109c0 29.333 -8.66699 51.333 -26 66s-43.666 22.667 -78.999 24l-77 -1zM288.998 -117.999c0 -40.667 -29.333 -82.332 -88 -124.999l-25 23v7
c34 26.667 51 54 51 82c0 16.667 -9.66699 31 -29 43v8c16.667 11.333 33.667 19.333 51 24c26.667 -16.667 40 -37.334 40 -62.001z" />
    <glyph glyph-name="Rcaron" unicode="&#x158;" horiz-adv-x="555" 
d="M520 19l-1 -9.99902c-24 -9.33301 -48.667 -15.333 -74 -18l-11 7c-54.667 82 -103.667 162 -147 240h-117v-38l4 -200h-81l5 193l-5 448l196 1c62.667 0 111.167 -15.833 145.5 -47.5s51.5 -76.834 51.5 -135.501c0 -44 -11.5 -83.5 -34.5 -118.5
s-55.5 -62.167 -97.5 -81.5c44 -72.667 99.333 -152.667 166 -240zM171 306.001l120 -2.99902c74.667 21.333 112 71 112 149c0 40.667 -11 71.167 -33 91.5s-55 31.166 -99 32.499l-97 -3zM406 815.002c-48.667 -34 -87.332 -64.333 -115.999 -91h-22
c-34.667 30 -73.667 60.333 -117 91l15 34h10c42 -26 76 -48 102 -66c17.333 12 51.666 34 102.999 66h9z" />
    <glyph glyph-name="rcaron" unicode="&#x159;" horiz-adv-x="496" 
d="M98 696l22 32.001h9c41.333 -39.333 75.333 -74 102 -104c25.333 28 59.333 62.667 102 104h10l22 -32c-38.667 -38.667 -79.334 -83.334 -122.001 -134.001h-24c-41.333 51.333 -81.666 96 -120.999 134zM454 18.001l-1.00098 -9.99902
c-28 -8.66699 -51 -13.667 -69 -15l-13 8c-50.667 76.667 -89 137 -115 181l-94 -1v-25l2 -156h-74l3 150l-3 348l170 1c52.667 0 93.167 -12.333 121.5 -37s42.5 -60.334 42.5 -107.001c0 -34 -9.16699 -64.333 -27.5 -91s-44.166 -47.667 -77.499 -63
c40.667 -62 85.667 -123 135 -183zM162.999 243.002l93.999 -3c59.333 16.667 89 53 89 109c0 29.333 -8.66699 51.333 -26 66s-43.666 22.667 -78.999 24l-77 -1z" />
    <glyph glyph-name="Sacute" unicode="&#x15a;" horiz-adv-x="472" 
d="M410 616l-13.0049 -77.0029l-14 -4c-19.333 14.667 -39.833 26 -61.5 34s-43.167 12 -64.5 12c-24.667 0 -46.167 -5 -64.5 -15s-32.333 -23 -42 -39s-14.5 -32.667 -14.5 -50c0 -18 5.5 -33.833 16.5 -47.5s24.833 -25.5 41.5 -35.5s39.334 -22 68.001 -36
c36 -16.667 65 -32.167 87 -46.5s40.833 -32.5 56.5 -54.5s23.5 -48.667 23.5 -80c0 -33.333 -9 -64 -27 -92s-43.333 -50.333 -76 -67s-70 -25 -112 -25c-28 0 -57.167 3.83301 -87.5 11.5s-58.5 18.834 -84.5 33.501l10 82l11 5c23.333 -22.667 49.166 -39.5 77.499 -50.5
s55.5 -16.5 81.5 -16.5c25.333 0 47.833 5 67.5 15s34.667 23.333 45 40s15.5 34.334 15.5 53.001c0 28 -10.667 50.5 -32 67.5s-53.666 35.5 -96.999 55.5c-35.333 17.333 -63.666 32.833 -84.999 46.5s-39.666 31.334 -54.999 53.001s-23 48.167 -23 79.5
c0 32.667 8.83301 62.667 26.5 90s42.334 48.833 74.001 64.5s67.834 23.5 108.501 23.5c46 0 93.667 -10 143 -30zM346.995 878.997l30 -42l-2 -8c-66 -51.333 -122.667 -93.666 -170 -126.999l-9 1l-22 32c65.333 53.333 120 101.666 164 144.999z" />
    <glyph glyph-name="sacute" unicode="&#x15b;" horiz-adv-x="425" 
d="M313 736l30 -42l-2 -8c-66 -51.333 -122.667 -93.666 -170 -126.999l-9 1l-22 32c65.333 53.333 120 101.666 164 144.999zM359 479l-12.9971 -74.001l-12 -3c-18.667 14.667 -36.334 25.5 -53.001 32.5s-34 10.5 -52 10.5c-28.667 0 -51.334 -7.5 -68.001 -22.5
s-25 -32.167 -25 -51.5s8.16699 -35 24.5 -47s41.5 -25.333 75.5 -40c30 -13.333 53.833 -25.333 71.5 -36s33 -24.834 46 -42.501s19.5 -39.167 19.5 -64.5c0 -26 -7 -50.167 -21 -72.5s-34.5 -40.333 -61.5 -54s-59.167 -20.5 -96.5 -20.5
c-23.333 0 -47.833 2.83301 -73.5 8.5s-49.5 14.167 -71.5 25.5l9 79l10 4c18.667 -18.667 40.5 -33.167 65.5 -43.5s48.167 -15.5 69.5 -15.5c28 0 51 7.5 69 22.5s27 33.167 27 54.5c0 20 -8.16699 36 -24.5 48s-41.833 26 -76.5 42
c-28.667 12.667 -52.167 24.334 -70.5 35.001s-33.833 24.834 -46.5 42.501s-19 39.167 -19 64.5c0 26.667 7.16699 50.667 21.5 72s34.666 38.333 60.999 51s57.166 19 92.499 19c40.667 0 81.334 -8 122.001 -24z" />
    <glyph glyph-name="Scircumflex" unicode="&#x15c;" horiz-adv-x="472" 
d="M410 616l-13.0049 -77.0029l-14 -4c-19.333 14.667 -39.833 26 -61.5 34s-43.167 12 -64.5 12c-24.667 0 -46.167 -5 -64.5 -15s-32.333 -23 -42 -39s-14.5 -32.667 -14.5 -50c0 -18 5.5 -33.833 16.5 -47.5s24.833 -25.5 41.5 -35.5s39.334 -22 68.001 -36
c36 -16.667 65 -32.167 87 -46.5s40.833 -32.5 56.5 -54.5s23.5 -48.667 23.5 -80c0 -33.333 -9 -64 -27 -92s-43.333 -50.333 -76 -67s-70 -25 -112 -25c-28 0 -57.167 3.83301 -87.5 11.5s-58.5 18.834 -84.5 33.501l10 82l11 5c23.333 -22.667 49.166 -39.5 77.499 -50.5
s55.5 -16.5 81.5 -16.5c25.333 0 47.833 5 67.5 15s34.667 23.333 45 40s15.5 34.334 15.5 53.001c0 28 -10.667 50.5 -32 67.5s-53.666 35.5 -96.999 55.5c-35.333 17.333 -63.666 32.833 -84.999 46.5s-39.666 31.334 -54.999 53.001s-23 48.167 -23 79.5
c0 32.667 8.83301 62.667 26.5 90s42.334 48.833 74.001 64.5s67.834 23.5 108.501 23.5c46 0 93.667 -10 143 -30zM114.995 737.997c38 38.667 78.668 83.333 122.001 134h24c41.333 -51.333 81.666 -96 120.999 -134l-22 -32h-9c-41.333 39.333 -75.333 74 -102 104
c-25.333 -28 -59.333 -62.667 -102 -104h-10z" />
    <glyph glyph-name="scircumflex" unicode="&#x15d;" horiz-adv-x="425" 
d="M80 595c38 38 78.668 82.667 122.001 134h24c41.333 -51.333 81.666 -96 120.999 -134l-22 -32h-9c-41.333 39.333 -75.333 74 -102 104c-25.333 -28 -59.333 -62.667 -102 -104h-10zM359.001 479l-12.9971 -74.001l-12 -3c-18.667 14.667 -36.334 25.5 -53.001 32.5
s-34 10.5 -52 10.5c-28.667 0 -51.334 -7.5 -68.001 -22.5s-25 -32.167 -25 -51.5s8.16699 -35 24.5 -47s41.5 -25.333 75.5 -40c30 -13.333 53.833 -25.333 71.5 -36s33 -24.834 46 -42.501s19.5 -39.167 19.5 -64.5c0 -26 -7 -50.167 -21 -72.5s-34.5 -40.333 -61.5 -54
s-59.167 -20.5 -96.5 -20.5c-23.333 0 -47.833 2.83301 -73.5 8.5s-49.5 14.167 -71.5 25.5l9 79l10 4c18.667 -18.667 40.5 -33.167 65.5 -43.5s48.167 -15.5 69.5 -15.5c28 0 51 7.5 69 22.5s27 33.167 27 54.5c0 20 -8.16699 36 -24.5 48s-41.833 26 -76.5 42
c-28.667 12.667 -52.167 24.334 -70.5 35.001s-33.833 24.834 -46.5 42.501s-19 39.167 -19 64.5c0 26.667 7.16699 50.667 21.5 72s34.666 38.333 60.999 51s57.166 19 92.499 19c40.667 0 81.334 -8 122.001 -24z" />
    <glyph glyph-name="Scedilla" unicode="&#x15e;" horiz-adv-x="472" 
d="M380.5 58c-32.333 -34 -74.8379 -54.6709 -127.505 -62.0039l-14 -47l34 -20c25.333 -14.667 38 -33.334 38 -56.001c0 -19.333 -7.5 -35.166 -22.5 -47.499s-34.5 -18.5 -58.5 -18.5c-28.667 0 -52.667 10.333 -72 31l7 40l5 1c9.33301 -10.667 18.333 -18.5 27 -23.5
s18.667 -7.5 30 -7.5c9.33301 0 16.833 2.33301 22.5 7s8.5 11.334 8.5 20.001c0 5.33301 -1.66699 9.83301 -5 13.5s-8.66602 7.5 -15.999 11.5l-48 29l18 64c-28 0.666992 -56.333 4.83398 -85 12.501s-55.334 18.5 -80.001 32.5l10 82l11 5
c23.333 -22.667 49.166 -39.5 77.499 -50.5s55.5 -16.5 81.5 -16.5c25.333 0 47.833 5 67.5 15s34.667 23.333 45 40s15.5 34.334 15.5 53.001c0 28 -10.667 50.5 -32 67.5s-53.666 35.5 -96.999 55.5c-35.333 17.333 -63.666 32.833 -84.999 46.5
s-39.666 31.334 -54.999 53.001s-23 48.167 -23 79.5c0 32.667 8.83301 62.667 26.5 90s42.334 48.833 74.001 64.5s67.834 23.5 108.501 23.5c46 0 93.667 -10 143 -30l-13 -77l-14 -4c-19.333 14.667 -39.833 26 -61.5 34s-43.167 12 -64.5 12
c-24.667 0 -46.167 -5 -64.5 -15s-32.333 -23 -42 -39s-14.5 -32.667 -14.5 -50c0 -18 5.5 -33.833 16.5 -47.5s24.833 -25.5 41.5 -35.5s39.334 -22 68.001 -36c36 -16.667 65 -32.167 87 -46.5s40.833 -32.5 56.5 -54.5s23.5 -48.667 23.5 -80
c0 -45.333 -16.167 -85 -48.5 -119z" />
    <glyph glyph-name="scedilla" unicode="&#x15f;" horiz-adv-x="425" 
d="M332 44c-27.333 -28 -64.665 -44.335 -111.998 -49.002l-14 -46l34 -20c25.333 -14.667 38 -33.334 38 -56.001c0 -19.333 -7.5 -35.166 -22.5 -47.499s-34.5 -18.5 -58.5 -18.5c-28.667 0 -52.667 10.333 -72 31l7 40l5 1c9.33301 -10.667 18.333 -18.5 27 -23.5
s18.667 -7.5 30 -7.5c9.33301 0 16.833 2.33301 22.5 7s8.5 11.334 8.5 20.001c0 5.33301 -1.66699 9.83301 -5 13.5s-8.66602 7.5 -15.999 11.5l-48 29l18 66c-44 2 -85.667 13 -125 33l9 79l10 4c18.667 -18.667 40.5 -33.167 65.5 -43.5s48.167 -15.5 69.5 -15.5
c28 0 51 7.5 69 22.5s27 33.167 27 54.5c0 20 -8.16699 36 -24.5 48s-41.833 26 -76.5 42c-28.667 12.667 -52.167 24.334 -70.5 35.001s-33.833 24.834 -46.5 42.501s-19 39.167 -19 64.5c0 26.667 7.16699 50.667 21.5 72s34.666 38.333 60.999 51s57.166 19 92.499 19
c40.667 0 81.334 -8 122.001 -24l-13 -74l-12 -3c-18.667 14.667 -36.334 25.5 -53.001 32.5s-34 10.5 -52 10.5c-28.667 0 -51.334 -7.5 -68.001 -22.5s-25 -32.167 -25 -51.5s8.16699 -35 24.5 -47s41.5 -25.333 75.5 -40c30 -13.333 53.833 -25.333 71.5 -36
s33 -24.834 46 -42.501s19.5 -39.167 19.5 -64.5c0 -36.667 -13.667 -69 -41 -97z" />
    <glyph glyph-name="Scaron" unicode="&#x160;" horiz-adv-x="472" 
d="M410 616l-13.0049 -77.0029l-14 -4c-19.333 14.667 -39.833 26 -61.5 34s-43.167 12 -64.5 12c-24.667 0 -46.167 -5 -64.5 -15s-32.333 -23 -42 -39s-14.5 -32.667 -14.5 -50c0 -18 5.5 -33.833 16.5 -47.5s24.833 -25.5 41.5 -35.5s39.334 -22 68.001 -36
c36 -16.667 65 -32.167 87 -46.5s40.833 -32.5 56.5 -54.5s23.5 -48.667 23.5 -80c0 -33.333 -9 -64 -27 -92s-43.333 -50.333 -76 -67s-70 -25 -112 -25c-28 0 -57.167 3.83301 -87.5 11.5s-58.5 18.834 -84.5 33.501l10 82l11 5c23.333 -22.667 49.166 -39.5 77.499 -50.5
s55.5 -16.5 81.5 -16.5c25.333 0 47.833 5 67.5 15s34.667 23.333 45 40s15.5 34.334 15.5 53.001c0 28 -10.667 50.5 -32 67.5s-53.666 35.5 -96.999 55.5c-35.333 17.333 -63.666 32.833 -84.999 46.5s-39.666 31.334 -54.999 53.001s-23 48.167 -23 79.5
c0 32.667 8.83301 62.667 26.5 90s42.334 48.833 74.001 64.5s67.834 23.5 108.501 23.5c46 0 93.667 -10 143 -30zM375.995 814.997c-48.667 -34 -87.332 -64.333 -115.999 -91h-22c-34.667 30 -73.667 60.333 -117 91l15 34h10c42 -26 76 -48 102 -66
c17.333 12 51.666 34 102.999 66h9z" />
    <glyph glyph-name="scaron" unicode="&#x161;" horiz-adv-x="425" 
d="M347 696c-38 -38.667 -78.668 -83.333 -122.001 -134h-24c-41.333 51.333 -81.666 96 -120.999 134l22 32h9c41.333 -39.333 75.333 -74 102 -104c25.333 28 59.333 62.667 102 104h10zM358.999 479.001l-12.9971 -74.001l-12 -3
c-18.667 14.667 -36.334 25.5 -53.001 32.5s-34 10.5 -52 10.5c-28.667 0 -51.334 -7.5 -68.001 -22.5s-25 -32.167 -25 -51.5s8.16699 -35 24.5 -47s41.5 -25.333 75.5 -40c30 -13.333 53.833 -25.333 71.5 -36s33 -24.834 46 -42.501s19.5 -39.167 19.5 -64.5
c0 -26 -7 -50.167 -21 -72.5s-34.5 -40.333 -61.5 -54s-59.167 -20.5 -96.5 -20.5c-23.333 0 -47.833 2.83301 -73.5 8.5s-49.5 14.167 -71.5 25.5l9 79l10 4c18.667 -18.667 40.5 -33.167 65.5 -43.5s48.167 -15.5 69.5 -15.5c28 0 51 7.5 69 22.5s27 33.167 27 54.5
c0 20 -8.16699 36 -24.5 48s-41.833 26 -76.5 42c-28.667 12.667 -52.167 24.334 -70.5 35.001s-33.833 24.834 -46.5 42.501s-19 39.167 -19 64.5c0 26.667 7.16699 50.667 21.5 72s34.666 38.333 60.999 51s57.166 19 92.499 19c40.667 0 81.334 -8 122.001 -24z" />
    <glyph glyph-name="uni0162" unicode="&#x162;" horiz-adv-x="490" 
d="M469 633l-6.00098 -62.001l-112 6h-65l-3 -377l3 -200h-21l-15 -51l34 -20c25.333 -14.667 38 -33.334 38 -56.001c0 -19.333 -7.5 -35.166 -22.5 -47.499s-34.5 -18.5 -58.5 -18.5c-28.667 0 -52.667 10.333 -72 31l7 40l5 1c9.33301 -10.667 18.333 -18.5 27 -23.5
s18.667 -7.5 30 -7.5c9.33301 0 16.833 2.33301 22.5 7s8.5 11.334 8.5 20.001c0 5.33301 -1.66699 9.83301 -5 13.5s-8.66602 7.5 -15.999 11.5l-48 29l19 71h-14l6 193l-5 384h-65l-114 -6l-5 8l6 62h435z" />
    <glyph glyph-name="uni0163" unicode="&#x163;" horiz-adv-x="437" 
d="M403 492l-4 -62.999l-93 7h-51l-3 -280l3 -156h-17l-14 -52l33 -19c13.333 -8.66699 23 -17.334 29 -26.001s9 -18.667 9 -30c0 -18.667 -7.5 -34.167 -22.5 -46.5s-33.5 -18.5 -55.5 -18.5c-26.667 0 -50 10.667 -70 32l7 37l5 1c9.33301 -10 18.166 -17.667 26.499 -23
s17.833 -8 28.5 -8c9.33301 0 17 2.5 23 7.5s9 11.5 9 19.5c0 6 -1.66699 11 -5 15s-8.66602 8.33301 -15.999 13l-46 29l18 69h-17l3 150l-2 286h-50l-95 -7l-6 7l6 62h364z" />
    <glyph glyph-name="Tcaron" unicode="&#x164;" horiz-adv-x="490" 
d="M469 633l-6 -62l-112 6h-65l-3 -377l3 -200h-81l6 193l-5 384h-65l-114 -6l-5 8l6 62h435zM376 815c-48.667 -34 -87.332 -64.333 -115.999 -91h-22c-34.667 30 -73.667 60.333 -117 91l15 34h10c42 -26 76 -48 102 -66c17.333 12 51.666 34 102.999 66h9z" />
    <glyph glyph-name="tcaron" unicode="&#x165;" horiz-adv-x="437" 
d="M85 696l21.999 32h9c41.333 -39.333 75.333 -74 102 -104c25.333 28 59.333 62.667 102 104h10l22 -32c-38 -38 -78.667 -82.667 -122 -134h-24c-41.333 51.333 -81.666 96 -120.999 134zM404.999 492l-5 -63l-93 7h-50l-3 -280l3 -156h-75l3 150l-2 286h-50l-95 -7l-6 7
l6 62h363z" />
    <glyph glyph-name="Tbar" unicode="&#x166;" horiz-adv-x="490" 
d="M286 577l-2 -232h104l7 -5l-4 -45h-107l-1 -95l3 -200h-81l6 193l-1 102h-96l-6 6l4 44h97l-3 232h-65l-114 -6l-5 8l6 62h435l6 -8l-6 -62l-112 6h-65z" />
    <glyph glyph-name="tbar" unicode="&#x167;" horiz-adv-x="437" 
d="M257 436l-2 -181h95l6 -5l-4 -45h-98v-49l3 -156h-75l3 150v55h-92l-6 6l4 44h93l-1 181h-50l-95 -7l-6 7l6 62h363l4 -6l-5 -63l-93 7h-50z" />
    <glyph glyph-name="Umacron" unicode="&#x16a;" horiz-adv-x="626" 
d="M551 315l-0.998047 -72.001c1.33301 -78.667 -19.334 -140 -62.001 -184s-103.334 -66 -182.001 -66c-75.333 0 -133.166 21 -173.499 63s-59.833 101.333 -58.5 178l1 87l-1 320h79l-3 -397c-0.666992 -60 12.666 -105.167 39.999 -135.5s68 -45.5 122 -45.5
s95 14.333 123 43s41.667 71.334 41 128.001l-4 407h80zM462.002 811.999l-5 -47h-283l-6 6l4 46h283z" />
    <glyph glyph-name="umacron" unicode="&#x16b;" horiz-adv-x="549" 
d="M424 669l-5 -47h-283l-6 6l4 46h283zM473 245v-72c0.666992 -56.667 -16.5 -100.667 -51.5 -132s-85.167 -47 -150.5 -47c-64.667 0 -114 15.5 -148 46.5s-50.333 75.167 -49 132.5l1 76l-1 249h75l-4 -313c-0.666992 -42 9.83301 -73.667 31.5 -95s54.167 -32 97.5 -32
c42.667 0 75 10.667 97 32s32.667 53 32 95l-3 313h76z" />
    <glyph glyph-name="Ubreve" unicode="&#x16c;" horiz-adv-x="626" 
d="M551 315l-0.998047 -72.001c1.33301 -78.667 -19.334 -140 -62.001 -184s-103.334 -66 -182.001 -66c-75.333 0 -133.166 21 -173.499 63s-59.833 101.333 -58.5 178l1 87l-1 320h79l-3 -397c-0.666992 -60 12.666 -105.167 39.999 -135.5s68 -45.5 122 -45.5
s95 14.333 123 43s41.667 71.334 41 128.001l-4 407h80zM443.002 824.999c-18 -76.667 -61.0029 -115 -129.003 -115c-34.667 0 -62.167 10 -82.5 30s-34.166 48.333 -41.499 85l22 29h12c12.667 -58 43.334 -87 92.001 -87s79.334 29 92.001 87h12z" />
    <glyph glyph-name="ubreve" unicode="&#x16d;" horiz-adv-x="549" 
d="M405 682c-18 -76.667 -61.0029 -115 -129.003 -115c-34.667 0 -62.167 10 -82.5 30s-34.166 48.333 -41.499 85l22 29h12c12.667 -58 43.334 -87 92.001 -87s79.334 29 92.001 87h12zM472.997 245v-72c0.666992 -56.667 -16.5 -100.667 -51.5 -132
s-85.167 -47 -150.5 -47c-64.667 0 -114 15.5 -148 46.5s-50.333 75.167 -49 132.5l1 76l-1 249h75l-4 -313c-0.666992 -42 9.83301 -73.667 31.5 -95s54.167 -32 97.5 -32c42.667 0 75 10.667 97 32s32.667 53 32 95l-3 313h76z" />
    <glyph glyph-name="Uring" unicode="&#x16e;" horiz-adv-x="626" 
d="M551 315l-0.998047 -72.001c1.33301 -78.667 -19.334 -140 -62.001 -184s-103.334 -66 -182.001 -66c-75.333 0 -133.166 21 -173.499 63s-59.833 101.333 -58.5 178l1 87l-1 320h79l-3 -397c-0.666992 -60 12.666 -105.167 39.999 -135.5s68 -45.5 122 -45.5
s95 14.333 123 43s41.667 71.334 41 128.001l-4 407h80zM376.002 857.499c14.667 -15 22 -34.5 22 -58.5c0 -26 -8.16699 -46.5 -24.5 -61.5s-36.833 -22.5 -61.5 -22.5c-24 0 -43.667 7.16699 -59 21.5s-23 34.5 -23 60.5c0 25.333 7.66699 45.5 23 60.5s36 22.5 62 22.5
s46.333 -7.5 61 -22.5zM279.502 829.499c-7.66699 -7.66699 -11.498 -18.166 -11.498 -31.499c0 -14.667 4.16699 -25.834 12.5 -33.501s19.5 -11.5 33.5 -11.5c13.333 0 24.166 3.66699 32.499 11s12.5 18 12.5 32s-3.83301 25 -11.5 33s-19.167 12 -34.5 12
c-14.667 0 -25.834 -3.83301 -33.501 -11.5z" />
    <glyph glyph-name="uring" unicode="&#x16f;" horiz-adv-x="549" 
d="M338 714.5c14.667 -15 22 -34.5 22 -58.5c0 -26 -8.16699 -46.5 -24.5 -61.5s-36.833 -22.5 -61.5 -22.5c-24 0 -43.667 7.16699 -59 21.5s-23 34.5 -23 60.5c0 25.333 7.66699 45.5 23 60.5s36 22.5 62 22.5s46.333 -7.5 61 -22.5zM241.5 686.5
c-7.66699 -7.66699 -11.498 -18.166 -11.498 -31.499c0 -14.667 4.16699 -25.834 12.5 -33.501s19.5 -11.5 33.5 -11.5c13.333 0 24.166 3.66699 32.499 11s12.5 18 12.5 32s-3.83301 25 -11.5 33s-19.167 12 -34.5 12c-14.667 0 -25.834 -3.83301 -33.501 -11.5z
M473.002 245.001v-72c0.666992 -56.667 -16.5 -100.667 -51.5 -132s-85.167 -47 -150.5 -47c-64.667 0 -114 15.5 -148 46.5s-50.333 75.167 -49 132.5l1 76l-1 249h75l-4 -313c-0.666992 -42 9.83301 -73.667 31.5 -95s54.167 -32 97.5 -32c42.667 0 75 10.667 97 32
s32.667 53 32 95l-3 313h76z" />
    <glyph glyph-name="Uhungarumlaut" unicode="&#x170;" horiz-adv-x="626" 
d="M551 315l-0.998047 -72.001c1.33301 -78.667 -19.334 -140 -62.001 -184s-103.334 -66 -182.001 -66c-75.333 0 -133.166 21 -173.499 63s-59.833 101.333 -58.5 178l1 87l-1 320h79l-3 -397c-0.666992 -60 12.666 -105.167 39.999 -135.5s68 -45.5 122 -45.5
s95 14.333 123 43s41.667 71.334 41 128.001l-4 407h80zM311.002 863.999h9l36 -25v-9c-24 -24 -63.333 -60.667 -118 -110l-9 -1l-26 24c48 52 84 92.333 108 121zM454.002 863.999h8l37 -25v-9l-86 -81l-32 -29l-9 -1l-26 24c48 52 84 92.333 108 121z" />
    <glyph glyph-name="uhungarumlaut" unicode="&#x171;" horiz-adv-x="549" 
d="M277 737l7 1.00098l37 -27v-8c-42 -44 -90 -91.667 -144 -143l-9 -1l-26 24c31.333 33.333 76.333 84.666 135 153.999zM418 737.001l8 1l37 -27l-1 -8c-42 -44 -90 -91.667 -144 -143l-8 -1l-27 24c36.667 38.667 81.667 90 135 154zM473 245.001v-72
c0.666992 -56.667 -16.5 -100.667 -51.5 -132s-85.167 -47 -150.5 -47c-64.667 0 -114 15.5 -148 46.5s-50.333 75.167 -49 132.5l1 76l-1 249h75l-4 -313c-0.666992 -42 9.83301 -73.667 31.5 -95s54.167 -32 97.5 -32c42.667 0 75 10.667 97 32s32.667 53 32 95l-3 313h76
z" />
    <glyph glyph-name="Uogonek" unicode="&#x172;" horiz-adv-x="626" 
d="M551 315l-1.00195 -72.001c0.666992 -48 -6.83301 -89.833 -22.5 -125.5s-39.167 -63.834 -70.5 -84.501c-45.333 -50.667 -74 -84 -86 -100s-18 -29.667 -18 -41c0 -21.333 12 -32 36 -32c22 0 46.667 13 74 39l5 -1l14 -42c-31.333 -32.667 -65 -49 -101 -49
c-25.333 0 -45.666 6.5 -60.999 19.5s-23 30.833 -23 53.5c0 17.333 4.83301 34.333 14.5 51s28.834 39.334 57.501 68.001c-20 -4 -41 -6 -63 -6c-75.333 0 -133.166 21 -173.499 63s-59.833 101.333 -58.5 178l1 87l-1 320h79l-3 -397
c-0.666992 -60 12.666 -105.167 39.999 -135.5s68 -45.5 122 -45.5s95 14.333 123 43s41.667 71.334 41 128.001l-4 407h80z" />
    <glyph glyph-name="uogonek" unicode="&#x173;" horiz-adv-x="549" 
d="M473 173c0.666992 -36 -6.33398 -67.166 -21.001 -93.499s-36 -46.833 -64 -61.5c-38 -42.667 -62.5 -71.334 -73.5 -86.001s-16.5 -27.667 -16.5 -39c0 -21.333 12 -32 36 -32c22 0 46.667 13 74 39l5 -1l14 -42c-31.333 -32.667 -65 -49 -101 -49
c-25.333 0 -45.666 6.5 -60.999 19.5s-23 30.833 -23 53.5c0 17.333 4.66699 34 14 50s27.666 37.667 54.999 65c-17.333 -1.33301 -30.666 -2 -39.999 -2c-64.667 0 -114 15.5 -148 46.5s-50.333 75.167 -49 132.5l1 76l-1 249h75l-4 -313
c-0.666992 -42 9.83301 -73.667 31.5 -95s54.167 -32 97.5 -32c42.667 0 75 10.667 97 32s32.667 53 32 95l-3 313h76l-3 -253v-72z" />
    <glyph glyph-name="Wcircumflex" unicode="&#x174;" horiz-adv-x="893" 
d="M655 0h-83l-125 372h-7l-132 -372h-83l-204 641h80l11 -62l156 -490h7l138 390l-54 162h82l15 -69l158 -483h6l174 486l15 66h76zM312 768c48.667 34 87.332 64.333 115.999 91h22c34.667 -30 73.667 -60.333 117 -91l-15 -34h-10c-42 26 -76 48 -102 66
c-17.333 -12 -51.666 -34 -102.999 -66h-9z" />
    <glyph glyph-name="wcircumflex" unicode="&#x175;" horiz-adv-x="768" 
d="M230 595c38.667 38.667 79.334 83.333 122.001 134h24c41.333 -51.333 81.666 -96 120.999 -134l-22 -32h-9c-41.333 39.333 -75.333 74 -102 104c-25.333 -28 -59.333 -62.667 -102 -104h-10zM563 -0.000976562h-80l-98 272h-6l-103 -272h-80l-163 498h75l9 -53
l122 -362h5l109 291l-41 124h78l11 -59l122 -356h6l135 358l12 57h73z" />
    <glyph glyph-name="Ycircumflex" unicode="&#x176;" horiz-adv-x="528" 
d="M292 187l2 -187h-79l4 187l-1 42l-203 412h86l13 -36l140 -288h7l154 286l15 38h84l-221 -409zM131 768c48.667 34 87.332 64.333 115.999 91h22c34.667 -30 73.667 -60.333 117 -91l-15 -34h-10c-42 26 -76 48 -102 66c-17.333 -12 -51.666 -34 -102.999 -66h-9z" />
    <glyph glyph-name="ycircumflex" unicode="&#x177;" horiz-adv-x="473" 
d="M130 563l-22 31.999c38.667 38.667 79.334 83.334 122.001 134.001h24c41.333 -51.333 81.666 -96 120.999 -134l-22 -32h-9c-41.333 39.333 -75.333 74 -102 104c-25.333 -28 -59.333 -62.667 -102 -104h-10zM263 142.999l3 -143h-75l4 143l-1 31l-169 324h82l10 -29
l112 -214h5l122 211l13 32h80l-185 -324z" />
    <glyph glyph-name="Ydieresis" unicode="&#x178;" horiz-adv-x="528" 
d="M292 187l2 -187h-79l4 187l-1 42l-203 412h86l13 -36l140 -288h7l154 286l15 38h84l-221 -409zM212.5 823c7.66699 -7.33301 11.499 -17.666 11.499 -30.999c0 -14 -4 -25.333 -12 -34s-18.667 -13 -32 -13c-14 0 -24.667 3.83301 -32 11.5s-11 18.5 -11 32.5
c0 13.333 4 24.166 12 32.499s19 12.5 33 12.5c12.667 0 22.834 -3.66699 30.501 -11zM369.999 823c7.33301 -7.33301 11.001 -17.666 11.001 -30.999c0 -14 -4 -25.333 -12 -34s-18.667 -13 -32 -13s-23.833 4 -31.5 12s-11.5 18.667 -11.5 32s4 24.166 12 32.499
s19 12.5 33 12.5c13.333 0 23.666 -3.66699 30.999 -11z" />
    <glyph glyph-name="Zacute" unicode="&#x179;" horiz-adv-x="528" 
d="M486 582l-359 -517h266l95 7l4 -6l-7 -68l-116 2h-281l-57 -3v59l360 519h-247l-96 -7l-5 6l6 68l388 -1l49 1v-60zM375 862l19.999 -47l-2 -8c-63.333 -29.333 -128.666 -58 -195.999 -86l-9 4l-14 36c70 34.667 133.667 69 191 103z" />
    <glyph glyph-name="zacute" unicode="&#x17a;" horiz-adv-x="470" 
d="M335 736l30 -42l-2 -8c-66 -51.333 -122.667 -93.666 -170 -126.999l-9 1l-22 32c65.333 53.333 120 101.666 164 144.999zM421 443l-291 -384h209l83 8l4 -5l-6 -64l-103 2h-226l-51 -2v54l292 386h-203l-77 -8l-4 6l7 63l90 -1h233l43 1v-56z" />
    <glyph glyph-name="Zdotaccent" unicode="&#x17b;" horiz-adv-x="528" 
d="M486 582l-359 -517h266l95 7l4 -6l-7 -68l-116 2h-281l-57 -3v59l360 519h-247l-96 -7l-5 6l6 68l388 -1l49 1v-60zM298 834c8 -8 12 -18.999 12 -32.999c0 -14.667 -4.16699 -26.334 -12.5 -35.001s-19.833 -13 -34.5 -13c-14 0 -24.833 4 -32.5 12
s-11.5 19.333 -11.5 34c0 14 4.16699 25.333 12.5 34s19.833 13 34.5 13c13.333 0 24 -4 32 -12z" />
    <glyph glyph-name="zdotaccent" unicode="&#x17c;" horiz-adv-x="470" 
d="M269 691c8 -8 12 -18.999 12 -32.999c0 -14.667 -4.16699 -26.334 -12.5 -35.001s-19.833 -13 -34.5 -13c-14 0 -24.833 4 -32.5 12s-11.5 19.333 -11.5 34c0 14 4.16699 25.333 12.5 34s19.833 13 34.5 13c13.333 0 24 -4 32 -12zM421 443.001l-291 -384h209l83 8l4 -5
l-6 -64l-103 2h-226l-51 -2v54l292 386h-203l-77 -8l-4 6l7 63l90 -1h233l43 1v-56z" />
    <glyph glyph-name="Zcaron" unicode="&#x17d;" horiz-adv-x="528" 
d="M486 582l-359 -517h266l95 7l4 -6l-7 -68l-116 2h-281l-57 -3v59l360 519h-247l-96 -7l-5 6l6 68l388 -1l49 1v-60zM392 814c-48.667 -34 -87.332 -64.333 -115.999 -91h-22c-34.667 30 -73.667 60.333 -117 91l15 34h10c42 -26 76 -48 102 -66
c17.333 12 51.666 34 102.999 66h9z" />
    <glyph glyph-name="zcaron" unicode="&#x17e;" horiz-adv-x="470" 
d="M369 696c-38.667 -38.667 -79.334 -83.333 -122.001 -134h-24c-41.333 51.333 -81.666 96 -120.999 134l22 32h9c41.333 -39.333 75.333 -74 102 -104c25.333 28 59.333 62.667 102 104h10zM421 443.001l-291 -384h209l83 8l4 -5l-6 -64l-103 2h-226l-51 -2v54l292 386
h-203l-77 -8l-4 6l7 63l90 -1h233l43 1v-56z" />
    <glyph glyph-name="uni018F" unicode="&#x18f;" horiz-adv-x="621" 
d="M451.5 607.5c43 -25.667 75.832 -62.832 98.499 -111.499s34 -106 34 -172c0 -67.333 -11.5 -125.833 -34.5 -175.5s-55.667 -88 -98 -115s-92.166 -40.5 -149.499 -40.5c-48 0 -90.667 9.33301 -128 28s-66.333 45.667 -87 81s-31 76.666 -31 123.999
c0 14.667 2 36.667 6 66l12 13l428 2v12c0 81.333 -18.5 144.333 -55.5 189s-89.833 67 -158.5 67c-33.333 0 -66.5 -5.33301 -99.5 -16s-62.5 -25.667 -88.5 -45l-11 7l13 76c63.333 32.667 129 49 197 49c58.667 0 109.5 -12.833 152.5 -38.5zM428.999 106.502
c34 33 56.333 78.5 67 136.5l-355 -3l-2 -23c0 -50 15 -89.167 45 -117.5s69.333 -42.5 118 -42.5c50.667 0 93 16.5 127 49.5z" />
    <glyph glyph-name="florin" unicode="&#x192;" horiz-adv-x="277" 
d="M372 607l-11.999 -51.999l-6 -3c-20.667 8.66699 -41.667 13 -63 13c-57.333 0 -90.333 -31.333 -99 -94l-13 -97h111l3 -6l-4 -38h-115l-20 -145l-18 -138c-5.33301 -45.333 -16.5 -81.833 -33.5 -109.5s-45.833 -56.834 -86.5 -87.501l-32 31l1 7
c30 26 51.167 49.833 63.5 71.5s20.833 50.167 25.5 85.5l17 135l18 150h-65l-5 4l5 40h71l11 88c6 49.333 24.167 87.333 54.5 114s70.166 40 119.499 40c20 0 44 -3 72 -9z" />
    <glyph glyph-name="Ohorn" unicode="&#x1a0;" horiz-adv-x="655" 
d="M586.5 603.5c-15.667 -16.333 -36.501 -27.166 -62.501 -32.499c50.667 -52.667 76 -132.667 76 -240c0 -108 -25 -191.5 -75 -250.5s-120.667 -88.5 -212 -88.5c-87.333 0 -154.5 28 -201.5 84s-70.5 135.333 -70.5 238c0 70 11.167 130 33.5 180s54.166 88 95.499 114
s90.333 39 147 39c24.667 0 46.334 -1.83301 65.001 -5.5s39.334 -8.83398 62.001 -15.501c24.667 -7.33301 42 -11 52 -11c15.333 0 27.833 4 37.5 12s14.5 19 14.5 33c0 11.333 -3 23 -9 35s-14.333 23 -25 33l1 8c14 10 26.667 15 38 15c14 0 27 -9 39 -27s18 -38 18 -60
c0 -24 -7.83301 -44.167 -23.5 -60.5zM517.999 317c0 90 -16.166 156.667 -48.499 200s-81.5 65 -147.5 65c-132.667 0 -199 -86.333 -199 -259c0 -90.667 16.167 -158 48.5 -202s81.166 -66 146.499 -66c133.333 0 200 87.333 200 262z" />
    <glyph glyph-name="ohorn" unicode="&#x1a1;" horiz-adv-x="575" 
d="M508 470.5c-13.333 -13.667 -31.001 -23.167 -53.001 -28.5c40 -40.667 60 -102 60 -184c0 -84 -21 -149.167 -63 -195.5s-101.333 -69.5 -178 -69.5c-72.667 0 -128.834 22 -168.501 66s-59.5 106 -59.5 186c0 82 20.667 146 62 192s98 69 170 69
c20.667 0 38.834 -1.33301 54.501 -4s32.834 -6.66699 51.501 -12c3.33301 -0.666992 9.66602 -2.16699 18.999 -4.5s17.333 -3.5 24 -3.5c12.667 0 22.834 2.83301 30.501 8.5s11.5 13.834 11.5 24.501c0 18 -9.66699 35.667 -29 53l1 7c14.667 10 27 15 37 15
c12.667 0 24.167 -7.33301 34.5 -22s15.5 -31 15.5 -49c0 -18.667 -6.66699 -34.834 -20 -48.501zM396.999 100c26 31.333 39.001 79.666 39.001 144.999c0 68.667 -12.667 118.834 -38 150.501s-64.333 47.5 -117 47.5s-91.834 -15.333 -117.501 -46
s-38.5 -78.334 -38.5 -143.001c0 -69.333 12.5 -120.166 37.5 -152.499s63.833 -48.5 116.5 -48.5s92 15.667 118 47z" />
    <glyph glyph-name="Uhorn" unicode="&#x1af;" horiz-adv-x="636" 
d="M614.5 637.5c-15.667 -17 -36.498 -28.835 -62.498 -35.502l-1 -287l-1 -72c1.33301 -78.667 -19.334 -140 -62.001 -184s-103.334 -66 -182.001 -66c-75.333 0 -133.166 21 -173.499 63s-59.833 101.333 -58.5 178l1 87l-1 320h79l-3 -397
c-0.666992 -60 12.666 -105.167 39.999 -135.5s68 -45.5 122 -45.5s95 14.333 123 43s41.667 71.334 41 128.001l-4 407h38c21.333 0 37.5 4.33301 48.5 13s16.5 21.334 16.5 38.001c0 20.667 -11 40.667 -33 60l3 8c15.333 10.667 28 16 38 16
c12.667 0 25 -7.83301 37 -23.5s18 -34.167 18 -55.5c0 -22.667 -7.83301 -42.5 -23.5 -59.5z" />
    <glyph glyph-name="uhorn" unicode="&#x1b0;" horiz-adv-x="557" 
d="M529.5 496.5c-13 -14.333 -30.498 -24.499 -52.498 -30.499l-2 -221l-1 -61c0.666992 -60.667 -16.833 -107.5 -52.5 -140.5s-86.5 -49.5 -152.5 -49.5c-64 0 -113 16.167 -147 48.5s-50.333 78.166 -49 137.499l1 70l-1 250h76l-4 -311c0 -86.667 43 -130 129 -130
s128.667 41.333 128 124l-4 317h38c35.333 0 53 13 53 39c0 16 -9 31.667 -27 47l2 7c15.333 10 27.666 15 36.999 15c11.333 0 22.166 -6.16699 32.499 -18.5s15.5 -26.833 15.5 -43.5c0 -18.667 -6.5 -35.167 -19.5 -49.5z" />
    <glyph glyph-name="uni01C4" unicode="&#x1c4;" horiz-adv-x="1174" 
d="M535 567c48.667 -52 73.001 -126.667 73.001 -224c0 -112.667 -26.333 -199 -79 -259s-128.334 -90 -227.001 -90c-27.333 0 -60.5 0.5 -99.5 1.5s-75.167 2.5 -108.5 4.5h-1l5 193l-5 448h1l231 4c91.333 0 161.333 -26 210 -78zM471.501 127.5
c36.333 44.333 54.5 110.5 54.5 198.5c0 168 -69 252 -207 252c-42 0 -90.333 -1.33301 -145 -4l-4 -374l3 -133c20.667 -2 45.5 -3.5 74.5 -4.5s51.5 -1.5 67.5 -1.5c68 0 120.167 22.167 156.5 66.5zM1132 582l-359 -517h266l95 7l4 -6l-7 -68l-116 2h-281l-57 -3v59
l360 519h-247l-96 -7l-5 6l6 68l388 -1l49 1v-60zM1038 814c-48.667 -34 -87.332 -64.333 -115.999 -91h-22c-34.667 30 -73.667 60.333 -117 91l15 34h10c42 -26 76 -48 102 -66c17.333 12 51.666 34 102.999 66h9z" />
    <glyph glyph-name="uni01C5" unicode="&#x1c5;" horiz-adv-x="1116" 
d="M535 567c48.667 -52 73.001 -126.667 73.001 -224c0 -112.667 -26.333 -199 -79 -259s-128.334 -90 -227.001 -90c-27.333 0 -60.5 0.5 -99.5 1.5s-75.167 2.5 -108.5 4.5h-1l5 193l-5 448h1l231 4c91.333 0 161.333 -26 210 -78zM471.501 127.5
c36.333 44.333 54.5 110.5 54.5 198.5c0 168 -69 252 -207 252c-42 0 -90.333 -1.33301 -145 -4l-4 -374l3 -133c20.667 -2 45.5 -3.5 74.5 -4.5s51.5 -1.5 67.5 -1.5c68 0 120.167 22.167 156.5 66.5zM1015 696c-38.667 -38.667 -79.334 -83.333 -122.001 -134h-24
c-41.333 51.333 -81.666 96 -120.999 134l22 32h9c41.333 -39.333 75.333 -74 102 -104c25.333 28 59.333 62.667 102 104h10zM1067 443.001l-291 -384h209l83 8l4 -5l-6 -64l-103 2h-226l-51 -2v54l292 386h-203l-77 -8l-4 6l7 63l90 -1h233l43 1v-56z" />
    <glyph glyph-name="uni01C6" unicode="&#x1c6;" horiz-adv-x="1035" 
d="M668 696l22 32.001h9c41.333 -39.333 75.333 -74 102 -104c25.333 28 59.333 62.667 102 104h10l22 -32c-38.667 -38.667 -79.334 -83.334 -122.001 -134.001h-24c-41.333 51.333 -81.666 96 -120.999 134zM459.5 441.001c40.333 -40.667 60.499 -99 60.499 -175
c0 -87.333 -22 -154.333 -66 -201s-107 -70 -189 -70c-23.333 0 -51.166 0.5 -83.499 1.5s-62.833 2.16699 -91.5 3.5l3 150l-3 348l195 4c76 0 134.167 -20.333 174.5 -61zM991.999 62.001l-6 -64l-103 2h-226l-51 -2v54l292 386h-203l-77 -8l-4 6l7 63l90 -1h233l43 1v-56
l-291 -384h209l83 8zM400.499 104.501c29 32.333 43.5 81.166 43.5 146.499c0 64 -13.667 111.333 -41 142s-68.666 46 -123.999 46c-32.667 0 -71 -1.33301 -115 -4l-2 -279l1 -94c19.333 -1.33301 39.666 -2.66602 60.999 -3.99902s39 -2 53 -2
c53.333 0 94.5 16.167 123.5 48.5z" />
    <glyph glyph-name="uni01C7" unicode="&#x1c7;" horiz-adv-x="726" 
d="M413 60l-7 -60h-316l5 193l-5 448h82l-5 -441l3 -133h237zM629 212l2 -94c0 -50.667 -12.667 -92.5 -38 -125.5s-69.333 -64.5 -132 -94.5l-31 45v10c46 24.667 78.667 49 98 73s29 54.333 29 91v87l-4 372l-123 -1l-8 7l5 59h206z" />
    <glyph glyph-name="uni01C8" unicode="&#x1c8;" horiz-adv-x="705" 
d="M413 60l-7 -60h-316l5 193l-5 448h82l-5 -441l3 -133h237zM610 165v-72c0 -40.667 -9.16699 -74 -27.5 -100s-50.833 -50.333 -97.5 -73l-30 39v7c31.333 17.333 53.5 35.5 66.5 54.5s19.5 42.833 19.5 71.5v64l-2 285l-95 -1l-5 6l5 52h169z" />
    <glyph glyph-name="uni01C9" unicode="&#x1c9;" horiz-adv-x="665" 
d="M354 63l4 -7l-5 -56h-265l3 150l-3 348h75l-3 -342l2 -93h192zM570 165v-72c0 -40.667 -9.16699 -74 -27.5 -100s-50.833 -50.333 -97.5 -73l-30 39v7c31.333 17.333 53.5 35.5 66.5 54.5s19.5 42.833 19.5 71.5v64l-2 285l-95 -1l-5 6l5 52h169z" />
    <glyph glyph-name="uni01CA" unicode="&#x1ca;" horiz-adv-x="993" 
d="M585 188l2 -188h-84l-332 513h-5l-1 -302l1 -211h-72l3 190l-2 451h83l331 -513h7l-1 509l75 6zM896 212l2 -94c0 -50.667 -12.667 -92.5 -38 -125.5s-69.333 -64.5 -132 -94.5l-31 45v10c46 24.667 78.667 49 98 73s29 54.333 29 91v87l-4 372l-123 -1l-8 7l5 59h206z
" />
    <glyph glyph-name="uni01CB" unicode="&#x1cb;" horiz-adv-x="972" 
d="M585 188l2 -188h-84l-332 513h-5l-1 -302l1 -211h-72l3 190l-2 451h83l331 -513h7l-1 509l75 6zM877 165v-72c0 -40.667 -9.16699 -74 -27.5 -100s-50.833 -50.333 -97.5 -73l-30 39v7c31.333 17.333 53.5 35.5 66.5 54.5s19.5 42.833 19.5 71.5v64l-2 285l-95 -1l-5 6
l5 52h169z" />
    <glyph glyph-name="uni01CC" unicode="&#x1cc;" horiz-adv-x="885" 
d="M506 500l-3 -351l1 -149h-80l-262 380h-5l-1 -214l2 -166h-68l3 147l-2 351h79l262 -380h7l-2 377zM790 165v-72c0 -40.667 -9.16699 -74 -27.5 -100s-50.833 -50.333 -97.5 -73l-30 39v7c31.333 17.333 53.5 35.5 66.5 54.5s19.5 42.833 19.5 71.5v64l-2 285l-95 -1
l-5 6l5 52h169z" />
    <glyph glyph-name="uni01CD" unicode="&#x1cd;" horiz-adv-x="578" 
d="M556 0h-82l-15 64l-36 110l-144 3l-130 -3l-39 -106l-16 -68h-80l235 641h93zM401 242l-104 316h-7l-116 -316l112 -2zM418 815c-48.667 -34 -87.332 -64.333 -115.999 -91h-22c-34.667 30 -73.667 60.333 -117 91l15 34h10c42 -26 76 -48 102 -66
c17.333 12 51.666 34 102.999 66h9z" />
    <glyph glyph-name="uni01CE" unicode="&#x1ce;" horiz-adv-x="512" 
d="M128 696l21.999 32h9c41.333 -39.333 75.333 -74 102 -104c25.333 28 59.333 62.667 102 104h10l22 -32c-38 -38 -78.667 -82.667 -122 -134h-24c-41.333 51.333 -81.666 96 -120.999 134zM477.999 0h-75l-12 54l-26 74l-119 1l-106 -1l-27 -70l-14 -58h-74l192 498h86z
M343.999 189l-83 236h-6l-91 -236l88 -1z" />
    <glyph glyph-name="uni01CF" unicode="&#x1cf;" horiz-adv-x="268" 
d="M170 200l4 -200h-81l5 193l-5 448h82zM262 815c-48.667 -34 -87.332 -64.333 -115.999 -91h-22c-34.667 30 -73.667 60.333 -117 91l15 34h10c42 -26 76 -48 102 -66c17.333 12 51.666 34 102.999 66h9z" />
    <glyph glyph-name="uni01D0" unicode="&#x1d0;" horiz-adv-x="259" 
d="M265 696c-38.667 -38.667 -79.334 -83.333 -122.001 -134h-24c-41.333 51.333 -81.666 96 -120.999 134l22 32h9c41.333 -39.333 75.333 -74 102 -104c25.333 28 59.333 62.667 102 104h10zM162 156.001l2 -156h-74l3 150l-3 348h75z" />
    <glyph glyph-name="uni01D1" unicode="&#x1d1;" horiz-adv-x="635" 
d="M527.5 566c47 -54 70.5 -131.667 70.5 -233c0 -109.333 -25 -193.5 -75 -252.5s-121.333 -88.5 -214 -88.5c-86.667 0 -153.5 28 -200.5 84s-70.5 135.667 -70.5 239c0 106.667 24.833 188.667 74.5 246s120.5 86 212.5 86c88 0 155.5 -27 202.5 -81zM120 324
c0 -91.333 16.167 -158.999 48.5 -202.999s81.166 -66 146.499 -66c133.333 0 200 87.667 200 263c0 89.333 -16.167 155.666 -48.5 198.999s-81.166 65 -146.499 65c-133.333 0 -200 -86 -200 -258zM447 815.001c-48.667 -34 -87.332 -64.333 -115.999 -91h-22
c-34.667 30 -73.667 60.333 -117 91l15 34h10c42 -26 76 -48 102 -66c17.333 12 51.666 34 102.999 66h9z" />
    <glyph glyph-name="uni01D2" unicode="&#x1d2;" horiz-adv-x="557" 
d="M414 696c-38 -38.667 -78.668 -83.333 -122.001 -134h-24c-41.333 51.333 -81.666 96 -120.999 134l22 32h9c41.333 -39.333 75.333 -74 102 -104c25.333 28 59.333 62.667 102 104h10zM453.499 440.001c39 -42.667 58.5 -103.001 58.5 -181.001
c0 -84.667 -20.833 -150.167 -62.5 -196.5s-101.167 -69.5 -178.5 -69.5c-72 0 -127.667 21.833 -167 65.5s-59 105.834 -59 186.501c0 82.667 21 146.5 63 191.5s101.333 67.5 178 67.5c72.667 0 128.5 -21.333 167.5 -64zM161.499 396
c-25.667 -30 -38.498 -77.333 -38.498 -142c0 -69.333 12.667 -119.666 38 -150.999s64 -47 116 -47c53.333 0 93 15.333 119 46s39 78.667 39 144c0 67.333 -12.833 116.666 -38.5 147.999s-64.834 47 -117.501 47s-91.834 -15 -117.501 -45z" />
    <glyph glyph-name="uni01D3" unicode="&#x1d3;" horiz-adv-x="626" 
d="M551 315l-0.998047 -72.001c1.33301 -78.667 -19.334 -140 -62.001 -184s-103.334 -66 -182.001 -66c-75.333 0 -133.166 21 -173.499 63s-59.833 101.333 -58.5 178l1 87l-1 320h79l-3 -397c-0.666992 -60 12.666 -105.167 39.999 -135.5s68 -45.5 122 -45.5
s95 14.333 123 43s41.667 71.334 41 128.001l-4 407h80zM443.002 814.999c-48.667 -34 -87.332 -64.333 -115.999 -91h-22c-34.667 30 -73.667 60.333 -117 91l15 34h10c42 -26 76 -48 102 -66c17.333 12 51.666 34 102.999 66h9z" />
    <glyph glyph-name="uni01D4" unicode="&#x1d4;" horiz-adv-x="549" 
d="M411 696c-38 -38 -78.668 -82.667 -122.001 -134h-24c-41.333 51.333 -81.666 96 -120.999 134l22 32h9c41.333 -39.333 75.333 -74 102 -104c25.333 28 59.333 62.667 102 104h10zM472.999 245v-72c0.666992 -56.667 -16.5 -100.667 -51.5 -132s-85.167 -47 -150.5 -47
c-64.667 0 -114 15.5 -148 46.5s-50.333 75.167 -49 132.5l1 76l-1 249h75l-4 -313c-0.666992 -42 9.83301 -73.667 31.5 -95s54.167 -32 97.5 -32c42.667 0 75 10.667 97 32s32.667 53 32 95l-3 313h76z" />
    <glyph glyph-name="uni01D5" unicode="&#x1d5;" horiz-adv-x="626" 
d="M551 315l-0.998047 -72.001c1.33301 -78.667 -19.334 -140 -62.001 -184s-103.334 -66 -182.001 -66c-75.333 0 -133.166 21 -173.499 63s-59.833 101.333 -58.5 178l1 87l-1 320h79l-3 -397c-0.666992 -60 12.666 -105.167 39.999 -135.5s68 -45.5 122 -45.5
s95 14.333 123 43s41.667 71.334 41 128.001l-4 407h80zM438.002 924.999l-5 -47h-233l-6 6l4 47h234zM266.002 800.999c7.33301 -7.33301 11.001 -17.333 11.001 -30c0 -13.333 -3.83301 -23.833 -11.5 -31.5s-17.834 -11.5 -30.501 -11.5
c-13.333 0 -23.5 3.66699 -30.5 11s-10.5 17.333 -10.5 30c0 13.333 3.83301 23.833 11.5 31.5s18.167 11.5 31.5 11.5c12 0 21.667 -3.66699 29 -11zM423.503 800.999c7 -7.33301 10.501 -17.333 10.501 -30c0 -13.333 -3.83301 -23.833 -11.5 -31.5
s-17.834 -11.5 -30.501 -11.5s-22.667 3.66699 -30 11s-11 17.333 -11 30c0 13.333 3.83301 23.833 11.5 31.5s18.167 11.5 31.5 11.5c12.667 0 22.5 -3.66699 29.5 -11z" />
    <glyph glyph-name="uni01D6" unicode="&#x1d6;" horiz-adv-x="549" 
d="M400 782l-5 -47h-233l-6 6l4 47h234zM228 658c7.33301 -7.33301 11.001 -17.333 11.001 -30c0 -13.333 -3.83301 -23.833 -11.5 -31.5s-17.834 -11.5 -30.501 -11.5s-22.667 3.66699 -30 11s-11 17.333 -11 30c0 13.333 4 23.833 12 31.5s18.333 11.5 31 11.5
c12 0 21.667 -3.66699 29 -11zM385.501 658c7 -7.33301 10.501 -17.333 10.501 -30c0 -13.333 -3.83301 -23.833 -11.5 -31.5s-17.834 -11.5 -30.501 -11.5s-22.667 3.66699 -30 11s-11 17.333 -11 30c0 13.333 4 23.833 12 31.5s18.333 11.5 31 11.5
s22.5 -3.66699 29.5 -11zM473.002 245v-72c0.666992 -56.667 -16.5 -100.667 -51.5 -132s-85.167 -47 -150.5 -47c-64.667 0 -114 15.5 -148 46.5s-50.333 75.167 -49 132.5l1 76l-1 249h75l-4 -313c-0.666992 -42 9.83301 -73.667 31.5 -95s54.167 -32 97.5 -32
c42.667 0 75 10.667 97 32s32.667 53 32 95l-3 313h76z" />
    <glyph glyph-name="uni01D7" unicode="&#x1d7;" horiz-adv-x="626" 
d="M551 315l-0.998047 -72.001c1.33301 -78.667 -19.334 -140 -62.001 -184s-103.334 -66 -182.001 -66c-75.333 0 -133.166 21 -173.499 63s-59.833 101.333 -58.5 178l1 87l-1 320h79l-3 -397c-0.666992 -60 12.666 -105.167 39.999 -135.5s68 -45.5 122 -45.5
s95 14.333 123 43s41.667 71.334 41 128.001l-4 407h80zM416.002 970.999l12 -50l-5 -8c-48 -13.333 -116.667 -30 -206 -50l-9 5l-8 38c77.333 22.667 146.333 45.667 207 69zM266.002 800.999c7.33301 -7.33301 11.001 -17.333 11.001 -30
c0 -13.333 -3.83301 -23.833 -11.5 -31.5s-17.834 -11.5 -30.501 -11.5c-13.333 0 -23.5 3.66699 -30.5 11s-10.5 17.333 -10.5 30c0 13.333 3.83301 23.833 11.5 31.5s18.167 11.5 31.5 11.5c12 0 21.667 -3.66699 29 -11zM423.503 800.999
c7 -7.33301 10.501 -17.333 10.501 -30c0 -13.333 -3.83301 -23.833 -11.5 -31.5s-17.834 -11.5 -30.501 -11.5s-22.667 3.66699 -30 11s-11 17.333 -11 30c0 13.333 3.83301 23.833 11.5 31.5s18.167 11.5 31.5 11.5c12.667 0 22.5 -3.66699 29.5 -11z" />
    <glyph glyph-name="uni01D8" unicode="&#x1d8;" horiz-adv-x="549" 
d="M377 821l12.001 -48.999l-5 -8c-70 -18.667 -138.667 -35.334 -206 -50.001l-9 5l-8 39c69.333 19.333 138.666 42 207.999 68zM227.501 658.001c7 -7.33301 10.501 -17.333 10.501 -30c0 -13.333 -3.83301 -23.833 -11.5 -31.5s-17.834 -11.5 -30.501 -11.5
s-22.667 3.66699 -30 11s-11 17.333 -11 30c0 13.333 4 23.833 12 31.5s18.333 11.5 31 11.5s22.5 -3.66699 29.5 -11zM384.502 658.001c7 -7.33301 10.5 -17.333 10.5 -30c0 -13.333 -3.83301 -23.833 -11.5 -31.5s-17.834 -11.5 -30.501 -11.5s-22.5 3.66699 -29.5 11
s-10.5 17.333 -10.5 30c0 13.333 3.83301 23.833 11.5 31.5s17.834 11.5 30.501 11.5s22.5 -3.66699 29.5 -11zM473.002 245.001v-72c0.666992 -56.667 -16.5 -100.667 -51.5 -132s-85.167 -47 -150.5 -47c-64.667 0 -114 15.5 -148 46.5s-50.333 75.167 -49 132.5l1 76
l-1 249h75l-4 -313c-0.666992 -42 9.83301 -73.667 31.5 -95s54.167 -32 97.5 -32c42.667 0 75 10.667 97 32s32.667 53 32 95l-3 313h76z" />
    <glyph glyph-name="uni01D9" unicode="&#x1d9;" horiz-adv-x="626" 
d="M551 315l-0.998047 -72.001c1.33301 -78.667 -19.334 -140 -62.001 -184s-103.334 -66 -182.001 -66c-75.333 0 -133.166 21 -173.499 63s-59.833 101.333 -58.5 178l1 87l-1 320h79l-3 -397c-0.666992 -60 12.666 -105.167 39.999 -135.5s68 -45.5 122 -45.5
s95 14.333 123 43s41.667 71.334 41 128.001l-4 407h80zM442.002 924.999c-42 -30 -80.667 -60 -116 -90h-22c-46.667 38 -85.667 68 -117 90l15 34h10l30 -19l38 -25l34 -22l103 66h9zM266.002 800.999c7.33301 -7.33301 11.001 -17.333 11.001 -30
c0 -13.333 -3.83301 -23.833 -11.5 -31.5s-17.834 -11.5 -30.501 -11.5c-13.333 0 -23.5 3.66699 -30.5 11s-10.5 17.333 -10.5 30c0 13.333 3.83301 23.833 11.5 31.5s18.167 11.5 31.5 11.5c12 0 21.667 -3.66699 29 -11zM423.503 800.999
c7 -7.33301 10.501 -17.333 10.501 -30c0 -13.333 -3.83301 -23.833 -11.5 -31.5s-17.834 -11.5 -30.501 -11.5s-22.667 3.66699 -30 11s-11 17.333 -11 30c0 13.333 3.83301 23.833 11.5 31.5s18.167 11.5 31.5 11.5c12.667 0 22.5 -3.66699 29.5 -11z" />
    <glyph glyph-name="uni01DA" unicode="&#x1da;" horiz-adv-x="549" 
d="M404 782c-42 -30 -80.667 -60 -116 -90h-22c-46.667 38 -85.667 68 -117 90l15 34h10l30 -19l38 -25l34 -22l103 66h9zM228 658c7.33301 -7.33301 11.001 -17.333 11.001 -30c0 -13.333 -3.83301 -23.833 -11.5 -31.5s-17.834 -11.5 -30.501 -11.5
s-22.667 3.66699 -30 11s-11 17.333 -11 30c0 13.333 4 23.833 12 31.5s18.333 11.5 31 11.5c12 0 21.667 -3.66699 29 -11zM385.501 658c7 -7.33301 10.501 -17.333 10.501 -30c0 -13.333 -3.83301 -23.833 -11.5 -31.5s-17.834 -11.5 -30.501 -11.5
s-22.667 3.66699 -30 11s-11 17.333 -11 30c0 13.333 4 23.833 12 31.5s18.333 11.5 31 11.5s22.5 -3.66699 29.5 -11zM473.002 245v-72c0.666992 -56.667 -16.5 -100.667 -51.5 -132s-85.167 -47 -150.5 -47c-64.667 0 -114 15.5 -148 46.5s-50.333 75.167 -49 132.5l1 76
l-1 249h75l-4 -313c-0.666992 -42 9.83301 -73.667 31.5 -95s54.167 -32 97.5 -32c42.667 0 75 10.667 97 32s32.667 53 32 95l-3 313h76z" />
    <glyph glyph-name="uni01DB" unicode="&#x1db;" horiz-adv-x="626" 
d="M551 315l-0.998047 -72.001c1.33301 -78.667 -19.334 -140 -62.001 -184s-103.334 -66 -182.001 -66c-75.333 0 -133.166 21 -173.499 63s-59.833 101.333 -58.5 178l1 87l-1 320h79l-3 -397c-0.666992 -60 12.666 -105.167 39.999 -135.5s68 -45.5 122 -45.5
s95 14.333 123 43s41.667 71.334 41 128.001l-4 407h80zM428.002 906.999l-8 -37.999l-8 -5c-80.667 17.333 -149.667 33.666 -207 48.999l-5 9l13 50l8 3c62.667 -23.333 131.667 -46 207 -68zM266.002 801c7.33301 -7.33301 11.001 -17.333 11.001 -30
c0 -13.333 -3.83301 -23.833 -11.5 -31.5s-17.834 -11.5 -30.501 -11.5c-13.333 0 -23.5 3.66699 -30.5 11s-10.5 17.333 -10.5 30c0 13.333 3.83301 23.833 11.5 31.5s18.167 11.5 31.5 11.5c12 0 21.667 -3.66699 29 -11zM423.503 801
c7 -7.33301 10.501 -17.333 10.501 -30c0 -13.333 -3.83301 -23.833 -11.5 -31.5s-17.834 -11.5 -30.501 -11.5s-22.667 3.66699 -30 11s-11 17.333 -11 30c0 13.333 3.83301 23.833 11.5 31.5s18.167 11.5 31.5 11.5c12.667 0 22.5 -3.66699 29.5 -11z" />
    <glyph glyph-name="uni01DC" unicode="&#x1dc;" horiz-adv-x="549" 
d="M167 764l-5 8l13 49l8 5c65.333 -24.667 134.333 -47.334 207 -68.001l-8 -39l-8 -5c-66 14.667 -135 31.334 -207 50.001zM167 596c-7.33301 7.33301 -10.999 17.333 -10.999 30c0 13.333 4 23.833 12 31.5s18.333 11.5 31 11.5c12 0 21.667 -3.66699 29 -11
s11 -17.333 11 -30c0 -13.333 -3.83301 -23.833 -11.5 -31.5s-17.834 -11.5 -30.501 -11.5s-22.667 3.66699 -30 11zM324.001 596c-7.33301 7.33301 -10.999 17.333 -10.999 30c0 13.333 4 23.833 12 31.5s18.333 11.5 31 11.5s22.5 -3.66699 29.5 -11
s10.5 -17.333 10.5 -30c0 -13.333 -3.83301 -23.833 -11.5 -31.5s-17.834 -11.5 -30.501 -11.5s-22.667 3.66699 -30 11zM473.002 245v-72c0.666992 -56.667 -16.5 -100.667 -51.5 -132s-85.167 -47 -150.5 -47c-64.667 0 -114 15.5 -148 46.5s-50.333 75.167 -49 132.5
l1 76l-1 249h75l-4 -313c-0.666992 -42 9.83301 -73.667 31.5 -95s54.167 -32 97.5 -32c42.667 0 75 10.667 97 32s32.667 53 32 95l-3 313h76z" />
    <glyph glyph-name="Gcaron" unicode="&#x1e6;" horiz-adv-x="600" 
d="M538 601l-16.0029 -75.999l-10 -2c-32 20 -61.5 34.333 -88.5 43s-55.5 13 -85.5 13c-144.667 0 -217 -89.333 -217 -268c0 -86 16.833 -149.167 50.5 -189.5s85.834 -60.5 156.501 -60.5c18.667 0 37.5 1.66699 56.5 5s43.5 9.66602 73.5 18.999l2 75l-1 96l75 6l-2 -91
l4 -140c-43.333 -13.333 -81.666 -23 -114.999 -29s-65.666 -9 -96.999 -9c-95.333 0 -166.833 27 -214.5 81s-71.5 132 -71.5 234c0 110 27 193.833 81 251.5s131 86.5 231 86.5c67.333 0 130 -15 188 -45zM453.997 815.001c-48.667 -34 -87.332 -64.333 -115.999 -91h-22
c-34.667 30 -73.667 60.333 -117 91l15 34h10c42 -26 76 -48 102 -66c17.333 12 51.666 34 102.999 66h9z" />
    <glyph glyph-name="gcaron" unicode="&#x1e7;" horiz-adv-x="526" 
d="M413 696c-38.667 -38.667 -79.334 -83.333 -122.001 -134h-24c-41.333 51.333 -81.666 96 -120.999 134l22 32h9c41.333 -39.333 75.333 -74 102 -104c25.333 28 59.333 62.667 102 104h10zM463 469.001l-25.001 -71.999h-9c-24.667 16 -47.334 27.167 -68.001 33.5
s-43 9.5 -67 9.5c-56.667 0 -99.167 -16 -127.5 -48s-42.5 -82 -42.5 -150c0 -65.333 13 -112.5 39 -141.5s67.333 -43.5 124 -43.5c16.667 0 32.667 1.5 48 4.5s34 8.5 56 16.5v50l-1 71l69 5v-180c-67.333 -20 -125.666 -30 -174.999 -30
c-78.667 0 -138.167 21.167 -178.5 63.5s-60.5 102.833 -60.5 181.5c0 85.333 22.833 150.666 68.5 195.999s109.834 68 192.501 68c52 0 104.333 -11.333 157 -34z" />
    <glyph glyph-name="uni01EA" unicode="&#x1ea;" horiz-adv-x="635" 
d="M559 136.5c-26 -53 -64.001 -91.8301 -114.001 -116.497c-42 -46.667 -68.833 -77.834 -80.5 -93.501s-17.5 -29.167 -17.5 -40.5c0 -21.333 12 -32 36 -32c22 0 46.667 13 74 39l5 -1l14 -42c-31.333 -32.667 -65 -49 -101 -49c-25.333 0 -45.666 6.5 -60.999 19.5
s-23 30.833 -23 53.5c0 17.333 5.16699 34.666 15.5 51.999s30.5 40.666 60.5 69.999c-16 -2.66699 -35.333 -4 -58 -4c-86.667 0 -153.5 28 -200.5 84s-70.5 135.667 -70.5 239c0 106.667 24.833 188.667 74.5 246s120.5 86 212.5 86c88 0 155.5 -27 202.5 -81
s70.5 -131.667 70.5 -233c0 -78 -13 -143.5 -39 -196.5zM168.499 121.003c32.333 -44 81.166 -65.999 146.499 -65.999c133.333 0 200 87.667 200 263c0 89.333 -16.167 155.666 -48.5 198.999s-81.166 65 -146.499 65c-133.333 0 -200 -86 -200 -258
c0 -91.333 16.167 -159 48.5 -203z" />
    <glyph glyph-name="uni01EB" unicode="&#x1eb;" horiz-adv-x="557" 
d="M481 108.5c-20.667 -41 -50.668 -71.1689 -90.001 -90.502c-38 -42.667 -62.5 -71.334 -73.5 -86.001s-16.5 -27.667 -16.5 -39c0 -21.333 12 -32 36 -32c22 0 46.667 13 74 39l5 -1l14 -42c-31.333 -32.667 -65 -49 -101 -49c-25.333 0 -45.666 6.5 -60.999 19.5
s-23 30.833 -23 53.5c0 16.667 4.66699 33.334 14 50.001s27.333 38.334 54 65.001c-12.667 -2 -26.667 -3 -42 -3c-72 0 -127.667 21.833 -167 65.5s-59 105.834 -59 186.501c0 82.667 21 146.5 63 191.5s101.333 67.5 178 67.5c72.667 0 128.5 -21.333 167.5 -64
s58.5 -103 58.5 -181c0 -59.333 -10.333 -109.5 -31 -150.5zM160.999 102.998c25.333 -31.333 64.002 -47 116.002 -47c53.333 0 93 15.333 119 46s39 78.667 39 144c0 67.333 -12.833 116.666 -38.5 147.999s-64.834 47 -117.501 47s-91.834 -15 -117.501 -45
s-38.5 -77.333 -38.5 -142c0 -69.333 12.667 -119.666 38 -150.999z" />
    <glyph glyph-name="Aringacute" unicode="&#x1fa;" horiz-adv-x="578" 
d="M213 787l-9.00098 38c84.667 26 153.334 49.667 206.001 71l9 -4l13 -49l-4 -8c-60 -17.333 -129 -35 -207 -53zM555.999 0l-82 -0.000976562l-15 63l-36 109l-144 3l-130 -3l-39 -105l-16 -67h-80l231 615c-22 15.333 -33 38.333 -33 69c0 25.333 7.66699 45.5 23 60.5
s36 22.5 62 22.5s46.333 -7.5 61 -22.5s22 -34.5 22 -58.5c0 -31.333 -11.667 -54.666 -35 -69.999zM261.999 716.499c-8 -7.66699 -11.999 -18.165 -11.999 -31.498c0 -14.667 4.16699 -25.834 12.5 -33.501s19.5 -11.5 33.5 -11.5c13.333 0 24.166 3.66699 32.499 11
s12.5 18 12.5 32c0 13.333 -4 24.166 -12 32.499s-19.333 12.5 -34 12.5c-14 0 -25 -3.83301 -33 -11.5zM400 240.001l-103 313h-7l-116 -313l112 -2z" />
    <glyph glyph-name="aringacute" unicode="&#x1fb;" horiz-adv-x="512" 
d="M177 758l-7.99902 38c67.333 20 135.666 43.333 204.999 70l9 -3l12 -50l-3 -7c-54.667 -16 -123.667 -33.667 -207 -53zM199.001 714.5c15.333 15 36 22.5 62 22.5s46.333 -7.5 61 -22.5s22 -34.5 22 -58.5c0 -26 -8.16699 -46.5 -24.5 -61.5s-36.833 -22.5 -61.5 -22.5
c-24 0 -43.667 7.16699 -59 21.5s-23 34.5 -23 60.5c0 25.333 7.66699 45.5 23 60.5zM293.501 686c-7.66699 8 -19.165 12.001 -34.498 12.001c-14.667 0 -25.834 -3.83301 -33.501 -11.5s-11.5 -18.167 -11.5 -31.5c0 -14.667 4.16699 -25.834 12.5 -33.501
s19.5 -11.5 33.5 -11.5c13.333 0 24.166 3.66699 32.499 11s12.5 18 12.5 32s-3.83301 25 -11.5 33zM478.003 0.000976562h-75l-12 54l-26 74l-119 1l-106 -1l-27 -70l-14 -58h-74l192 498h86zM344.003 189.001l-83 236h-6l-91 -236l88 -1z" />
    <glyph glyph-name="AEacute" unicode="&#x1fc;" horiz-adv-x="807" 
d="M792 62l-7 -62h-348l-5 64l-29 195l-238 -54l-73 -137l-25 -68h-83l338 641h373l6 -8l-8 -62l-162 4h-97l35 -237l215 45l7 -6l4 -58l-217 -43l31 -211h113l164 5zM393 322l-35 236h-6l-147 -277zM609 862l19.999 -47l-2 -8c-63.333 -29.333 -128.666 -58 -195.999 -86
l-9 4l-14 36c70 34.667 133.667 69 191 103z" />
    <glyph glyph-name="aeacute" unicode="&#x1fd;" horiz-adv-x="700" 
d="M360 560l-22 32c65.333 53.333 120 101.666 164 144.999l9 -1l30 -42l-2 -8c-66 -51.333 -122.667 -93.666 -170 -126.999zM674 60l-6 -60h-293l-4 53l-21 136l-205 -46l-49 -86l-20 -57h-74l277 498h316l5 -6l-7 -58l-133 5h-79l28 -176l176 38l6 -4l4 -60l-177 -34
l22 -142h92l137 4zM340 248l-28 177h-6l-120 -211z" />
    <glyph glyph-name="Oslashacute" unicode="&#x1fe;" horiz-adv-x="635" 
d="M568 500c20 -46 30.001 -101.667 30.001 -167c0 -109.333 -25 -193.5 -75 -252.5s-121.333 -88.5 -214 -88.5c-40 0 -75.667 6 -107 18l-53 -112l-49 17l-3 8l53 115c-36.667 25.333 -64.5 61.5 -83.5 108.5s-28.5 103.167 -28.5 168.5
c0 106.667 24.833 188.667 74.5 246s120.5 86 212.5 86c37.333 0 71.666 -5 102.999 -15l43 92l48 -18l4 -10l-42 -90c38 -24.667 67 -60 87 -106zM182.001 105l217 464c-22 8.66699 -48.333 13 -79 13c-133.333 0 -200 -86 -200 -258c0 -102.667 20.667 -175.667 62 -219z
M515.001 318c0 104 -21.999 177 -65.999 219l-219 -466c23.333 -10.667 51.666 -16 84.999 -16c133.333 0 200 87.667 200 263zM428.002 863l19.999 -47l-2 -8c-63.333 -29.333 -128.666 -58 -195.999 -86l-9 4l-14 36c70 34.667 133.667 69 191 103z" />
    <glyph glyph-name="oslashacute" unicode="&#x1ff;" horiz-adv-x="557" 
d="M209 561l-22 32c65.333 53.333 120 101.666 164 144.999l9 -1l30 -42l-2 -8c-66 -51.333 -122.667 -93.666 -170 -126.999zM488.5 385.5c15.667 -35.667 23.501 -77.833 23.501 -126.5c0 -84.667 -20.833 -150.167 -62.5 -196.5s-101.167 -69.5 -178.5 -69.5
c-30.667 0 -58.334 4 -83.001 12l-53 -105l-44 21l-3 8l50 100c-30 20.667 -53 49.167 -69 85.5s-24 79.833 -24 130.5c0 82.667 21 146.5 63 191.5s101.333 67.5 178 67.5c30.667 0 58.667 -4 84 -12l38 76l42 -20l5 -9l-35 -70c30 -20 52.833 -47.833 68.5 -83.5z
M170.001 93.001l170.001 339c-18 6 -38.333 9 -61 9c-52.667 0 -91.834 -15 -117.501 -45s-38.5 -77.333 -38.5 -142c0 -76 15.667 -129.667 47 -161zM396.002 102.001c26 30.667 39 78.667 39 144c0 74 -15.667 126.667 -47 158l-171 -340c19.333 -5.33301 39.333 -8 60 -8
c53.333 0 93 15.333 119 46z" />
    <glyph glyph-name="uni0200" unicode="&#x200;" horiz-adv-x="578" 
d="M556 0h-82l-15 64l-36 110l-144 3l-130 -3l-39 -106l-16 -68h-80l235 641h93zM401 242l-104 316h-7l-116 -316l112 -2zM233 719l-7.99902 1l-41 37l-78 73l1 9l36 25h8c13.333 -16 43.666 -50 90.999 -102l18 -19zM376.001 719l-9 1l-32 29l-86 81l1 9l36 25h8
c28.667 -34 65 -74.333 109 -121z" />
    <glyph glyph-name="uni0201" unicode="&#x201;" horiz-adv-x="512" 
d="M84 703l-0.000976562 7.99902l37 27l8 -1c52.667 -63.333 97.334 -114.666 134.001 -153.999l-27 -24l-7 1c-60 56 -108.333 103.667 -145 143zM224.999 702.999v8l37 27l8 -1c53.333 -64 98.333 -115.333 135 -154l-27 -24l-9 1c-54 51.333 -102 99 -144 143z
M477.999 -0.000976562h-75l-12 54l-26 74l-119 1l-106 -1l-27 -70l-14 -58h-74l192 498h86zM343.999 188.999l-83 236h-6l-91 -236l88 -1z" />
    <glyph glyph-name="uni0202" unicode="&#x202;" horiz-adv-x="578" 
d="M556 0h-82l-15 64l-36 110l-144 3l-130 -3l-39 -106l-16 -68h-80l235 641h93zM401 242l-104 316h-7l-116 -316l112 -2zM162 751c18 76.667 61.0029 115 129.003 115c34.667 0 62.167 -10 82.5 -30s34.166 -48.333 41.499 -85l-22 -29h-12
c-12.667 58 -43.334 87 -92.001 87s-79.334 -29 -92.001 -87h-12z" />
    <glyph glyph-name="uni0203" unicode="&#x203;" horiz-adv-x="512" 
d="M156 579l-22.9971 29c18 76.667 61 115 129 115c34.667 0 62.167 -10 82.5 -30s34.166 -48.333 41.499 -85l-22 -29h-12c-12.667 58 -43.334 87 -92.001 87s-79.334 -29 -92.001 -87h-12zM478.003 0h-75l-12 54l-26 74l-119 1l-106 -1l-27 -70l-14 -58h-74l192 498h86z
M344.003 189l-83 236h-6l-91 -236l88 -1z" />
    <glyph glyph-name="uni0204" unicode="&#x204;" horiz-adv-x="482" 
d="M459 62l-6 -62h-360l5 193l-5 448h361l4 -8l-6 -62l-151 3l-127 -2l-2 -210l120 -2l106 3l6 -7l-7 -62l-112 2l-114 -1l-1 -95l3 -133l127 -1l154 4zM217 719l-7.99902 1l-41 37l-78 73l1 9l36 25h8c13.333 -16 43.666 -50 90.999 -102l18 -19zM360.001 719l-9 1l-32 29
l-86 81l1 9l36 25h8c28.667 -34 65 -74.333 109 -121z" />
    <glyph glyph-name="uni0205" unicode="&#x205;" horiz-adv-x="435" 
d="M65 703l-0.000976562 7.99902l37 27l8 -1c52.667 -63.333 97.334 -114.666 134.001 -153.999l-27 -24l-7 1c-60 56 -108.333 103.667 -145 143zM205.999 702.999v8l37 27l8 -1c53.333 -64 98.333 -115.333 135 -154l-27 -24l-9 1c-54 51.333 -102 99 -144 143z
M393.999 63.999l6 -6l-7 -58h-303l3 150l-3 348h305l5 -6l-6 -58l-126 4l-104 -1l-1 -151l99 -1l87 3l5 -7l-6 -59l-92 3l-93 -1l-1 -68l1 -95l98 -1z" />
    <glyph glyph-name="uni0206" unicode="&#x206;" horiz-adv-x="482" 
d="M459 62l-6 -62h-360l5 193l-5 448h361l4 -8l-6 -62l-151 3l-127 -2l-2 -210l120 -2l106 3l6 -7l-7 -62l-112 2l-114 -1l-1 -95l3 -133l127 -1l154 4zM146 751c18 76.667 61.0029 115 129.003 115c34.667 0 62.167 -10 82.5 -30s34.166 -48.333 41.499 -85l-22 -29h-12
c-12.667 58 -43.334 87 -92.001 87s-79.334 -29 -92.001 -87h-12z" />
    <glyph glyph-name="uni0207" unicode="&#x207;" horiz-adv-x="435" 
d="M138 579l-22.9971 29c18 76.667 61 115 129 115c34.667 0 62.167 -10 82.5 -30s34.166 -48.333 41.499 -85l-22 -29h-12c-12.667 58 -43.334 87 -92.001 87s-79.334 -29 -92.001 -87h-12zM394.003 64l6 -6l-7 -58h-303l3 150l-3 348h305l5 -6l-6 -58l-126 4l-104 -1
l-1 -151l99 -1l87 3l5 -7l-6 -59l-92 3l-93 -1l-1 -68l1 -95l98 -1z" />
    <glyph glyph-name="uni0208" unicode="&#x208;" horiz-adv-x="268" 
d="M170 200l4 -200h-81l5 193l-5 448h82zM77 719l-7.99902 1l-41 37l-78 73l1 9l36 25h8c13.333 -16 43.666 -50 90.999 -102l18 -19zM220.001 719l-9 1l-32 29l-86 81l1 9l36 25h8c28.667 -34 65 -74.333 109 -121z" />
    <glyph glyph-name="uni0209" unicode="&#x209;" horiz-adv-x="259" 
d="M-1 737l-7.99902 1.00098l-37 -27v-8c36.667 -39.333 85 -87 145 -143l7 -1l27 24c-36.667 39.333 -81.334 90.666 -134.001 153.999zM140.001 737.001l-8 1l-37 -27v-8c42 -44 90 -91.667 144 -143l9 -1l27 24c-36.667 38.667 -81.667 90 -135 154zM162.001 156.001
l2 -156h-74l3 150l-3 348h75z" />
    <glyph glyph-name="uni020A" unicode="&#x20a;" horiz-adv-x="268" 
d="M170 200l4 -200h-81l5 193l-5 448h82zM6 751c18 76.667 61.0029 115 129.003 115c34.667 0 62.167 -10 82.5 -30s34.166 -48.333 41.499 -85l-22 -29h-12c-12.667 58 -43.334 87 -92.001 87s-79.334 -29 -92.001 -87h-12z" />
    <glyph glyph-name="uni020B" unicode="&#x20b;" horiz-adv-x="259" 
d="M3 608c18 76.667 61.0029 115 129.003 115c34.667 0 62.167 -10 82.5 -30s34.166 -48.333 41.499 -85l-22 -29h-12c-12.667 58 -43.334 87 -92.001 87s-79.334 -29 -92.001 -87h-12zM162.003 156l2 -156h-74l3 150l-3 348h75z" />
    <glyph glyph-name="uni020C" unicode="&#x20c;" horiz-adv-x="635" 
d="M527.5 566c47 -54 70.5 -131.667 70.5 -233c0 -109.333 -25 -193.5 -75 -252.5s-121.333 -88.5 -214 -88.5c-86.667 0 -153.5 28 -200.5 84s-70.5 135.667 -70.5 239c0 106.667 24.833 188.667 74.5 246s120.5 86 212.5 86c88 0 155.5 -27 202.5 -81zM120 324
c0 -91.333 16.167 -158.999 48.5 -202.999s81.166 -66 146.499 -66c133.333 0 200 87.667 200 263c0 89.333 -16.167 155.666 -48.5 198.999s-81.166 65 -146.499 65c-133.333 0 -200 -86 -200 -258zM262 719.001l-7.99902 1l-41 37l-78 73l1 9l36 25h8
c13.333 -16 43.666 -50 90.999 -102l18 -19zM405.001 719.001l-9 1l-32 29l-86 81l1 9l36 25h8c28.667 -34 65 -74.333 109 -121z" />
    <glyph glyph-name="uni020D" unicode="&#x20d;" horiz-adv-x="557" 
d="M147 737l-7.99902 1.00098l-37 -27v-8c36.667 -39.333 85 -87 145 -143l7 -1l27 24c-36.667 39.333 -81.334 90.666 -134.001 153.999zM288.001 737.001l-8 1l-37 -27v-8c42 -44 90 -91.667 144 -143l9 -1l27 24c-36.667 38.667 -81.667 90 -135 154zM453.501 440.001
c39 -42.667 58.5 -103.001 58.5 -181.001c0 -84.667 -20.833 -150.167 -62.5 -196.5s-101.167 -69.5 -178.5 -69.5c-72 0 -127.667 21.833 -167 65.5s-59 105.834 -59 186.501c0 82.667 21 146.5 63 191.5s101.333 67.5 178 67.5c72.667 0 128.5 -21.333 167.5 -64z
M161.501 396c-25.667 -30 -38.498 -77.333 -38.498 -142c0 -69.333 12.667 -119.666 38 -150.999s64 -47 116 -47c53.333 0 93 15.333 119 46s39 78.667 39 144c0 67.333 -12.833 116.666 -38.5 147.999s-64.834 47 -117.501 47s-91.834 -15 -117.501 -45z" />
    <glyph glyph-name="uni020E" unicode="&#x20e;" horiz-adv-x="635" 
d="M527.5 566c47 -54 70.5 -131.667 70.5 -233c0 -109.333 -25 -193.5 -75 -252.5s-121.333 -88.5 -214 -88.5c-86.667 0 -153.5 28 -200.5 84s-70.5 135.667 -70.5 239c0 106.667 24.833 188.667 74.5 246s120.5 86 212.5 86c88 0 155.5 -27 202.5 -81zM120 324
c0 -91.333 16.167 -158.999 48.5 -202.999s81.166 -66 146.499 -66c133.333 0 200 87.667 200 263c0 89.333 -16.167 155.666 -48.5 198.999s-81.166 65 -146.499 65c-133.333 0 -200 -86 -200 -258zM191 751.001c18 76.667 61.0029 115 129.003 115
c34.667 0 62.167 -10 82.5 -30s34.166 -48.333 41.499 -85l-22 -29h-12c-12.667 58 -43.334 87 -92.001 87s-79.334 -29 -92.001 -87h-12z" />
    <glyph glyph-name="uni020F" unicode="&#x20f;" horiz-adv-x="557" 
d="M152 608c18 76.667 61.0029 115 129.003 115c34.667 0 62.167 -10 82.5 -30s34.166 -48.333 41.499 -85l-22 -29h-12c-12.667 58 -43.334 87 -92.001 87s-79.334 -29 -92.001 -87h-12zM453.503 440c39 -42.667 58.5 -103.001 58.5 -181.001
c0 -84.667 -20.833 -150.167 -62.5 -196.5s-101.167 -69.5 -178.5 -69.5c-72 0 -127.667 21.833 -167 65.5s-59 105.834 -59 186.501c0 82.667 21 146.5 63 191.5s101.333 67.5 178 67.5c72.667 0 128.5 -21.333 167.5 -64zM161.503 395.999
c-25.667 -30 -38.498 -77.333 -38.498 -142c0 -69.333 12.667 -119.666 38 -150.999s64 -47 116 -47c53.333 0 93 15.333 119 46s39 78.667 39 144c0 67.333 -12.833 116.666 -38.5 147.999s-64.834 47 -117.501 47s-91.834 -15 -117.501 -45z" />
    <glyph glyph-name="uni0210" unicode="&#x210;" horiz-adv-x="555" 
d="M520 19l-1 -9.99902c-24 -9.33301 -48.667 -15.333 -74 -18l-11 7c-54.667 82 -103.667 162 -147 240h-117v-38l4 -200h-81l5 193l-5 448l196 1c62.667 0 111.167 -15.833 145.5 -47.5s51.5 -76.834 51.5 -135.501c0 -44 -11.5 -83.5 -34.5 -118.5
s-55.5 -62.167 -97.5 -81.5c44 -72.667 99.333 -152.667 166 -240zM171 306.001l120 -2.99902c74.667 21.333 112 71 112 149c0 40.667 -11 71.167 -33 91.5s-55 31.166 -99 32.499l-97 -3zM221 719.002l-7.99902 1l-41 37l-78 73l1 9l36 25h8
c13.333 -16 43.666 -50 90.999 -102l18 -19zM364.001 719.002l-9 1l-32 29l-86 81l1 9l36 25h8c28.667 -34 65 -74.333 109 -121z" />
    <glyph glyph-name="uni0211" unicode="&#x211;" horiz-adv-x="496" 
d="M54 703l-0.000976562 7.99902l37 27l8 -1c52.667 -63.333 97.334 -114.666 134.001 -153.999l-27 -24l-7 1c-60 56 -108.333 103.667 -145 143zM194.999 702.999v8l37 27l8 -1c53.333 -64 98.333 -115.333 135 -154l-27 -24l-9 1c-54 51.333 -102 99 -144 143z
M453.999 17.999l-1.00098 -9.99902c-28 -8.66699 -51 -13.667 -69 -15l-13 8c-50.667 76.667 -89 137 -115 181l-94 -1v-25l2 -156h-74l3 150l-3 348l170 1c52.667 0 93.167 -12.333 121.5 -37s42.5 -60.334 42.5 -107.001c0 -34 -9.16699 -64.333 -27.5 -91
s-44.166 -47.667 -77.499 -63c40.667 -62 85.667 -123 135 -183zM162.998 243l93.999 -3c59.333 16.667 89 53 89 109c0 29.333 -8.66699 51.333 -26 66s-43.666 22.667 -78.999 24l-77 -1z" />
    <glyph glyph-name="uni0212" unicode="&#x212;" horiz-adv-x="555" 
d="M520 19l-1 -9.99902c-24 -9.33301 -48.667 -15.333 -74 -18l-11 7c-54.667 82 -103.667 162 -147 240h-117v-38l4 -200h-81l5 193l-5 448l196 1c62.667 0 111.167 -15.833 145.5 -47.5s51.5 -76.834 51.5 -135.501c0 -44 -11.5 -83.5 -34.5 -118.5
s-55.5 -62.167 -97.5 -81.5c44 -72.667 99.333 -152.667 166 -240zM171 306.001l120 -2.99902c74.667 21.333 112 71 112 149c0 40.667 -11 71.167 -33 91.5s-55 31.166 -99 32.499l-97 -3zM150 751.002c18 76.667 61.0029 115 129.003 115c34.667 0 62.167 -10 82.5 -30
s34.166 -48.333 41.499 -85l-22 -29h-12c-12.667 58 -43.334 87 -92.001 87s-79.334 -29 -92.001 -87h-12z" />
    <glyph glyph-name="uni0213" unicode="&#x213;" horiz-adv-x="496" 
d="M126 579l-22.9971 29c18 76.667 61 115 129 115c34.667 0 62.167 -10 82.5 -30s34.166 -48.333 41.499 -85l-22 -29h-12c-12.667 58 -43.334 87 -92.001 87s-79.334 -29 -92.001 -87h-12zM454.003 18l-1.00098 -9.99902c-28 -8.66699 -51 -13.667 -69 -15l-13 8
c-50.667 76.667 -89 137 -115 181l-94 -1v-25l2 -156h-74l3 150l-3 348l170 1c52.667 0 93.167 -12.333 121.5 -37s42.5 -60.334 42.5 -107.001c0 -34 -9.16699 -64.333 -27.5 -91s-44.166 -47.667 -77.499 -63c40.667 -62 85.667 -123 135 -183zM163.002 243.001l93.999 -3
c59.333 16.667 89 53 89 109c0 29.333 -8.66699 51.333 -26 66s-43.666 22.667 -78.999 24l-77 -1z" />
    <glyph glyph-name="uni0214" unicode="&#x214;" horiz-adv-x="626" 
d="M551 315l-0.998047 -72.001c1.33301 -78.667 -19.334 -140 -62.001 -184s-103.334 -66 -182.001 -66c-75.333 0 -133.166 21 -173.499 63s-59.833 101.333 -58.5 178l1 87l-1 320h79l-3 -397c-0.666992 -60 12.666 -105.167 39.999 -135.5s68 -45.5 122 -45.5
s95 14.333 123 43s41.667 71.334 41 128.001l-4 407h80zM258.002 718.999l-7.99902 1l-41 37l-78 73l1 9l36 25h8c13.333 -16 43.666 -50 90.999 -102l18 -19zM401.003 718.999l-9 1l-32 29l-86 81l1 9l36 25h8c28.667 -34 65 -74.333 109 -121z" />
    <glyph glyph-name="uni0215" unicode="&#x215;" horiz-adv-x="549" 
d="M144 737l-7.99902 1.00098l-37 -27v-8c36.667 -39.333 85 -87 145 -143l7 -1l27 24c-36.667 39.333 -81.334 90.666 -134.001 153.999zM285.001 737.001l-8 1l-37 -27v-8c42 -44 90 -91.667 144 -143l9 -1l27 24c-36.667 38.667 -81.667 90 -135 154zM473.001 245.001
v-72c0.666992 -56.667 -16.5 -100.667 -51.5 -132s-85.167 -47 -150.5 -47c-64.667 0 -114 15.5 -148 46.5s-50.333 75.167 -49 132.5l1 76l-1 249h75l-4 -313c-0.666992 -42 9.83301 -73.667 31.5 -95s54.167 -32 97.5 -32c42.667 0 75 10.667 97 32s32.667 53 32 95
l-3 313h76z" />
    <glyph glyph-name="uni0216" unicode="&#x216;" horiz-adv-x="626" 
d="M551 315l-0.998047 -72.001c1.33301 -78.667 -19.334 -140 -62.001 -184s-103.334 -66 -182.001 -66c-75.333 0 -133.166 21 -173.499 63s-59.833 101.333 -58.5 178l1 87l-1 320h79l-3 -397c-0.666992 -60 12.666 -105.167 39.999 -135.5s68 -45.5 122 -45.5
s95 14.333 123 43s41.667 71.334 41 128.001l-4 407h80zM187.002 750.999c18 76.667 61.0029 115 129.003 115c34.667 0 62.167 -10 82.5 -30s34.166 -48.333 41.499 -85l-22 -29h-12c-12.667 58 -43.334 87 -92.001 87s-79.334 -29 -92.001 -87h-12z" />
    <glyph glyph-name="uni0217" unicode="&#x217;" horiz-adv-x="549" 
d="M149 608c18 76.667 61.0029 115 129.003 115c34.667 0 62.167 -10 82.5 -30s34.166 -48.333 41.499 -85l-22 -29h-12c-12.667 58 -43.334 87 -92.001 87s-79.334 -29 -92.001 -87h-12zM473.003 245v-72c0.666992 -56.667 -16.5 -100.667 -51.5 -132
s-85.167 -47 -150.5 -47c-64.667 0 -114 15.5 -148 46.5s-50.333 75.167 -49 132.5l1 76l-1 249h75l-4 -313c-0.666992 -42 9.83301 -73.667 31.5 -95s54.167 -32 97.5 -32c42.667 0 75 10.667 97 32s32.667 53 32 95l-3 313h76z" />
    <glyph glyph-name="Scommaaccent" unicode="&#x218;" horiz-adv-x="472" 
d="M410 616l-13.0049 -77.0029l-14 -4c-19.333 14.667 -39.833 26 -61.5 34s-43.167 12 -64.5 12c-24.667 0 -46.167 -5 -64.5 -15s-32.333 -23 -42 -39s-14.5 -32.667 -14.5 -50c0 -18 5.5 -33.833 16.5 -47.5s24.833 -25.5 41.5 -35.5s39.334 -22 68.001 -36
c36 -16.667 65 -32.167 87 -46.5s40.833 -32.5 56.5 -54.5s23.5 -48.667 23.5 -80c0 -33.333 -9 -64 -27 -92s-43.333 -50.333 -76 -67s-70 -25 -112 -25c-28 0 -57.167 3.83301 -87.5 11.5s-58.5 18.834 -84.5 33.501l10 82l11 5c23.333 -22.667 49.166 -39.5 77.499 -50.5
s55.5 -16.5 81.5 -16.5c25.333 0 47.833 5 67.5 15s34.667 23.333 45 40s15.5 34.334 15.5 53.001c0 28 -10.667 50.5 -32 67.5s-53.666 35.5 -96.999 55.5c-35.333 17.333 -63.666 32.833 -84.999 46.5s-39.666 31.334 -54.999 53.001s-23 48.167 -23 79.5
c0 32.667 8.83301 62.667 26.5 90s42.334 48.833 74.001 64.5s67.834 23.5 108.501 23.5c46 0 93.667 -10 143 -30zM286.995 -118.003c0 -40.667 -29.333 -82.332 -88 -124.999l-25 23v7c34 26.667 51 54 51 82c0 16.667 -9.66699 31 -29 43v8
c16.667 11.333 33.667 19.333 51 24c26.667 -16.667 40 -37.334 40 -62.001z" />
    <glyph glyph-name="scommaaccent" unicode="&#x219;" horiz-adv-x="425" 
d="M359 479l-12.9971 -74.001l-12 -3c-18.667 14.667 -36.334 25.5 -53.001 32.5s-34 10.5 -52 10.5c-28.667 0 -51.334 -7.5 -68.001 -22.5s-25 -32.167 -25 -51.5s8.16699 -35 24.5 -47s41.5 -25.333 75.5 -40c30 -13.333 53.833 -25.333 71.5 -36s33 -24.834 46 -42.501
s19.5 -39.167 19.5 -64.5c0 -26 -7 -50.167 -21 -72.5s-34.5 -40.333 -61.5 -54s-59.167 -20.5 -96.5 -20.5c-23.333 0 -47.833 2.83301 -73.5 8.5s-49.5 14.167 -71.5 25.5l9 79l10 4c18.667 -18.667 40.5 -33.167 65.5 -43.5s48.167 -15.5 69.5 -15.5c28 0 51 7.5 69 22.5
s27 33.167 27 54.5c0 20 -8.16699 36 -24.5 48s-41.833 26 -76.5 42c-28.667 12.667 -52.167 24.334 -70.5 35.001s-33.833 24.834 -46.5 42.501s-19 39.167 -19 64.5c0 26.667 7.16699 50.667 21.5 72s34.666 38.333 60.999 51s57.166 19 92.499 19
c40.667 0 81.334 -8 122.001 -24zM254.003 -118.001c0 -40.667 -29.333 -82.332 -88 -124.999l-25 23v7c34 26.667 51 54 51 82c0 16.667 -9.66699 31 -29 43v8c16.667 11.333 33.667 19.333 51 24c26.667 -16.667 40 -37.334 40 -62.001z" />
    <glyph glyph-name="uni021A" unicode="&#x21a;" horiz-adv-x="490" 
d="M469 633l-6 -62l-112 6h-65l-3 -377l3 -200h-81l6 193l-5 384h-65l-114 -6l-5 8l6 62h435zM298 -118c0 -40.667 -29.333 -82.332 -88 -124.999l-25 23v7c34 26.667 51 54 51 82c0 16.667 -9.66699 31 -29 43v8c16.667 11.333 33.667 19.333 51 24
c26.667 -16.667 40 -37.334 40 -62.001z" />
    <glyph glyph-name="uni021B" unicode="&#x21b;" horiz-adv-x="437" 
d="M405 492l-5 -63l-93 7h-50l-3 -280l3 -156h-75l3 150l-2 286h-50l-95 -7l-6 7l6 62h363zM276 -118c0 -40.667 -29.333 -82.332 -88 -124.999l-25 23v7c34 26.667 51 54 51 82c0 16.667 -9.66699 31 -29 43v8c16.667 11.333 33.667 19.333 51 24
c26.667 -16.667 40 -37.334 40 -62.001z" />
    <glyph glyph-name="uni022A" unicode="&#x22a;" horiz-adv-x="635" 
d="M527.5 566c47 -54 70.5 -131.667 70.5 -233c0 -109.333 -25 -193.5 -75 -252.5s-121.333 -88.5 -214 -88.5c-86.667 0 -153.5 28 -200.5 84s-70.5 135.667 -70.5 239c0 106.667 24.833 188.667 74.5 246s120.5 86 212.5 86c88 0 155.5 -27 202.5 -81zM120 324
c0 -91.333 16.167 -158.999 48.5 -202.999s81.166 -66 146.499 -66c133.333 0 200 87.667 200 263c0 89.333 -16.167 155.666 -48.5 198.999s-81.166 65 -146.499 65c-133.333 0 -200 -86 -200 -258zM442 925.001l-5 -47h-233l-6 6l4 47h234zM270 801.001
c7.33301 -7.33301 11.001 -17.333 11.001 -30c0 -13.333 -3.83301 -23.833 -11.5 -31.5s-17.834 -11.5 -30.501 -11.5c-13.333 0 -23.5 3.66699 -30.5 11s-10.5 17.333 -10.5 30c0 13.333 3.83301 23.833 11.5 31.5s18.167 11.5 31.5 11.5c12 0 21.667 -3.66699 29 -11z
M427.501 801.001c7 -7.33301 10.501 -17.333 10.501 -30c0 -13.333 -3.83301 -23.833 -11.5 -31.5s-17.834 -11.5 -30.501 -11.5s-22.667 3.66699 -30 11s-11 17.333 -11 30c0 13.333 3.83301 23.833 11.5 31.5s18.167 11.5 31.5 11.5c12.667 0 22.5 -3.66699 29.5 -11z" />
    <glyph glyph-name="uni022B" unicode="&#x22b;" horiz-adv-x="557" 
d="M403 782l-5 -47h-233l-6 6l4 47h234zM231 658c7.33301 -7.33301 11.001 -17.333 11.001 -30c0 -13.333 -3.83301 -23.833 -11.5 -31.5s-17.834 -11.5 -30.501 -11.5s-22.667 3.66699 -30 11s-11 17.333 -11 30c0 13.333 4 23.833 12 31.5s18.333 11.5 31 11.5
c12 0 21.667 -3.66699 29 -11zM388.501 658c7 -7.33301 10.501 -17.333 10.501 -30c0 -13.333 -3.83301 -23.833 -11.5 -31.5s-17.834 -11.5 -30.501 -11.5s-22.667 3.66699 -30 11s-11 17.333 -11 30c0 13.333 4 23.833 12 31.5s18.333 11.5 31 11.5
s22.5 -3.66699 29.5 -11zM453.502 440c39 -42.667 58.5 -103.001 58.5 -181.001c0 -84.667 -20.833 -150.167 -62.5 -196.5s-101.167 -69.5 -178.5 -69.5c-72 0 -127.667 21.833 -167 65.5s-59 105.834 -59 186.501c0 82.667 21 146.5 63 191.5s101.333 67.5 178 67.5
c72.667 0 128.5 -21.333 167.5 -64zM161.502 395.999c-25.667 -30 -38.498 -77.333 -38.498 -142c0 -69.333 12.667 -119.666 38 -150.999s64 -47 116 -47c53.333 0 93 15.333 119 46s39 78.667 39 144c0 67.333 -12.833 116.666 -38.5 147.999s-64.834 47 -117.501 47
s-91.834 -15 -117.501 -45z" />
    <glyph glyph-name="uni022C" unicode="&#x22c;" horiz-adv-x="635" 
d="M527.5 566c47 -54 70.5 -131.667 70.5 -233c0 -109.333 -25 -193.5 -75 -252.5s-121.333 -88.5 -214 -88.5c-86.667 0 -153.5 28 -200.5 84s-70.5 135.667 -70.5 239c0 106.667 24.833 188.667 74.5 246s120.5 86 212.5 86c88 0 155.5 -27 202.5 -81zM120 324
c0 -91.333 16.167 -158.999 48.5 -202.999s81.166 -66 146.499 -66c133.333 0 200 87.667 200 263c0 89.333 -16.167 155.666 -48.5 198.999s-81.166 65 -146.499 65c-133.333 0 -200 -86 -200 -258zM459 806.001l0.00195312 -8l-56 -69l-8 -3
c-9.33301 1.33301 -33.333 8 -72 20c-32.667 11.333 -53 17 -61 17c-4.66699 0 -9.66699 -2.33301 -15 -7s-11.333 -11 -18 -19l-17 -20h-8l-24 26v7l55 68l9 4c14 -1.33301 38 -8 72 -20c3.33301 -1.33301 12.666 -4.33301 27.999 -9s26.333 -7 33 -7
c5.33301 0 10.666 2.33301 15.999 7s12 12 20 22l14 16h7zM432.002 940.001l-4 -47h-217l-5 6l4 46h217z" />
    <glyph glyph-name="uni022D" unicode="&#x22d;" horiz-adv-x="557" 
d="M393 796l-4 -47h-217l-5 6l4 46h217zM420 663l0.00195312 -8l-56 -69l-8 -3c-10 2 -34 8.66699 -72 20c-32.667 11.333 -53 17 -61 17c-4.66699 0 -9.66699 -2.33301 -15 -7s-11.333 -11 -18 -19l-17 -20h-8l-24 26v7l55 68l9 4c14 -1.33301 38 -8 72 -20
c3.33301 -1.33301 12.666 -4.33301 27.999 -9s26.333 -7 33 -7c5.33301 0 10.666 2.33301 15.999 7s12 12 20 22l14 16h7zM453.502 440c39 -42.667 58.5 -103.001 58.5 -181.001c0 -84.667 -20.833 -150.167 -62.5 -196.5s-101.167 -69.5 -178.5 -69.5
c-72 0 -127.667 21.833 -167 65.5s-59 105.834 -59 186.501c0 82.667 21 146.5 63 191.5s101.333 67.5 178 67.5c72.667 0 128.5 -21.333 167.5 -64zM161.502 395.999c-25.667 -30 -38.498 -77.333 -38.498 -142c0 -69.333 12.667 -119.666 38 -150.999s64 -47 116 -47
c53.333 0 93 15.333 119 46s39 78.667 39 144c0 67.333 -12.833 116.666 -38.5 147.999s-64.834 47 -117.501 47s-91.834 -15 -117.501 -45z" />
    <glyph glyph-name="uni0230" unicode="&#x230;" horiz-adv-x="635" 
d="M527.5 566c47 -54 70.5 -131.667 70.5 -233c0 -109.333 -25 -193.5 -75 -252.5s-121.333 -88.5 -214 -88.5c-86.667 0 -153.5 28 -200.5 84s-70.5 135.667 -70.5 239c0 106.667 24.833 188.667 74.5 246s120.5 86 212.5 86c88 0 155.5 -27 202.5 -81zM120 324
c0 -91.333 16.167 -158.999 48.5 -202.999s81.166 -66 146.499 -66c133.333 0 200 87.667 200 263c0 89.333 -16.167 155.666 -48.5 198.999s-81.166 65 -146.499 65c-133.333 0 -200 -86 -200 -258zM353 807.001c8 -8 12 -18.999 12 -32.999
c0 -14.667 -4.16699 -26.334 -12.5 -35.001s-19.833 -13 -34.5 -13c-14 0 -24.833 4 -32.5 12s-11.5 19.333 -11.5 34c0 14 4.16699 25.333 12.5 34s19.833 13 34.5 13c13.333 0 24 -4 32 -12zM432 913.002l-4 -47h-217l-5 6l4 46h217z" />
    <glyph glyph-name="uni0231" unicode="&#x231;" horiz-adv-x="557" 
d="M393 770l-4 -47h-217l-5 6l4 46h217zM313 664c8 -8 12 -18.999 12 -32.999c0 -14.667 -4.16699 -26.334 -12.5 -35.001s-19.833 -13 -34.5 -13c-14 0 -24.833 4 -32.5 12s-11.5 19.333 -11.5 34c0 14 4.16699 25.333 12.5 34s19.833 13 34.5 13c13.333 0 24 -4 32 -12z
M453.5 440.001c39 -42.667 58.5 -103.001 58.5 -181.001c0 -84.667 -20.833 -150.167 -62.5 -196.5s-101.167 -69.5 -178.5 -69.5c-72 0 -127.667 21.833 -167 65.5s-59 105.834 -59 186.501c0 82.667 21 146.5 63 191.5s101.333 67.5 178 67.5
c72.667 0 128.5 -21.333 167.5 -64zM161.5 396c-25.667 -30 -38.498 -77.333 -38.498 -142c0 -69.333 12.667 -119.666 38 -150.999s64 -47 116 -47c53.333 0 93 15.333 119 46s39 78.667 39 144c0 67.333 -12.833 116.666 -38.5 147.999s-64.834 47 -117.501 47
s-91.834 -15 -117.501 -45z" />
    <glyph glyph-name="uni0232" unicode="&#x232;" horiz-adv-x="528" 
d="M292 187l2 -187h-79l4 187l-1 42l-203 412h86l13 -36l140 -288h7l154 286l15 38h84l-221 -409zM405 812l-5 -47h-283l-6 6l4 46h283z" />
    <glyph glyph-name="uni0233" unicode="&#x233;" horiz-adv-x="473" 
d="M100 622l-6 6l4 46h283l7 -5l-5 -47h-283zM263 143l3 -143h-75l4 143l-1 31l-169 324h82l10 -29l112 -214h5l122 211l13 32h80l-185 -324z" />
    <glyph glyph-name="uni0237" unicode="&#x237;" horiz-adv-x="289" 
d="M194 165v-72c0 -40.667 -9.16699 -74 -27.5 -100s-50.833 -50.333 -97.5 -73l-30 39v7c31.333 17.333 53.5 35.5 66.5 54.5s19.5 42.833 19.5 71.5v64l-2 285l-95 -1l-5 6l5 52h169z" />
    <glyph glyph-name="uni0259" unicode="&#x259;" horiz-adv-x="540" 
d="M432.5 436.5c42.333 -44.333 63.5 -105.833 63.5 -184.5c0 -52 -9.66699 -97.5 -29 -136.5s-46.666 -69 -81.999 -90s-77 -31.5 -125 -31.5c-62 0 -112 16.667 -150 50s-57 78.333 -57 135c0 15.333 1.66699 32.333 5 51l12 12l350 2v4c0 62 -14.667 109.333 -44 142
s-72 49 -128 49c-27.333 0 -55 -3.83301 -83 -11.5s-53.333 -18.5 -76 -32.5l-9 7l12 64c50 24.667 104.667 37 164 37c75.333 0 134.166 -22.167 176.499 -66.5zM361.5 88.5c27 24.333 44.833 58.5 53.5 102.5l-286 -3l-2 -17c0 -36.667 12.167 -65.667 36.5 -87
s56.5 -32 96.5 -32c40.667 0 74.5 12.167 101.5 36.5z" />
    <glyph glyph-name="uni02B0" unicode="&#x2b0;" horiz-adv-x="342" 
d="M277 623c16 -14.667 23.667 -36.333 23 -65l-2 -87l2 -133h-71l5 192c0 19.333 -4.5 33.833 -13.5 43.5s-21.5 14.5 -37.5 14.5c-20.667 0 -42 -10 -64 -30l-1 -87l3 -133h-72l4 127l-3 331l71 5l-2 -205h3c31.333 32.667 60 49 86 49c30 0 53 -7.33301 69 -22z" />
    <glyph glyph-name="uni02B2" unicode="&#x2b2;" horiz-adv-x="186" 
d="M102.5 776.5c6.33301 -7 9.50098 -16.501 9.50098 -28.501c0 -12.667 -3.5 -22.5 -10.5 -29.5s-16.167 -10.5 -27.5 -10.5s-20.333 3.33301 -27 10s-10 16.334 -10 29.001c0 12 3.5 21.667 10.5 29s16.5 11 28.5 11c11.333 0 20.166 -3.5 26.499 -10.5zM114.001 643.999
l-3 -173l2 -117c0 -34 -6.16699 -62 -18.5 -84s-32.833 -42 -61.5 -60l-25 33v6c14 12.667 24 26.667 30 42s9 35.333 9 60v114l-1 122l-38 -2l-3 6l3 50h39l65 4z" />
    <glyph glyph-name="uni02B7" unicode="&#x2b7;" horiz-adv-x="451" 
d="M87 601l45 -188h4l53 184l10 47h71l7 -43l45 -186h4l53 182l11 47h61l-96 -306h-68l-54 213h-6l-62 -213h-71l-81 303l66 5z" />
    <glyph glyph-name="uni02B8" unicode="&#x2b8;" horiz-adv-x="272" 
d="M70 601l61.001 -188.001h5l62 182l11 49h62l-101 -290c-16 -42.667 -34.5 -73.667 -55.5 -93s-53.167 -35.666 -96.5 -48.999h-6c-12.667 13.333 -22.667 27.333 -30 42l1 8c28.667 6 51.667 14.333 69 25s33.666 27.667 48.999 51l-110 303l69 5z" />
    <glyph glyph-name="uni02B9" unicode="&#x2b9;" horiz-adv-x="166" 
d="M124 491l-24 -183l-41 -6l-7 7l5 184l61 5z" />
    <glyph glyph-name="uni02BB" unicode="&#x2bb;" horiz-adv-x="167" 
d="M33 368c0 41.333 24.334 86 73.001 134l30 -21l1 -7c-28 -30 -42 -58 -42 -84c0 -26.667 13 -45 39 -55v-8c-12.667 -12 -28.334 -23.333 -47.001 -34c-36 13.333 -54 38.333 -54 75z" />
    <glyph glyph-name="uni02BC" unicode="&#x2bc;" horiz-adv-x="167" 
d="M137 426c0 -41.333 -24.334 -86 -73.001 -134l-30 21l-1 7c28 30 42 58 42 84c0 26.667 -13 45 -39 55v8c12.667 12 28.334 23.333 47.001 34c36 -13.333 54 -38.333 54 -75z" />
    <glyph glyph-name="uni02BE" unicode="&#x2be;" horiz-adv-x="305" 
d="M104 501c16.667 -0.666992 29.667 2.66895 39 10.002s14 18.666 14 33.999c0 30.667 -17.667 46 -53 46v43c31.333 0 55 -7.33301 71 -22s24 -36.334 24 -65.001c0 -27.333 -8.33301 -49 -25 -65s-40 -24 -70 -24v43z" />
    </font>
</defs>
</svg>
